<?xml version="1.0" encoding="us-ascii" standalone="no"?><svg xmlns="http://www.w3.org/2000/svg" xmlns:xlink="http://www.w3.org/1999/xlink" contentStyleType="text/css" height="1368px" preserveAspectRatio="none" style="width:1727px;height:1368px;background:#FFFFFF;" version="1.1" viewBox="0 0 1727 1368" width="1727px" zoomAndPan="magnify"><defs/><g><text fill="#000000" font-family="sans-serif" font-size="14" font-weight="bold" lengthAdjust="spacing" textLength="150" x="781.5" y="24.5332">Yeti-Vibes Use Cases</text><!--cluster Client_Interactions--><g id="cluster_Client_Interactions"><polygon fill="none" points="188.5,45.6094,188.5,45.8196,198.5702,45.1951,208.6404,45.8027,218.7105,46.0091,228.7807,44.896,238.8509,45.5317,248.9211,45.1829,258.9912,45.2259,269.0614,45.5412,279.1316,44.918,289.2018,46.163,299.2719,44.9791,309.3421,45.4116,319.4123,46.0413,329.4825,45.5236,339.5526,45.6776,349.6228,45.5774,359.693,45.7879,369.7632,45.8485,379.8333,46.1951,389.9035,46.2804,399.9737,46.2886,410.0439,45.864,420.114,46.073,430.1842,46.3116,440.2544,44.8882,450.3246,46.2879,460.3947,45.3129,470.4649,46.1432,480.5351,45.1144,490.6053,45.5409,500.6754,46.351,510.7456,45.5606,520.8158,45.7147,530.886,45.948,540.9561,46.0256,551.0263,45.6055,561.0965,45.8966,571.1667,45.037,581.2368,45.8938,591.307,46.1576,601.3772,46.0539,611.4474,46.2224,621.5175,45.1263,631.5877,44.9572,641.6579,44.988,651.7281,45.5505,661.7982,45.4128,671.8684,46.2908,681.9386,45.4347,692.0088,45.2663,702.0789,45.8376,712.1491,44.9425,722.2193,45.0902,732.2895,46.2583,742.3596,46.045,752.4298,46.3439,762.5,45.6094,762.459,45.5103,762.8943,45.8541,763.2824,46.0841,763.5004,45.9032,763.902,46.1656,764.2678,46.3416,764.3066,46.3577,764.6149,46.7783,764.5594,47.0482,764.8496,47.4613,764.683,47.6852,765,48.1094,764.3227,48.1094,765.5036,58.1357,764.2831,68.162,765.509,78.1883,765.2066,88.2146,764.7321,98.241,764.6462,108.2673,765.4588,118.2936,764.7007,128.3199,765.5919,138.3462,764.4473,148.3725,765.6174,158.3988,765.4843,168.4252,765.245,178.4515,765.0472,188.4778,765.7266,198.5041,765.6136,208.5304,765.1693,218.5567,765.2682,228.5831,764.8697,238.6094,765.7165,248.6357,765.1549,258.662,765.1726,268.6883,764.3916,278.7146,764.5948,288.741,765.5307,298.7673,765.4298,308.7936,764.9571,318.8199,764.6778,328.8462,764.7811,338.8725,764.3138,348.8988,765.4147,358.9252,765.7396,368.9515,765.5264,378.9778,765.6949,389.0041,764.8633,399.0304,765.0872,409.0567,764.6124,419.0831,765.284,429.1094,765.2468,439.1357,765.5524,449.162,764.7703,459.1883,764.8656,469.2146,765.4435,479.241,765.5673,489.2673,764.4875,499.2936,764.8061,509.3199,765.1493,519.3462,764.3892,529.3725,765.3534,539.3988,765.258,549.4252,764.8992,559.4515,765.1422,569.4778,765.7287,579.5041,764.6871,589.5304,765.315,599.5567,765.2856,609.5831,765.1158,619.6094,765.1409,629.6357,765.1135,639.662,764.3758,649.6883,764.5992,659.7146,764.5385,669.741,765.0638,679.7673,765.0881,689.7936,765.1617,699.8199,764.709,709.8462,764.9325,719.8725,764.8798,729.8988,765.5769,739.9252,765.4266,749.9515,764.5145,759.9778,764.9271,770.0041,764.4228,780.0304,765.2884,790.0567,765.6085,800.0831,765.5446,810.1094,764.5644,820.1357,765.464,830.162,764.2572,840.1883,765.2002,850.2146,764.7007,860.241,765.0967,870.2673,765.2403,880.2936,765.4721,890.3199,764.2801,900.3462,765.4755,910.3725,765.1782,920.3988,765.3553,930.4252,765.7478,940.4515,765.0055,950.4778,765.1753,960.5041,765.2134,970.5304,765.1972,980.5567,764.9992,990.5831,765.7107,1000.6094,764.3903,1010.6357,765.5653,1020.662,764.376,1030.6883,764.4597,1040.7146,765.04,1050.741,765.0283,1060.7673,764.5072,1070.7936,765.4137,1080.8199,765.1089,1090.8462,765.7267,1100.8725,765.6671,1110.8988,764.5517,1120.9252,764.6021,1130.9515,764.8708,1140.9778,765.3555,1151.0041,765.403,1161.0304,765.3012,1171.0567,764.658,1181.0831,765,1191.1094,765.196,1191.1905,765.0487,1191.5438,764.6925,1191.8105,764.487,1192.1395,764.2906,1192.4724,764.2678,1192.8771,764.2404,1192.8111,763.9317,1193.0659,763.5519,1193.149,763.1538,1193.1878,762.9157,1193.613,762.5,1193.6094,762.5,1193.1504,752.4298,1194.1118,742.3596,1194.0366,732.2895,1193.9812,722.2193,1194.3019,712.1491,1193.3635,702.0789,1193.3087,692.0088,1194.1283,681.9386,1193.0125,671.8684,1193.3754,661.7982,1193.7249,651.7281,1193.6781,641.6579,1193.2509,631.5877,1193.5664,621.5175,1194.354,611.4474,1194.2579,601.3772,1193.0131,591.307,1193.6879,581.2368,1193.0955,571.1667,1193.5831,561.0965,1193.9024,551.0263,1194.0292,540.9561,1192.9446,530.886,1194.0099,520.8158,1193.6178,510.7456,1193.054,500.6754,1193.1383,490.6053,1193.936,480.5351,1193.8592,470.4649,1193.5929,460.3947,1192.9373,450.3246,1194.2675,440.2544,1193.2975,430.1842,1193.0813,420.114,1193.5421,410.0439,1194.1991,399.9737,1194.2248,389.9035,1193.6445,379.8333,1193.4582,369.7632,1193.7792,359.693,1193.7956,349.6228,1193.1016,339.5526,1194.0233,329.4825,1194.1682,319.4123,1193.3936,309.3421,1193.1802,299.2719,1194.284,289.2018,1193.6304,279.1316,1193.6092,269.0614,1193.9084,258.9912,1192.9637,248.9211,1194.1393,238.8509,1193.5939,228.7807,1194.2782,218.7105,1193.3935,208.6404,1194.0184,198.5702,1193.1654,188.5,1193.6094,188.5313,1193.6848,188.1948,1193.5797,187.7511,1193.2157,187.4856,1193.2818,187.0129,1192.8476,186.7322,1192.8771,186.5873,1192.8171,186.7961,1192.6107,186.6501,1192.2573,186.468,1191.889,186.0355,1191.417,186,1191.1094,186.3842,1191.1094,185.5279,1181.0831,186.0582,1171.0567,185.9987,1161.0304,185.7376,1151.0041,186.6159,1140.9778,186.4433,1130.9515,185.6792,1120.9252,186.5266,1110.8988,186.0919,1100.8725,185.4164,1090.8462,185.7667,1080.8199,185.4747,1070.7936,185.8609,1060.7673,185.371,1050.741,185.3998,1040.7146,186.0703,1030.6883,185.8796,1020.662,185.9414,1010.6357,185.8568,1000.6094,186.1673,990.5831,185.4449,980.5567,186.1601,970.5304,185.2569,960.5041,186.296,950.4778,186.5928,940.4515,186.5221,930.4252,186.3613,920.3988,186.1922,910.3725,186.1057,900.3462,185.36,890.3199,186.4465,880.2936,186.3296,870.2673,185.8466,860.241,185.9942,850.2146,185.7914,840.1883,186.2177,830.162,186.6805,820.1357,185.6461,810.1094,186.4689,800.0831,185.9108,790.0567,185.6207,780.0304,185.5681,770.0041,185.3553,759.9778,185.5591,749.9515,186.0363,739.9252,186.273,729.8988,186.5762,719.8725,186.4201,709.8462,185.2886,699.8199,186.619,689.7936,186.4861,679.7673,186.5407,669.741,186.5219,659.7146,185.3409,649.6883,185.7423,639.662,186.316,629.6357,185.5185,619.6094,185.8971,609.5831,186.067,599.5567,186.3261,589.5304,186.0458,579.5041,186.7447,569.4778,186.4114,559.4515,186.2561,549.4252,185.4601,539.3988,186.3388,529.3725,185.4255,519.3462,186.3057,509.3199,186.0078,499.2936,186.2995,489.2673,185.9126,479.241,185.8039,469.2146,185.2591,459.1883,185.7856,449.162,185.2951,439.1357,185.7539,429.1094,186.4379,419.0831,186.1607,409.0567,185.5485,399.0304,186.2458,389.0041,186.0656,378.9778,186.5433,368.9515,186.5649,358.9252,186.0937,348.8988,185.821,338.8725,185.7855,328.8462,185.9936,318.8199,186.6691,308.7936,185.3263,298.7673,185.8361,288.741,186.2668,278.7146,186.7317,268.6883,186.2119,258.662,185.8018,248.6357,185.2621,238.6094,185.5762,228.5831,185.7781,218.5567,186.3398,208.5304,186.3695,198.5041,186.0518,188.4778,185.867,178.4515,185.2804,168.4252,186.129,158.3988,186.4354,148.3725,186.6829,138.3462,186.0983,128.3199,186.0799,118.2936,185.7798,108.2673,186.2487,98.241,185.53,88.2146,186.5161,78.1883,185.6943,68.162,185.4698,58.1357,186,48.1094,186.0791,48.1421,186.2918,47.816,186.3105,47.4096,186.402,47.0333,186.6344,46.7153,186.7322,46.3416,186.7291,46.334,187.0737,46.1659,187.4491,46.0724,187.7505,45.8,188.1961,45.8758,188.5,45.6094" style="stroke:#181818;stroke-width:1.0;"/><text fill="#000000" font-family="sans-serif" font-size="14" font-weight="bold" lengthAdjust="spacing" textLength="133" x="409" y="62.1426">Client_Interactions</text></g><!--cluster System_Interactions--><g id="cluster_System_Interactions"><polygon fill="none" points="831.5,931.6094,831.5,931.8196,841.4663,931.1951,851.4326,931.8027,861.3989,932.0091,871.3652,930.896,881.3315,931.5317,891.2978,931.1829,901.264,931.2259,911.2303,931.5412,921.1966,930.918,931.1629,932.163,941.1292,930.9791,951.0955,931.4116,961.0618,932.0413,971.0281,931.5236,980.9944,931.6776,990.9607,931.5774,1000.927,931.7879,1010.8933,931.8485,1020.8596,932.1951,1030.8258,932.2804,1040.7921,932.2886,1050.7584,931.864,1060.7247,932.073,1070.691,932.3116,1080.6573,930.8882,1090.6236,932.2879,1100.5899,931.3129,1110.5562,932.1432,1120.5225,931.1144,1130.4888,931.5409,1140.4551,932.351,1150.4213,931.5606,1160.3876,931.7147,1170.3539,931.948,1180.3202,932.0256,1190.2865,931.6055,1200.2528,931.8966,1210.2191,931.037,1220.1854,931.8938,1230.1517,932.1576,1240.118,932.0539,1250.0843,932.2224,1260.0506,931.1263,1270.0169,930.9572,1279.9831,930.988,1289.9494,931.5505,1299.9157,931.4128,1309.882,932.2908,1319.8483,931.4347,1329.8146,931.2663,1339.7809,931.8376,1349.7472,930.9425,1359.7135,931.0902,1369.6798,932.2583,1379.6461,932.045,1389.6124,932.3439,1399.5787,931.2876,1409.5449,931.9286,1419.5112,932.1998,1429.4775,931.137,1439.4438,931.5135,1449.4101,931.7354,1459.3764,932.2611,1469.3427,931.6052,1479.309,932.0719,1489.2753,931.0556,1499.2416,930.9321,1509.2079,932.113,1519.1742,930.8924,1529.1404,932.1183,1539.1067,931.816,1549.073,931.3415,1559.0393,931.2556,1569.0056,932.0681,1578.9719,931.31,1588.9382,932.2012,1598.9045,931.0566,1608.8708,932.2268,1618.8371,932.0937,1628.8034,931.8543,1638.7697,931.6566,1648.736,932.336,1658.7022,932.223,1668.6685,931.7786,1678.6348,931.8776,1688.6011,931.4791,1698.5674,932.3258,1708.5337,931.7642,1718.5,931.6094,1718.522,931.6625,1718.776,931.5685,1719.1554,931.7775,1719.6284,932.2122,1719.969,932.3275,1720.2678,932.3416,1720.2545,932.3361,1720.315,932.6541,1720.4932,933.0208,1720.4958,933.3147,1720.9813,933.8087,1721,934.1094,1721.7396,934.1094,1721.5264,944.1416,1721.6949,954.1739,1720.8633,964.2061,1721.0872,974.2384,1720.6124,984.2707,1721.284,994.3029,1721.2468,1004.3352,1721.5524,1014.3674,1720.7703,1024.3997,1720.8656,1034.432,1721.4435,1044.4642,1721.5673,1054.4965,1720.4875,1064.5287,1720.8061,1074.561,1721.1493,1084.5932,1720.3892,1094.6255,1721.3534,1104.6578,1721.258,1114.69,1720.8992,1124.7223,1721.1422,1134.7545,1721.7287,1144.7868,1720.6871,1154.8191,1721.315,1164.8513,1721.2856,1174.8836,1721.1158,1184.9158,1721.1409,1194.9481,1721.1135,1204.9803,1720.3758,1215.0126,1720.5992,1225.0449,1720.5385,1235.0771,1721,1245.1094,1721.0197,1245.1175,1720.8807,1245.4742,1720.7569,1245.8371,1720.4711,1246.1329,1720.3934,1246.515,1720.2678,1246.8771,1720.2524,1246.8401,1719.9878,1247.2012,1719.6151,1247.3014,1719.1452,1247.167,1718.8443,1247.4405,1718.5,1247.6094,1718.5,1247.0321,1708.5337,1247.8978,1698.5674,1248.2179,1688.6011,1248.1539,1678.6348,1247.1738,1668.6685,1248.0733,1658.7022,1246.8666,1648.736,1247.8095,1638.7697,1247.3101,1628.8034,1247.7061,1618.8371,1247.8497,1608.8708,1248.0815,1598.9045,1246.8895,1588.9382,1248.0848,1578.9719,1247.7875,1569.0056,1247.9647,1559.0393,1248.3572,1549.073,1247.6149,1539.1067,1247.7846,1529.1404,1247.8228,1519.1742,1247.8066,1509.2079,1247.6086,1499.2416,1248.3201,1489.2753,1246.9996,1479.309,1248.1747,1469.3427,1246.9854,1459.3764,1247.0691,1449.4101,1247.6494,1439.4438,1247.6377,1429.4775,1247.1165,1419.5112,1248.0231,1409.5449,1247.7182,1399.5787,1248.336,1389.6124,1248.2765,1379.6461,1247.1611,1369.6798,1247.2114,1359.7135,1247.4802,1349.7472,1247.9649,1339.7809,1248.0124,1329.8146,1247.9105,1319.8483,1247.2674,1309.882,1248.2457,1299.9157,1248.2432,1289.9494,1247.5621,1279.9831,1247.3703,1270.0169,1247.208,1260.0506,1247.3948,1250.0843,1247.7468,1240.118,1247.541,1230.1517,1247.1916,1220.1854,1248.0968,1210.2191,1247.1504,1200.2528,1248.1118,1190.2865,1248.0366,1180.3202,1247.9812,1170.3539,1248.3019,1160.3876,1247.3635,1150.4213,1247.3087,1140.4551,1248.1283,1130.4888,1247.0125,1120.5225,1247.3754,1110.5562,1247.7249,1100.5899,1247.6781,1090.6236,1247.2509,1080.6573,1247.5664,1070.691,1248.354,1060.7247,1248.2579,1050.7584,1247.0131,1040.7921,1247.6879,1030.8258,1247.0955,1020.8596,1247.5831,1010.8933,1247.9024,1000.927,1248.0292,990.9607,1246.9446,980.9944,1248.0099,971.0281,1247.6178,961.0618,1247.054,951.0955,1247.1383,941.1292,1247.936,931.1629,1247.8592,921.1966,1247.5929,911.2303,1246.9373,901.264,1248.2675,891.2978,1247.2975,881.3315,1247.0813,871.3652,1247.5421,861.3989,1248.1991,851.4326,1248.2248,841.4663,1247.6445,831.5,1247.6094,831.4807,1247.5628,831.1681,1247.5152,830.8166,1247.3738,830.3746,1247.0137,830.1386,1247.1511,829.7322,1246.8771,829.9043,1246.9484,829.5193,1246.4961,829.3072,1246.1153,829.5007,1245.9025,829.1529,1245.4656,829,1245.1094,828.9998,1245.1094,829.299,1235.0771,828.3543,1225.0449,829.53,1215.0126,828.9846,1204.9803,829.6688,1194.9481,828.7841,1184.9158,829.409,1174.8836,828.556,1164.8513,829.245,1154.8191,829.3793,1144.7868,828.6727,1134.7545,829.363,1124.7223,828.4286,1114.69,828.5295,1104.6578,829.6828,1094.6255,829.6844,1084.5932,829.5685,1074.561,828.6396,1064.5287,829.3842,1054.4965,828.5279,1044.4642,829.0582,1034.432,828.9987,1024.3997,828.7376,1014.3674,829.6159,1004.3352,829.4433,994.3029,828.6792,984.2707,829.5266,974.2384,829.0919,964.2061,828.4164,954.1739,828.7667,944.1416,829,934.1094,828.8382,934.0424,829.1036,933.7381,829.0992,933.322,829.2545,932.9722,829.6074,932.7041,829.7322,932.3416,829.7169,932.3045,830.0783,932.1771,830.4211,932.0046,830.8142,931.9538,831.0756,931.5849,831.5,931.6094" style="stroke:#181818;stroke-width:1.0;"/><text fill="#000000" font-family="sans-serif" font-size="14" font-weight="bold" lengthAdjust="spacing" textLength="142" x="1204" y="948.1426">System_Interactions</text></g><g id="elem_OpensAccount"><polygon fill="#F1F1F1" points="393.2069,128.5512,391.6778,135.3808,385.8414,140.5773,379.1448,145.7545,373.6165,151.7676,363.1863,155.1961,353.6576,158.8801,342.4737,161.2572,330.1516,162.3961,319.4502,163.5636,304.9357,161.727,295.6737,161.5228,283.6947,158.634,272.1689,154.6476,264.0929,151.0922,255.9784,146.1112,249.9075,140.8197,244.8817,134.7428,241.9542,128.5201,240.3046,121.8342,241.0727,115.4294,243.8597,109.2631,249.3226,103.8696,255.1715,98.2455,262.4845,93.1734,274.5225,90.5926,281.9062,85.7776,294.9924,84.4036,304.9762,82.0318,319.0495,82.6421,330.1523,82.6799,340.1773,83.2864,352.8866,86.5603,362.8127,89.7032,371.4693,93.5647,379.111,98.2964,386.2439,104.1479,390.2459,109.685,394.8042,116.7676,393.9978,122.1585" style="stroke:#181818;stroke-width:0.5;"/><text fill="#000000" font-family="sans-serif" font-size="14" lengthAdjust="spacing" textLength="82" x="275.0391" y="108.5836">Client open's</text><text fill="#000000" font-family="sans-serif" font-size="14" lengthAdjust="spacing" textLength="71" x="280.5391" y="126.193">an Account</text><text fill="#000000" font-family="sans-serif" font-size="14" lengthAdjust="spacing" textLength="92" x="272.0391" y="143.8024">with Yeti-Vibes</text></g><g id="elem_ClientLogin"><polygon fill="#F1F1F1" points="397.1162,230.7215,395.5023,235.4437,389.3424,239.0369,382.2746,242.6166,376.4398,246.7743,365.4315,249.145,355.3746,251.6923,343.5708,253.3359,330.5656,254.1234,319.2711,254.9307,303.9521,253.6607,294.1766,253.5195,281.5336,251.5221,269.3689,248.7657,260.8452,246.3073,252.2809,242.8632,245.8735,239.2044,240.5692,235.0026,237.4794,230.6999,235.7383,226.077,236.549,221.6484,239.4905,217.3847,245.2562,213.6554,251.4293,209.7666,259.1477,206.2596,271.853,204.4751,279.646,201.1458,293.4575,200.1957,303.9948,198.5557,318.8481,198.9777,330.5664,199.0039,341.1471,199.4232,354.5609,201.6869,365.0372,203.8601,374.1736,206.5301,382.2389,209.8019,389.7672,213.8478,393.991,217.6764,398.802,222.5737,397.9509,226.3012" style="stroke:#181818;stroke-width:0.5;"/><text fill="#000000" font-family="sans-serif" font-size="14" lengthAdjust="spacing" textLength="84" x="273.7817" y="221.4366">Cleint log's in</text><text fill="#000000" font-family="sans-serif" font-size="14" lengthAdjust="spacing" textLength="98" x="268.7817" y="239.046">to their account</text></g><g id="elem_ValidateSubscription"><polygon fill="#F1F1F1" points="747.4024,230.7844,745.332,235.5159,737.43,239.116,728.3631,242.7028,720.8781,246.8687,706.7562,249.2439,693.855,251.7962,678.7126,253.4431,662.0291,254.2321,647.5401,255.041,627.8883,253.7685,615.348,253.6271,599.1292,251.6257,583.524,248.864,572.5894,246.4007,561.6029,242.9499,553.3832,239.284,546.5786,235.0739,542.615,230.7628,540.3815,226.1308,541.4214,221.6935,545.1949,217.4215,552.5913,213.6849,560.5104,209.7885,570.4118,206.2746,586.7106,204.4866,596.7077,201.1508,614.4256,200.1988,627.9431,198.5556,646.9975,198.9784,662.0301,199.0047,675.6034,199.4248,692.811,201.693,706.2505,203.8704,717.9709,206.5456,728.3174,209.8238,737.9749,213.8777,743.3934,217.7138,749.5651,222.6206,748.4732,226.3554" style="stroke:#181818;stroke-width:0.5;"/><text fill="#000000" font-family="sans-serif" font-size="14" lengthAdjust="spacing" textLength="126" x="577.6295" y="222.2794">Client's subscription</text><text fill="#000000" font-family="sans-serif" font-size="14" lengthAdjust="spacing" textLength="71" x="607.1295" y="239.8887">is validated</text></g><g id="elem_ConfigureCamera"><polygon fill="#F1F1F1" points="426.481,321.7215,424.2738,326.4437,415.8494,330.0369,406.1831,333.6166,398.2033,337.7743,383.1478,340.145,369.3937,342.6923,353.2503,344.3359,335.4639,345.1234,320.0171,345.9307,299.0662,344.6607,285.6969,344.5195,268.4059,342.5221,251.769,339.7657,240.1116,337.3073,228.3988,333.8632,219.6357,330.2044,212.3813,326.0026,208.1557,321.6999,205.7745,317.077,206.8832,312.6484,210.9061,308.3847,218.7915,304.6554,227.2341,300.7666,237.79,297.2596,255.1663,295.4751,265.8243,292.1458,284.7135,291.1957,299.1246,289.5557,319.4386,289.9777,335.465,290.0039,349.9356,290.4232,368.2808,292.6869,382.6086,294.8601,395.1039,297.5301,406.1343,300.8019,416.4303,304.8478,422.207,308.6764,428.7867,313.5737,427.6226,317.3012" style="stroke:#181818;stroke-width:0.5;"/><text fill="#000000" font-family="sans-serif" font-size="14" lengthAdjust="spacing" textLength="94" x="268.9802" y="312.4366">Client provides</text><text fill="#000000" font-family="sans-serif" font-size="14" lengthAdjust="spacing" textLength="140" x="247.9802" y="330.046">camera configurations</text></g><g id="elem_ConfigureFrame"><polygon fill="#F1F1F1" points="407.6393,427.5512,405.8135,434.3808,398.8449,439.5773,390.849,444.7545,384.2482,450.7676,371.7945,454.1961,360.4172,457.8801,347.0635,460.2572,332.3507,461.3961,319.5732,462.5636,302.2428,460.727,291.1838,460.5228,276.8809,457.634,263.119,453.6476,253.4761,450.0922,243.7873,445.1112,236.5386,439.8197,230.5378,433.7428,227.0424,427.5201,225.0727,420.8342,225.9898,414.4294,229.3175,408.2631,235.8402,402.8696,242.8239,397.2455,251.5557,392.1734,265.9292,389.5926,274.7454,384.7776,290.3704,383.4036,302.2911,381.0318,319.0947,381.6421,332.3516,381.6799,344.3216,382.2864,359.4966,385.5603,371.3484,388.7032,381.6844,392.5647,390.8087,397.2964,399.3255,403.1479,404.1039,408.685,409.5465,415.7676,408.5836,421.1585" style="stroke:#181818;stroke-width:0.5;"/><text fill="#000000" font-family="sans-serif" font-size="14" lengthAdjust="spacing" textLength="109" x="261.3883" y="407.5836">Client configure's</text><text fill="#000000" font-family="sans-serif" font-size="14" lengthAdjust="spacing" textLength="102" x="264.8883" y="425.193">zone on a frame</text><text fill="#000000" font-family="sans-serif" font-size="14" lengthAdjust="spacing" textLength="84" x="275.8883" y="442.8024">from the feed</text></g><g id="elem_CreateEvent"><polygon fill="#F1F1F1" points="392.3054,529.7215,390.7903,534.4437,385.0079,538.0369,378.3731,541.6166,372.8959,545.7743,362.5621,548.145,353.1215,550.6923,342.0409,552.3359,329.8326,553.1234,319.2301,553.9307,304.8497,552.6607,295.6732,552.5195,283.8049,550.5221,272.3856,547.7657,264.3841,545.3073,256.3446,541.8632,250.3298,538.2044,245.3505,534.0026,242.45,529.6999,240.8156,525.077,241.5766,520.6484,244.3379,516.3847,249.7503,512.6554,255.5452,508.7666,262.7906,505.2596,274.7174,503.4751,282.0329,500.1458,294.9982,499.1957,304.8898,497.5557,318.833,497.9777,329.8333,498.0039,339.7657,498.4232,352.3576,500.6869,362.192,502.8601,370.7685,505.5301,378.3397,508.8019,385.4067,512.8478,389.3717,516.6764,393.8879,521.5737,393.0889,525.3012" style="stroke:#181818;stroke-width:0.5;"/><text fill="#000000" font-family="sans-serif" font-size="14" lengthAdjust="spacing" textLength="87" x="272.332" y="520.4366">Client creates</text><text fill="#000000" font-family="sans-serif" font-size="14" lengthAdjust="spacing" textLength="55" x="290.332" y="538.046">an event</text></g><g id="elem_MakePayment"><polygon fill="#F1F1F1" points="398.9193,635.5512,397.2771,642.3808,391.0094,647.5773,383.8178,652.7545,377.881,658.7676,366.6799,662.1961,356.447,665.8801,344.4365,668.2572,331.2036,669.3961,319.7114,670.5636,304.1242,668.727,294.1775,668.5228,281.3133,665.634,268.9356,661.6476,260.2627,658.0922,251.5485,653.1112,245.0288,647.8197,239.6316,641.7428,236.4878,635.5201,234.7162,628.8342,235.5411,622.4294,238.5341,616.2631,244.4007,610.8696,250.6819,605.2455,258.5354,600.1734,271.4631,597.5926,279.3926,592.7776,293.4459,591.4036,304.1676,589.0318,319.281,589.6421,331.2044,589.6799,341.9704,590.2864,355.619,593.5603,366.2787,596.7032,375.575,600.5647,383.7816,605.2964,391.4417,611.1479,395.7394,616.685,400.6346,623.7676,399.7686,629.1585" style="stroke:#181818;stroke-width:0.5;"/><text fill="#000000" font-family="sans-serif" font-size="14" lengthAdjust="spacing" textLength="81" x="275.696" y="615.5836">Client makes</text><text fill="#000000" font-family="sans-serif" font-size="14" lengthAdjust="spacing" textLength="75" x="278.696" y="633.193">payment for</text><text fill="#000000" font-family="sans-serif" font-size="14" lengthAdjust="spacing" textLength="100" x="268.196" y="650.8024">the subscription</text></g><g id="elem_ViewReactions"><polygon fill="#F1F1F1" points="403.7301,737.7215,401.989,742.4437,395.3439,746.0369,387.7193,749.6166,381.4249,753.7743,369.5493,756.145,358.7002,758.6923,345.9664,760.3359,331.9367,761.1234,319.7524,761.9307,303.2265,760.6607,292.6809,760.5195,279.042,758.5221,265.919,755.7657,256.7237,753.3073,247.4848,749.8632,240.5726,746.2044,234.8503,742.0026,231.5172,737.6999,229.6389,733.077,230.5135,728.6484,233.6867,724.3847,239.9066,720.6554,246.566,716.7666,254.8925,713.2596,268.5987,711.4751,277.0056,708.1458,291.9052,707.1957,303.2726,705.5557,319.2961,705.9777,331.9375,706.0039,343.3518,706.4232,357.8223,708.6869,369.124,710.8601,378.9801,713.5301,387.6808,716.8019,395.8022,720.8478,400.3587,724.6764,405.5487,729.5737,404.6305,733.3012" style="stroke:#181818;stroke-width:0.5;"/><text fill="#000000" font-family="sans-serif" font-size="14" lengthAdjust="spacing" textLength="94" x="269.1457" y="728.4366">Client can view</text><text fill="#000000" font-family="sans-serif" font-size="14" lengthAdjust="spacing" textLength="107" x="264.6457" y="746.046">the reaction data</text></g><g id="elem_DownloadReactions"><polygon fill="#F1F1F1" points="420.3353,828.7884,418.2505,833.5205,410.2933,837.1211,401.1632,840.7084,393.626,844.8747,379.4056,847.2503,366.4143,849.8029,351.1663,851.45,334.3665,852.2391,319.7764,853.0481,299.9875,851.7755,287.3597,851.634,271.0278,849.6324,255.3136,846.8703,244.3028,844.4068,233.2397,840.9555,224.9626,837.2891,218.1106,833.0785,214.1193,828.7668,211.8702,824.1343,212.9174,819.6964,216.7172,815.4239,224.1652,811.6868,232.1395,807.7899,242.11,804.2755,258.5225,802.4873,268.5893,799.1511,286.4309,798.199,300.0427,796.5556,319.23,796.9785,334.3674,797.0047,348.0355,797.4249,365.3631,799.6933,378.8963,801.871,390.6985,804.5466,401.1171,807.8252,410.8421,811.8796,416.2983,815.7162,422.5131,820.6236,421.4136,824.3589" style="stroke:#181818;stroke-width:0.5;"/><text fill="#000000" font-family="sans-serif" font-size="14" lengthAdjust="spacing" textLength="127" x="249.3525" y="820.2829">Client can download</text><text fill="#000000" font-family="sans-serif" font-size="14" lengthAdjust="spacing" textLength="100" x="264.8525" y="837.8923">reactions offline</text></g><g id="elem_ViewInsights"><polygon fill="#F1F1F1" points="423.8749,934.5512,421.7241,941.3808,413.5154,946.5773,404.0966,951.7545,396.3211,957.7676,381.651,961.1961,368.249,964.8801,352.519,967.2572,335.1879,968.3961,320.1365,969.5636,299.722,967.727,286.6949,967.5228,269.8466,964.634,253.6357,960.6476,242.2767,957.0922,230.8638,952.1112,222.3251,946.8197,215.2564,940.7428,211.1389,934.5201,208.8187,927.8342,209.899,921.4294,213.8189,915.2631,221.5024,909.8696,229.7288,904.2455,240.0146,899.1734,256.946,896.5926,267.3311,891.7776,285.7367,890.4036,299.7789,888.0318,319.5729,888.6421,335.1889,888.6799,349.2891,889.2864,367.1646,892.5603,381.1257,895.7032,393.301,899.5647,404.0491,904.2964,414.0815,910.1479,419.7102,915.685,426.1215,922.7676,424.9872,928.1585" style="stroke:#181818;stroke-width:0.5;"/><text fill="#000000" font-family="sans-serif" font-size="14" lengthAdjust="spacing" textLength="94" x="269.1518" y="914.5836">Client can view</text><text fill="#000000" font-family="sans-serif" font-size="14" lengthAdjust="spacing" textLength="80" x="276.1518" y="932.193">Insights from</text><text fill="#000000" font-family="sans-serif" font-size="14" lengthAdjust="spacing" textLength="136" x="250.1518" y="949.8024">the gathered reaction</text></g><g id="elem_OffBoardClient"><polygon fill="#F1F1F1" points="431.7626,1036.8463,429.4467,1041.5869,420.6075,1045.194,410.4653,1048.7877,402.0926,1052.9616,386.2959,1055.3414,371.8646,1057.8986,354.9264,1059.5486,336.2643,1060.3392,320.0569,1061.1496,298.0745,1059.8747,284.0469,1059.733,265.9046,1057.7278,248.4486,1054.9607,236.2173,1052.4928,223.9278,1049.0353,214.7333,1045.3623,207.1217,1041.1441,202.688,1036.8247,200.1895,1032.1838,201.3528,1027.738,205.5738,1023.4577,213.8474,1019.7139,222.7057,1015.81,233.7814,1012.2893,252.0132,1010.4979,263.1959,1007.1557,283.0151,1006.2019,298.1358,1004.5555,319.45,1004.9791,336.2653,1005.0054,351.4485,1005.4264,370.6969,1007.6989,385.7302,1009.8805,398.8406,1012.5609,410.4141,1015.8454,421.2171,1019.9071,427.2781,1023.7506,434.1818,1028.6668,432.9604,1032.4088" style="stroke:#181818;stroke-width:0.5;"/><text fill="#000000" font-family="sans-serif" font-size="14" lengthAdjust="spacing" textLength="143" x="241.4197" y="1028.3332">Client decides to leave</text><text fill="#000000" font-family="sans-serif" font-size="14" lengthAdjust="spacing" textLength="108" x="260.9197" y="1045.9426">and is off-boared</text></g><g id="elem_RefundPayment"><polygon fill="#F1F1F1" points="740.8517,921.7215,738.9129,926.4437,731.5129,930.0369,723.0221,933.6166,716.0127,937.7743,702.7881,940.145,690.7065,942.6923,676.5263,944.3359,660.9028,945.1234,647.3344,945.9307,628.9312,944.6607,617.1877,944.5195,601.9994,942.5221,587.3856,939.7657,577.1459,937.3073,566.8574,933.8632,559.16,930.2044,552.7877,926.0026,549.0759,921.6999,546.9843,917.077,547.9582,912.6484,551.4919,908.3847,558.4184,904.6554,565.8343,900.7666,575.1066,897.2596,590.3698,895.4751,599.7317,892.1458,616.3239,891.1957,628.9826,889.5557,646.8263,889.9777,660.9037,890.0039,673.6146,890.4232,689.7289,892.6869,702.3144,894.8601,713.2902,897.5301,722.9793,900.8019,732.0232,904.8478,737.0974,908.6764,742.877,913.5737,741.8544,917.3012" style="stroke:#181818;stroke-width:0.5;"/><text fill="#000000" font-family="sans-serif" font-size="14" lengthAdjust="spacing" textLength="112" x="587.5452" y="912.4366">Client's remaining</text><text fill="#000000" font-family="sans-serif" font-size="14" lengthAdjust="spacing" textLength="121" x="585.0452" y="930.046">amout is calculated</text></g><g id="elem_StartEvent"><polygon fill="#F1F1F1" points="391.0023,1142.5512,389.5155,1149.3808,383.8409,1154.5773,377.3299,1159.7545,371.9548,1165.7676,361.8137,1169.1961,352.5491,1172.8801,341.6752,1175.2572,329.6945,1176.3961,319.2898,1177.5636,305.1776,1175.727,296.1722,1175.5228,284.5253,1172.634,273.3189,1168.6476,265.4667,1165.0922,257.5771,1160.1112,251.6745,1154.8197,246.788,1148.7428,243.9417,1142.5201,242.3377,1135.8342,243.0845,1129.4294,245.7943,1123.2631,251.1058,1117.8696,256.7926,1112.2455,263.9029,1107.1734,275.6073,1104.5926,282.7863,1099.7776,295.5098,1098.4036,305.2169,1096.0318,318.9001,1096.6421,329.6952,1096.6799,339.4424,1097.2864,351.7995,1100.5603,361.4505,1103.7032,369.8671,1107.5647,377.297,1112.2964,384.2323,1118.1479,388.1233,1123.685,392.5553,1130.7676,391.7712,1136.1585" style="stroke:#181818;stroke-width:0.5;"/><text fill="#000000" font-family="sans-serif" font-size="14" lengthAdjust="spacing" textLength="85" x="273.4178" y="1122.5836">Start reaction</text><text fill="#000000" font-family="sans-serif" font-size="14" lengthAdjust="spacing" textLength="81" x="275.4178" y="1140.193">gathering for</text><text fill="#000000" font-family="sans-serif" font-size="14" lengthAdjust="spacing" textLength="59" x="288.4178" y="1157.8024">the event</text></g><g id="elem_LoadConfiguration"><polygon fill="#F1F1F1" points="1037.5409,1090.7215,1035.701,1095.4437,1028.6784,1099.0369,1020.6207,1102.6166,1013.9688,1106.7743,1001.4187,1109.145,989.9533,1111.6923,976.4963,1113.3359,961.6697,1114.1234,948.7934,1114.9307,931.3289,1113.6607,920.1843,1113.5195,905.7707,1111.5221,891.9023,1108.7657,882.1848,1106.3073,872.4211,1102.8632,865.1163,1099.2044,859.069,1095.0026,855.5466,1090.6999,853.5616,1086.077,854.4858,1081.6484,857.8393,1077.3847,864.4125,1073.6554,871.4502,1069.7666,880.2495,1066.2596,894.7342,1064.4751,903.6187,1061.1458,919.3646,1060.1957,931.3776,1058.5557,948.3112,1058.9777,961.6706,1059.0039,973.7332,1059.4232,989.0256,1061.6869,1000.9692,1063.8601,1011.3851,1066.5301,1020.58,1069.8019,1029.1627,1073.8478,1033.9781,1077.6764,1039.4628,1082.5737,1038.4925,1086.3012" style="stroke:#181818;stroke-width:0.5;"/><text fill="#000000" font-family="sans-serif" font-size="14" lengthAdjust="spacing" textLength="84" x="903.0955" y="1081.4366">System loads</text><text fill="#000000" font-family="sans-serif" font-size="14" lengthAdjust="spacing" textLength="114" x="890.0955" y="1099.046">feed configuration</text></g><g id="elem_ProcessFeed"><polygon fill="#F1F1F1" points="1033.1316,1196.5512,1031.3765,1203.3808,1024.6774,1208.5773,1016.9909,1213.7545,1010.6454,1219.7676,998.6735,1223.1961,987.7363,1226.8801,974.8993,1229.2572,960.7557,1230.3961,948.4725,1231.5636,931.8126,1229.727,921.1814,1229.5228,907.4318,1226.634,894.2023,1222.6476,884.9324,1219.0922,875.6185,1214.1112,868.6502,1208.8197,862.8816,1202.7428,859.5214,1196.5201,857.6279,1189.8342,858.5095,1183.4294,861.7085,1177.2631,867.9789,1171.8696,874.6923,1166.2455,883.0863,1161.1734,896.9038,1158.5926,905.3789,1153.7776,920.3994,1152.4036,931.859,1150.0318,948.0125,1150.6421,960.7565,1150.6799,972.2634,1151.2864,986.8513,1154.5603,998.2447,1157.7032,1008.1808,1161.5647,1016.9521,1166.2964,1025.1394,1172.1479,1029.7329,1177.685,1034.965,1184.7676,1034.0394,1190.1585" style="stroke:#181818;stroke-width:0.5;"/><text fill="#000000" font-family="sans-serif" font-size="14" lengthAdjust="spacing" textLength="104" x="892.8528" y="1176.5836">System start's to</text><text fill="#000000" font-family="sans-serif" font-size="14" lengthAdjust="spacing" textLength="74" x="907.8528" y="1194.193">process the</text><text fill="#000000" font-family="sans-serif" font-size="14" lengthAdjust="spacing" textLength="102" x="895.8528" y="1211.8024">feed in real-time</text></g><g id="elem_IdentifyPerson"><polygon fill="#F1F1F1" points="1346.5486,1196.5512,1344.638,1203.3808,1337.3459,1208.5773,1328.9788,1213.7545,1322.0716,1219.7676,1309.0397,1223.1961,1297.1342,1226.8801,1283.1606,1229.2572,1267.7648,1230.3961,1254.3941,1231.5636,1236.2591,1229.727,1224.6867,1229.5228,1209.7198,1226.634,1195.319,1222.6476,1185.2284,1219.0922,1175.0899,1214.1112,1167.5046,1208.8197,1161.2252,1202.7428,1157.5675,1196.5201,1155.5064,1189.8342,1156.4661,1183.4294,1159.9483,1177.2631,1166.7738,1171.8696,1174.0817,1166.2455,1183.2189,1161.1734,1198.2596,1158.5926,1207.4851,1153.7776,1223.8355,1152.4036,1236.3097,1150.0318,1253.8934,1150.6421,1267.7657,1150.6799,1280.2914,1151.2864,1296.1708,1154.5603,1308.5729,1157.7032,1319.3888,1161.5647,1328.9366,1166.2964,1337.8488,1172.1479,1342.849,1177.685,1348.5444,1184.7676,1347.5367,1190.1585" style="stroke:#181818;stroke-width:0.5;"/><text fill="#000000" font-family="sans-serif" font-size="14" lengthAdjust="spacing" textLength="96" x="1202.631" y="1176.5836">System detects</text><text fill="#000000" font-family="sans-serif" font-size="14" lengthAdjust="spacing" textLength="108" x="1196.631" y="1194.193">and identifies the</text><text fill="#000000" font-family="sans-serif" font-size="14" lengthAdjust="spacing" textLength="119" x="1193.131" y="1211.8024">person in the Zone</text></g><g id="elem_CaptureReaction"><polygon fill="#F1F1F1" points="1339.5332,1080.5512,1337.7639,1087.3808,1331.0109,1092.5773,1323.2625,1097.7545,1316.866,1103.7676,1304.7977,1107.1961,1293.7725,1110.8801,1280.8321,1113.2572,1266.5747,1114.3961,1254.1927,1115.5636,1237.3986,1113.727,1226.6819,1113.5228,1212.8216,1110.634,1199.4856,1106.6476,1190.1412,1103.0922,1180.7523,1098.1112,1173.7279,1092.8197,1167.9128,1086.7428,1164.5256,1080.5201,1162.6168,1073.8342,1163.5056,1067.4294,1166.7303,1061.2631,1173.0511,1055.8696,1179.8186,1050.2455,1188.2802,1045.1734,1202.2089,1042.5926,1210.7522,1037.7776,1225.8936,1036.4036,1237.4454,1034.0318,1253.729,1034.6421,1266.5755,1034.6799,1278.1751,1035.2864,1292.8804,1038.5603,1304.3655,1041.7032,1314.3815,1045.5647,1323.2234,1050.2964,1331.4766,1056.1479,1336.1071,1061.685,1341.3813,1068.7676,1340.4482,1074.1585" style="stroke:#181818;stroke-width:0.5;"/><text fill="#000000" font-family="sans-serif" font-size="14" lengthAdjust="spacing" textLength="105" x="1198.0599" y="1060.5836">System captures</text><text fill="#000000" font-family="sans-serif" font-size="14" lengthAdjust="spacing" textLength="91" x="1205.0599" y="1078.193">the reaction of</text><text fill="#000000" font-family="sans-serif" font-size="14" lengthAdjust="spacing" textLength="68" x="1218.5599" y="1095.8024">the person</text></g><g id="elem_ValidateReaction"><polygon fill="#F1F1F1" points="1702.9347,1133.5512,1701.1513,1140.3808,1694.3444,1145.5773,1686.5342,1150.7545,1680.0866,1156.7676,1667.9219,1160.1961,1656.8087,1163.8801,1643.765,1166.2572,1629.3937,1167.3961,1616.9128,1168.5636,1599.9847,1166.727,1589.1824,1166.5228,1575.2114,1163.634,1561.769,1159.6476,1552.3499,1156.0922,1542.886,1151.1112,1535.8056,1145.8197,1529.9441,1139.7428,1526.5298,1133.5201,1524.6058,1126.8342,1525.5016,1120.4294,1528.7521,1114.2631,1535.1234,1108.8696,1541.9449,1103.2455,1550.4741,1098.1734,1564.5139,1095.5926,1573.1255,1090.7776,1588.3878,1089.4036,1600.0319,1087.0318,1616.4454,1087.6421,1629.3945,1087.6799,1641.0867,1088.2864,1655.9094,1091.5603,1667.4862,1094.7032,1677.5823,1098.5647,1686.4947,1103.2964,1694.8138,1109.1479,1699.4813,1114.685,1704.7976,1121.7676,1703.8571,1127.1585" style="stroke:#181818;stroke-width:0.5;"/><text fill="#000000" font-family="sans-serif" font-size="14" lengthAdjust="spacing" textLength="106" x="1560.267" y="1113.5836">System validates</text><text fill="#000000" font-family="sans-serif" font-size="14" lengthAdjust="spacing" textLength="75" x="1575.767" y="1131.193">the reaction</text><text fill="#000000" font-family="sans-serif" font-size="14" lengthAdjust="spacing" textLength="84" x="1573.267" y="1148.8024">of the person</text></g><g id="elem_SaveReaction"><polygon fill="#F1F1F1" points="1689.8054,1027.7215,1688.2903,1032.4437,1682.5079,1036.0369,1675.8731,1039.6166,1670.3959,1043.7743,1660.0621,1046.145,1650.6215,1048.6923,1639.5409,1050.3359,1627.3326,1051.1234,1616.7301,1051.9307,1602.3497,1050.6607,1593.1732,1050.5195,1581.3049,1048.5221,1569.8856,1045.7657,1561.8841,1043.3073,1553.8446,1039.8632,1547.8298,1036.2044,1542.8505,1032.0026,1539.95,1027.6999,1538.3156,1023.077,1539.0766,1018.6484,1541.8379,1014.3847,1547.2503,1010.6554,1553.0452,1006.7666,1560.2906,1003.2596,1572.2174,1001.4751,1579.5329,998.1458,1592.4982,997.1957,1602.3898,995.5557,1616.333,995.9777,1627.3333,996.0039,1637.2657,996.4232,1649.8576,998.6869,1659.692,1000.8601,1668.2685,1003.5301,1675.8397,1006.8019,1682.9067,1010.8478,1686.8717,1014.6764,1691.3879,1019.5737,1690.5889,1023.3012" style="stroke:#181818;stroke-width:0.5;"/><text fill="#000000" font-family="sans-serif" font-size="14" lengthAdjust="spacing" textLength="87" x="1569.832" y="1018.4366">System saves</text><text fill="#000000" font-family="sans-serif" font-size="14" lengthAdjust="spacing" textLength="75" x="1577.832" y="1036.046">the reaction</text></g><g id="elem_HandlePayment"><polygon fill="#F1F1F1" points="1047.5366,999.7761,1045.4951,1004.5064,1037.7033,1008.1056,1028.7629,1011.6915,1021.3824,1015.8563,1007.4575,1018.2309,994.7362,1020.7826,979.8052,1022.429,963.3544,1023.2178,949.0676,1024.0265,929.69,1022.7544,917.3246,1022.6129,901.3322,1020.6121,885.9446,1017.8511,875.1626,1015.3885,864.3294,1011.9385,856.2244,1008.2735,849.5148,1004.0645,845.6064,999.7545,843.4041,995.1237,844.4295,990.6876,848.1503,986.4167,855.4435,982.681,863.2521,978.7856,873.0154,975.2726,889.0868,973.4851,898.9444,970.1501,916.4151,969.1984,929.744,967.5556,948.5326,967.9783,963.3554,968.0046,976.7394,968.4246,993.7069,970.6922,1006.9588,972.869,1018.5157,975.5436,1028.7178,978.8209,1038.2406,982.8737,1043.5835,986.7089,1049.6691,991.6144,1048.5924,995.3483" style="stroke:#181818;stroke-width:0.5;"/><text fill="#000000" font-family="sans-serif" font-size="14" lengthAdjust="spacing" textLength="124" x="880.1837" y="991.2722">Payment is handled</text><text fill="#000000" font-family="sans-serif" font-size="14" lengthAdjust="spacing" textLength="86" x="901.1837" y="1008.8816">at the backed</text></g><!--entity Client--><g id="elem_Client"><polygon fill="#F1F1F1" points="73.0884,619.6106,70.7431,622.8152,67.969,627.5089,64.0016,630.6721,59.8326,632.4018,56.5084,632.5519,52.2359,630.3886,48.2046,628.9754,45.1448,626.1059,43.5397,622.821,42.5879,620.2053,41.6554,616.7889,40.1418,613.8489,41.3049,610.9784,42.3239,607.834,46.1481,605.3471,48.8385,602.1203,52.1686,601.0488,56.1274,600.1261,61.2042,600.6743,63.9848,601.9857,67.2178,602.5801,71.1486,606.6074,72.5189,610.859,73.1143,613.76,72.4399,618.5404" style="stroke:#181818;stroke-width:0.5;"/><path d="M57,635.7188 L57,635.7188 L57.0319,635.8065 L59.1371,634.7457 L61.4294,634.1995 L63.6607,633.4857 L65.6916,632.2208 L68,631.7188 L68,631.7188 L67.9857,631.6873 L70.1216,632.5462 L72.3295,633.5636 L74.5875,634.6912 L76.6728,635.439 L79,636.7188 L79.224,636.8206 L79.745,638.8028 L80.92,641.0824 L82.1748,643.3982 L82.9653,645.503 L84,647.7188 L84.0607,647.7188 L83.9716,648.5188 L84.1587,649.3188 L84.2126,650.1188 L84.5206,650.9188 L84,651.7188 L84,651.7188 L84.2109,651.9296 L82.6135,653.5322 L80.88,654.9988 L79.3457,656.6644 L77.8207,658.3394 L76,659.7188 L76,659.0777 L68.4,660.3219 L60.8,659.4552 L53.2,660.1932 L45.6,659.2787 L38,659.7188 L38,659.7188 L37.9785,659.6972 L36.6331,658.3518 L34.7847,656.5034 L33.2331,654.9518 L31.7064,653.4252 L30,651.7188 L30.37,651.7188 L29.9965,650.9188 L30.2553,650.1188 L29.4912,649.3188 L30.2528,648.5188 L30,647.7188 L30,647.7188 L30.2218,647.8196 L31.1799,645.6005 L32.248,643.4315 L32.8045,641.0299 L33.7361,638.7988 L35,636.7188 L34.8857,636.4673 L37.1892,635.6949 L39.3639,634.6392 L41.7253,633.9945 L43.7679,632.6481 L46,631.7188 L46,631.7188 L45.9479,631.5755 L48.2347,632.6141 L50.2987,633.0402 L52.5212,633.9019 L54.8986,635.1898 L57,635.7188 " fill="#F1F1F1" style="stroke:#181818;stroke-width:0.5;"/><text fill="#000000" font-family="sans-serif" font-size="14" lengthAdjust="spacing" textLength="102" x="6" y="674.752">Event Organizer</text><text fill="#000000" font-family="sans-serif" font-size="14" font-style="italic" lengthAdjust="spacing" textLength="61" x="26.5" y="596.1426">&#171;Person&#187;</text></g><!--entity PaymentProvider--><g id="elem_PaymentProvider"><polygon fill="#F1F1F1" points="1268.5884,1304.6106,1266.2431,1307.8152,1263.469,1312.5089,1259.5016,1315.6721,1255.3326,1317.4018,1252.0084,1317.5519,1247.7359,1315.3886,1243.7046,1313.9754,1240.6448,1311.1059,1239.0397,1307.821,1238.0879,1305.2053,1237.1554,1301.7889,1235.6418,1298.8489,1236.8049,1295.9784,1237.8239,1292.834,1241.6481,1290.3471,1244.3385,1287.1203,1247.6686,1286.0488,1251.6274,1285.1261,1256.7042,1285.6743,1259.4848,1286.9857,1262.7178,1287.5801,1266.6486,1291.6074,1268.0189,1295.859,1268.6143,1298.76,1267.9399,1303.5404" style="stroke:#181818;stroke-width:0.5;"/><path d="M1252.5,1320.7188 L1252.5,1320.7188 L1252.5319,1320.8065 L1254.6371,1319.7457 L1256.9294,1319.1995 L1259.1607,1318.4857 L1261.1916,1317.2208 L1263.5,1316.7188 L1263.5,1316.7188 L1263.4857,1316.6873 L1265.6216,1317.5462 L1267.8295,1318.5636 L1270.0875,1319.6912 L1272.1728,1320.439 L1274.5,1321.7188 L1274.724,1321.8206 L1275.245,1323.8028 L1276.42,1326.0824 L1277.6748,1328.3982 L1278.4653,1330.503 L1279.5,1332.7188 L1279.5607,1332.7188 L1279.4716,1333.5188 L1279.6587,1334.3188 L1279.7126,1335.1188 L1280.0206,1335.9188 L1279.5,1336.7188 L1279.5,1336.7188 L1279.7109,1336.9296 L1278.1135,1338.5322 L1276.38,1339.9988 L1274.8457,1341.6644 L1273.3207,1343.3394 L1271.5,1344.7188 L1271.5,1344.0777 L1263.9,1345.3219 L1256.3,1344.4552 L1248.7,1345.1932 L1241.1,1344.2787 L1233.5,1344.7188 L1233.5,1344.7188 L1233.4785,1344.6972 L1232.1331,1343.3518 L1230.2847,1341.5034 L1228.7331,1339.9518 L1227.2064,1338.4252 L1225.5,1336.7188 L1225.87,1336.7188 L1225.4965,1335.9188 L1225.7553,1335.1188 L1224.9912,1334.3188 L1225.7528,1333.5188 L1225.5,1332.7188 L1225.5,1332.7188 L1225.7218,1332.8196 L1226.6799,1330.6005 L1227.748,1328.4315 L1228.3045,1326.0299 L1229.2361,1323.7988 L1230.5,1321.7188 L1230.3857,1321.4673 L1232.6892,1320.6949 L1234.8639,1319.6392 L1237.2253,1318.9945 L1239.2679,1317.6481 L1241.5,1316.7188 L1241.5,1316.7188 L1241.4479,1316.5755 L1243.7347,1317.6141 L1245.7987,1318.0402 L1248.0212,1318.9019 L1250.3986,1320.1898 L1252.5,1320.7188 " fill="#F1F1F1" style="stroke:#181818;stroke-width:0.5;"/><text fill="#000000" font-family="sans-serif" font-size="14" lengthAdjust="spacing" textLength="112" x="1196.5" y="1359.752">Payment Provider</text><text fill="#000000" font-family="sans-serif" font-size="14" font-style="italic" lengthAdjust="spacing" textLength="85" x="1210" y="1281.1426">&#171;Application&#187;</text></g><!--link Client to OpensAccount--><g id="link_Client_OpensAccount"><path d="M64.4,581.2694 L64.4924,581.2828 L64.8313,577.0223 L65.7121,572.8405 L66.4164,568.6331 L66.5404,564.3413 L67.4678,560.1664 L67.4336,560.1611 L68.0098,555.3692 L68.7582,550.6035 L69.6262,545.8562 L70.0819,541.0457 L71.1151,536.3237 L71.358,536.3629 L71.6821,531.0574 L72.7154,525.8665 L73.8353,520.6896 L74.4517,515.4313 L75.3329,510.2159 L75.3628,510.221 L76.2748,504.6338 L77.3229,499.0699 L78.3053,493.4948 L79.413,487.9411 L80.1123,482.3175 L80.4057,482.371 L81.4757,476.5288 L82.3565,470.6521 L83.5143,464.8259 L84.685,459.002 L85.4444,453.1031 L85.1298,453.0416 L86.9155,447.1498 L87.6653,441.0555 L89.2026,435.1151 L89.929,429.0162 L91.32,423.0473 L91.2902,423.041 L92.9246,417.0307 L93.8629,410.8737 L95.212,404.8033 L96.5955,398.7401 L97.7303,392.6245 L97.9108,392.6649 L98.4092,389.584 L99.216,386.5721 L99.5237,383.4485 L100.5759,380.4916 L101.1331,377.4238 L101.3704,377.4793 L102.0321,374.4459 L102.8117,371.4401 L103.0439,368.3063 L103.6774,365.2663 L104.6662,362.3094 L104.398,362.2437 L105.3733,359.3094 L106.0463,356.3011 L107.1578,353.4 L107.5207,350.3158 L108.3285,347.3405 L108.1809,347.3026 L109.1849,344.4129 L109.5576,341.3612 L110.3793,338.4247 L111.6402,335.601 L112.1189,332.5764 L112.3058,332.6269 L113.2175,329.7616 L113.5477,326.7392 L114.6062,323.9135 L115.506,321.045 L116.0361,318.0766 L115.8342,318.019 L116.8038,315.2296 L117.7072,312.4214 L118.7405,309.6502 L119.2688,306.735 L120.0792,303.9002 L120.276,303.9597 L120.6771,301.0703 L121.4582,298.2958 L122.7941,295.6889 L123.1084,292.7733 L124.2469,290.1067 L124.4623,290.1759 L125.1926,287.4645 L125.8501,284.7297 L126.672,282.0478 L127.8741,279.488 L128.5382,276.7553 L128.4124,276.7121 L129.6698,274.2708 L130.0714,271.5355 L131.446,269.1345 L132.2728,266.5453 L132.952,263.9054 L133.0541,263.9431 L133.8787,261.4548 L135.069,259.1015 L135.9288,256.6263 L136.6506,254.1001 L137.487,251.6163 L137.5977,251.6604 L138.3643,249.261 L139.6449,247.0666 L140.3441,244.6403 L141.2825,242.3094 L142.1423,239.9472 L141.8943,239.8395 L142.9319,237.6775 L144.2683,235.6453 L145.182,233.4295 L145.9442,231.1479 L146.9166,228.9576 L146.7874,228.8959 L147.8072,226.8655 L148.5983,224.7259 L150.0183,222.8864 L151.127,220.8984 L151.8088,218.7067 L152.0156,218.8162 L153.0836,216.9607 L153.7588,214.8971 L154.8485,213.0531 L155.6639,211.0637 L156.8179,209.2538 L156.9244,209.3216 L158.9832,206.0579 L161.1706,202.876 L162.9503,199.4345 L165.0588,196.2023 L167.182,192.9796 L167.3304,193.1093 L169.5354,190.6715 L171.3378,187.8815 L173.608,185.5007 L175.8863,183.1271 L178,180.6094 L177.8269,180.4002 L181.122,178.2303 L184.1169,175.6975 L187.0371,173.0745 L190.1278,170.6576 L193.1094,168.1088 L193.2857,168.3805 L196.1835,165.9494 L199.485,164.1408 L202.6276,162.0871 L205.7362,159.981 L208.8579,157.8951 L208.8863,157.9509 L212.2078,156.252 L215.3866,154.2717 L218.7586,152.6722 L222.0734,150.9601 L225.4933,149.455 L225.504,149.4813 L229.062,148.0555 L232.6283,146.65 L236.1069,145.0276 L239.6981,143.6838 L243.2634,142.2757 " fill="none" style="stroke:#181818;stroke-width:1.0;"/><polygon fill="#181818" points="248.9,140.2194,248.9048,140.2893,246.9254,139.9469,244.9741,140.0144,243.0136,139.9484,241.0231,139.4436,239.0742,139.5462,239.0632,139.5227,240.0399,139.8946,241.0717,140.385,242.1418,140.9577,243.0799,141.2467,244.2028,141.933,244.3701,142.0109,243.535,142.8701,243.1883,143.9566,242.9013,145.0709,242.2674,146.0239,241.816,147.0616,241.8318,147.078,243.2254,145.6855,244.6909,144.3675,246.1218,143.0136,247.6188,141.7283,248.9,140.2194" style="stroke:#181818;stroke-width:1.0;"/><text fill="#000000" font-family="sans-serif" font-size="13" lengthAdjust="spacing" textLength="30" x="139" y="187.1045">Does</text></g><!--link Client to ClientLogin--><g id="link_Client_ClientLogin"><path d="M59.15,581.2994 L59.2432,581.3059 L59.1826,578.1917 L59.6683,575.1156 L59.9762,572.0271 L59.699,568.8978 L60.2316,565.825 L60.1972,565.8219 L60.3531,562.4053 L60.6823,559.0046 L61.1321,555.6148 L61.1665,552.1872 L61.7828,548.8127 L62.0272,548.8407 L61.9248,545.1144 L62.536,541.47 L63.2343,537.8355 L63.426,534.143 L63.8842,530.481 L63.9142,530.4852 L64.4166,526.5926 L65.0557,522.7192 L65.6289,518.8365 L66.3279,514.9714 L66.6166,511.0488 L66.911,511.0964 L67.2402,509.0849 L67.3795,507.0426 L67.7968,505.0453 L68.2271,503.0502 L68.2446,500.9882 L67.929,500.9323 L68.9047,498.9901 L68.8412,496.8638 L69.5678,494.8774 L69.4808,492.7469 L70.0606,490.7345 L70.0307,490.7288 L70.7871,488.7132 L70.845,486.5626 L71.315,484.4917 L71.8197,482.4275 L72.0748,480.315 L72.2558,480.3531 L72.5175,478.2031 L73.0886,476.1181 L73.1592,473.9278 L73.9763,471.8947 L74.2971,469.757 L74.5346,469.8114 L74.9778,467.6673 L75.5389,465.5501 L75.5521,463.3077 L75.967,461.1571 L76.7377,459.0879 L76.4696,459.0214 L77.2461,456.931 L77.7205,454.7657 L78.633,452.7091 L78.7975,450.4668 L79.4066,448.3349 L79.2594,448.2953 L80.0861,446.1994 L80.2834,443.9342 L80.9283,441.7893 L82.0111,439.7623 L82.314,437.5255 L82.5,437.5796 L83.2587,435.449 L83.4391,433.1501 L84.3438,431.062 L85.0908,428.928 L85.47,426.6869 L85.2697,426.6238 L86.1123,424.506 L86.8892,422.3675 L87.795,420.2697 L88.1999,418.014 L88.8846,415.8465 L89.0792,415.9127 L89.3883,413.6041 L90.073,411.4235 L91.3065,409.4297 L91.5296,407.0918 L92.5679,405.0316 L92.7802,405.1097 L93.4465,402.9109 L94.041,400.6856 L94.7976,398.52 L95.9289,396.4924 L96.53,394.2695 L96.4064,394.2203 L97.6246,392.2304 L98.0022,389.9059 L99.3356,387.9619 L100.1308,385.8036 L100.7811,383.5877 L100.8811,383.6307 L101.7103,381.4811 L102.8977,379.4856 L103.7616,377.3508 L104.4902,375.1579 L105.3311,373.0133 L105.4391,373.0636 L106.2504,370.901 L107.5634,368.9719 L108.3089,366.7787 L109.2879,364.6941 L110.1902,362.5738 L109.9487,362.4522 L111.065,360.4373 L112.4721,358.569 L113.4677,356.4934 L114.3157,354.3434 L115.3684,352.2965 L115.2427,352.2279 L116.3845,350.2323 L117.3038,348.1153 L118.8347,346.3322 L120.0629,344.3838 L120.8759,342.2088 L121.0772,342.328 L122.311,340.392 L123.1624,338.2294 L124.4174,336.306 L125.4052,334.2242 L126.7228,332.3378 L126.829,332.4062 L128.0543,330.4718 L129.4078,328.62 L130.3547,326.5065 L131.6296,324.6041 L132.9191,322.7111 L133.0805,322.8242 L134.4368,320.9848 L135.3549,318.8383 L136.782,317.0485 L138.2181,315.265 L139.4749,313.3559 L139.2593,313.191 L140.9848,311.64 L142.3362,309.803 L143.5946,307.8949 L145.0655,306.1492 L146.4004,304.2995 L146.6487,304.5074 L147.7547,302.4643 L149.4298,300.8973 L150.8808,299.1429 L152.2839,297.3484 L153.7055,295.5694 L153.7516,295.6117 L155.2816,293.9282 L156.5792,292.0311 L158.1913,290.4229 L159.7104,288.7293 L161.4004,287.1927 L161.4203,287.2129 L163.0469,285.6214 L164.6889,284.0456 L166.1664,282.3033 L167.8552,280.7748 L169.4952,279.197 L169.4597,279.1571 L171.3669,277.8708 L173.0233,276.3034 L174.4544,274.4834 L176.2775,273.1027 L178,271.6094 L177.8457,271.4044 L180.9064,269.5821 L183.8214,267.5661 L186.6336,265.4138 L189.201,262.9361 L192.1468,260.9611 L192.2501,261.1395 L194.8919,258.9905 L198.0124,257.6684 L200.8117,255.7915 L203.8103,254.2591 L206.6993,252.537 L206.7419,252.635 L209.8593,251.3908 L212.7241,249.5663 L216.0124,248.7148 L219.0359,247.2549 L222.0805,245.8437 L222.1297,245.9937 L225.5107,245.0682 L228.7345,243.6634 L232.0846,242.6438 L235.4165,241.5686 L238.7136,240.3872 " fill="none" style="stroke:#181818;stroke-width:1.0;"/><polygon fill="#181818" points="244.48,238.7294,244.4897,238.7988,242.51,238.3211,240.5869,238.2502,238.6455,238.0468,236.6433,237.4078,234.7251,237.3719,234.7126,237.3492,235.6462,237.7953,236.6431,238.3556,237.6839,238.9954,238.5732,239.3615,239.6747,240.1109,239.8361,240.2003,238.943,240.9991,238.5214,242.0588,238.1572,243.1503,237.4584,244.0567,236.9356,245.0604,236.9502,245.0778,238.4376,243.7861,239.9916,242.5736,241.5135,241.3229,243.0966,240.1451,244.48,238.7294" style="stroke:#181818;stroke-width:1.0;"/><text fill="#000000" font-family="sans-serif" font-size="13" lengthAdjust="spacing" textLength="30" x="139" y="282.1045">Does</text></g><!--link ClientLogin to ValidateSubscription--><g id="link_ClientLogin_ValidateSubscription"><path d="M399.04,226.6094 L399.04,226.8896 L408.8186,226.0569 L418.5971,226.8671 L428.3757,227.1423 L438.1543,225.6582 L447.9329,226.5058 L457.7114,226.0407 L467.49,226.098 L477.2686,226.5185 L487.0471,225.6875 L496.8257,227.3476 L506.6043,225.769 L516.3829,226.3457 L526.1614,227.1853 L535.94,226.6094 " fill="none" style="stroke:#181818;stroke-width:1.0;"/><polygon fill="#181818" points="541.94,226.6094,541.9685,226.6734,540.0839,225.6832,538.3662,225.0683,536.5941,224.3311,534.6434,223.1921,532.94,222.6094,532.9217,222.5911,533.6395,223.3088,534.4496,224.119,535.3239,224.9933,535.977,225.6464,536.94,226.6094,537.0705,226.7399,535.9914,227.2608,535.2934,228.1628,534.6418,229.1112,533.7198,229.7892,532.94,230.6094,532.9492,230.6302,534.7357,229.7996,536.5642,229.0638,538.3724,228.2822,540.2193,227.5878,541.94,226.6094" style="stroke:#181818;stroke-width:1.0;"/><text fill="#000000" font-family="sans-serif" font-size="13" lengthAdjust="spacing" textLength="30" x="473" y="223.1045">Uses</text></g><!--link Client to ConfigureCamera--><g id="link_Client_ConfigureCamera"><path d="M67.31,581.5794 L67.4007,581.6015 L67.6967,579.219 L68.5246,576.9664 L69.1794,574.6714 L69.2644,572.2374 L70.138,569.9959 L70.1046,569.9871 L70.6089,567.4634 L71.2816,564.9841 L72.0713,562.5356 L72.4577,559.9809 L73.4091,557.575 L73.6457,557.6423 L73.8868,554.8709 L74.8189,552.2961 L75.8354,549.7452 L76.3613,547.0549 L77.1451,544.4379 L77.1741,544.4468 L77.9762,541.6872 L78.9102,538.9683 L79.7805,536.2298 L80.7723,533.5286 L81.3681,530.7056 L81.6511,530.7999 L82.6009,527.9598 L83.3682,525.0589 L84.4027,522.2471 L85.4497,519.4393 L86.0999,516.4995 L85.7985,516.3905 L87.4361,513.6902 L88.081,510.6311 L89.4806,507.8448 L90.1031,504.7776 L91.3625,501.9406 L91.3342,501.9295 L92.8323,499.1031 L93.6684,496.0165 L94.8952,493.0835 L96.1547,490.1634 L97.1777,487.1502 L97.3477,487.2231 L98.4541,484.1693 L99.8509,481.2402 L100.7778,478.1094 L102.4057,475.2794 L103.5675,472.2494 L103.7881,472.3529 L105.1436,469.3553 L106.6087,466.4091 L107.5649,463.2242 L108.8941,460.2142 L110.5538,457.3593 L110.3083,457.2328 L112.0514,454.3957 L113.518,451.4161 L115.3858,448.6432 L116.5685,445.5173 L118.1584,442.6012 L118.0259,442.5259 L119.8956,439.7504 L121.1988,436.6528 L122.9048,433.7843 L125.0052,431.1398 L126.4034,428.0963 L126.5672,428.1995 L128.461,425.4442 L129.8453,422.3678 L131.8678,419.6935 L133.7512,416.9317 L135.3106,413.9656 L135.1389,413.8448 L137.194,411.2141 L139.193,408.5438 L141.3024,405.9512 L142.9822,403.0564 L144.902,400.3304 L145.0632,400.458 L146.7684,397.574 L148.7849,394.9363 L151.256,392.6582 L152.89,389.7179 L155.1994,387.3119 L155.3677,387.463 L157.4728,384.9171 L159.5209,382.32 L161.6976,379.8384 L164.1714,377.6235 L166.2247,375.0311 L166.1321,374.9356 L168.7629,372.9356 L170.7638,370.2861 L173.481,368.3751 L175.7948,366.0482 L178,363.6094 L178.0693,363.6933 L180.1504,361.8605 L182.4796,360.3283 L184.5846,358.5245 L186.5959,356.6072 L188.685,354.7842 L188.7511,354.8834 L190.7976,353.3066 L193.1511,352.1904 L195.1575,350.5533 L197.3066,349.1304 L199.4089,347.6372 L199.2844,347.3972 L201.6223,346.2872 L204.11,345.4664 L206.3856,344.2364 L208.5852,342.8597 L210.8902,341.6865 L210.8366,341.5538 L213.4453,340.549 L215.959,339.3092 L218.7338,338.7156 L221.3794,337.8021 L223.8477,336.4501 " fill="none" style="stroke:#181818;stroke-width:1.0;"/><polygon fill="#181818" points="229.49,334.4094,229.495,334.4793,227.5154,334.1315,225.565,334.1934,223.6051,334.122,221.614,333.6118,219.6661,333.7089,219.6551,333.6854,220.6301,334.0604,221.6606,334.5536,222.7296,335.129,223.6659,335.4211,224.7881,336.11,224.9552,336.1883,224.1176,337.0452,223.768,338.1308,223.4778,339.2443,222.8413,340.1954,222.387,341.232,222.4028,341.2484,223.8002,339.8598,225.2694,338.5458,226.704,337.1959,228.2046,335.9147,229.49,334.4094" style="stroke:#181818;stroke-width:1.0;"/><text fill="#000000" font-family="sans-serif" font-size="13" lengthAdjust="spacing" textLength="30" x="139" y="371.1045">Does</text></g><!--link Client to ConfigureFrame--><g id="link_Client_ConfigureFrame"><path d="M87.32,581.3794 L87.397,581.4323 L88.8904,578.7708 L90.8351,576.4196 L92.6328,573.9674 L93.9473,571.1828 L95.9307,568.8583 L95.9028,568.838 L97.6815,566.1229 L99.6011,563.5101 L101.6187,560.9684 L103.2987,558.1817 L105.4516,555.7381 L105.6465,555.8883 L107.3027,552.8775 L109.528,550.3052 L111.8226,547.7863 L113.7134,544.9562 L115.8166,542.2898 L115.84,542.3091 L118.0343,539.5797 L120.3352,536.9382 L122.5846,534.2542 L124.9321,531.6511 L126.96,528.7844 L127.1826,528.9829 L129.5565,526.327 L131.7868,523.543 L134.2273,520.9465 L136.6776,518.3588 L138.8159,515.4927 L138.5865,515.2688 L141.5322,513.1419 L143.7226,510.2778 L146.4872,507.9742 L148.6605,505.0933 L151.3184,502.6856 L151.2978,502.6632 L154.1584,500.5178 L156.5371,497.8491 L159.2001,495.4892 L161.8871,493.1552 L164.4018,490.6342 L164.5183,490.7779 L167.1203,488.4279 L169.9214,486.3234 L172.4005,483.8217 L175.36,481.9125 L178,479.6094 L178.1398,479.8089 L180.9594,477.778 L183.8485,475.8461 L186.4151,473.4539 L189.2181,471.3991 L192.2304,469.6433 L192.0892,469.406 L195.0631,467.9263 L197.8779,466.1792 L200.9235,464.8199 L203.5749,462.7985 L206.4607,461.1707 L206.3922,461.0345 L209.4584,459.7772 L212.2319,457.9376 L215.2136,456.5121 L218.3989,455.4918 L221.2215,453.7499 L221.2981,453.9278 L224.5151,452.6877 L227.4939,450.8944 L230.771,449.794 L233.9831,448.5426 L237.0439,446.9395 " fill="none" style="stroke:#181818;stroke-width:1.0;"/><polygon fill="#181818" points="242.61,444.6994,242.6125,444.7694,240.6366,444.4912,238.6752,444.6235,236.7092,444.6221,234.7274,444.1812,232.7674,444.3488,232.7572,444.3249,233.7525,444.6614,234.7989,445.1181,235.881,445.6583,236.8404,445.9106,237.9715,446.5661,238.1413,446.6385,237.3348,447.5246,237.024,448.6219,236.7736,449.7451,236.1713,450.7182,235.7542,451.7703,235.7705,451.7861,237.1177,450.3487,238.5392,448.9833,239.9249,447.5832,241.379,446.2495,242.61,444.6994" style="stroke:#181818;stroke-width:1.0;"/><text fill="#000000" font-family="sans-serif" font-size="13" lengthAdjust="spacing" textLength="30" x="139" y="483.1045">Does</text></g><!--link Client to CreateEvent--><g id="link_Client_CreateEvent"><path d="M108.14,603.5694 L108.1811,603.6533 L111.3784,601.7797 L114.8165,600.398 L118.1762,598.8562 L121.2781,596.7876 L124.7369,595.4481 L124.7221,595.4169 L128.1636,593.6224 L131.6794,591.9855 L135.2468,590.458 L138.6363,588.5532 L142.275,587.1769 L142.3759,587.4013 L145.7472,585.3084 L149.4132,583.8707 L153.1151,582.513 L156.6079,580.6901 L160.2106,579.1119 L160.2224,579.1398 L163.763,577.5983 L167.3572,576.184 L170.9256,574.7083 L174.5433,573.3497 L178,571.6094 L178.1088,571.8871 L181.9401,570.3897 L185.7013,568.7132 L189.5652,567.2989 L193.4339,565.8969 L197.15,564.1056 L197.0398,563.8046 L200.9799,563.0248 L204.5571,561.2539 L208.4102,560.2365 L211.9792,558.4431 L215.781,557.2858 L215.7711,557.257 L219.5782,556.3303 L223.1544,554.7309 L226.8668,553.5284 L230.5907,552.3593 L234.232,550.9497 L234.2892,551.1256 L237.9535,549.7376 L241.7155,548.6501 L245.3193,547.0763 L249.1591,546.2279 L252.842,544.8972 " fill="none" style="stroke:#181818;stroke-width:1.0;"/><polygon fill="#181818" points="258.56,543.0794,258.5677,543.149,256.587,542.7251,254.6515,542.7093,252.7014,542.5606,250.7027,541.9748,248.7711,541.9941,248.7592,541.9711,249.7106,542.3879,250.7219,542.9206,251.775,543.534,252.6843,543.8695,253.795,544.5942,253.9589,544.679,253.0884,545.5024,252.6964,546.5735,252.3628,547.6747,251.6895,548.6002,251.1949,549.6181,251.21,549.6351,252.6608,548.3024,254.1804,547.0471,255.6669,545.7545,257.2166,544.5331,258.56,543.0794" style="stroke:#181818;stroke-width:1.0;"/><text fill="#000000" font-family="sans-serif" font-size="13" lengthAdjust="spacing" textLength="30" x="139" y="573.1045">Does</text></g><!--link Client to MakePayment--><g id="link_Client_MakePayment"><path d="M108.24,629.6094 L108.24,629.8896 L118.3708,629.0569 L128.5017,629.8671 L138.6325,630.1423 L148.7633,628.6582 L158.8942,629.5058 L169.025,629.0407 L179.1558,629.098 L189.2867,629.5185 L199.4175,628.6875 L209.5483,630.3476 L219.6792,628.769 L229.81,629.6094 " fill="none" style="stroke:#181818;stroke-width:1.0;"/><polygon fill="#181818" points="235.81,629.6094,235.8385,629.6734,233.9539,628.6832,232.2362,628.0683,230.4641,627.3311,228.5134,626.1921,226.81,625.6094,226.7917,625.5911,227.5095,626.3088,228.3196,627.119,229.1939,627.9933,229.847,628.6464,230.81,629.6094,230.9405,629.7399,229.8614,630.2608,229.1634,631.1628,228.5118,632.1112,227.5898,632.7892,226.81,633.6094,226.8192,633.6302,228.6057,632.7996,230.4342,632.0638,232.2424,631.2822,234.0893,630.5878,235.81,629.6094" style="stroke:#181818;stroke-width:1.0;"/><text fill="#000000" font-family="sans-serif" font-size="13" lengthAdjust="spacing" textLength="30" x="139" y="626.1045">Does</text></g><!--link MakePayment to HandlePayment--><g id="link_MakePayment_HandlePayment"><path d="M388.15,650.8294 L388.1948,650.9113 L390.6653,652.0923 L393.3985,653.7536 L396.0462,655.2585 L398.4124,656.249 L401.1683,657.9516 L401.1488,657.9231 L403.5247,659.4833 L405.9991,661.1871 L408.5419,662.9908 L410.849,664.4503 L413.4863,666.3919 L413.6495,666.576 L415.5229,668.1531 L417.8729,670.2677 L420.281,672.4479 L422.3508,674.2466 L424.5986,676.2459 L424.622,676.2653 L426.4679,678.5096 L428.4203,680.8419 L430.3213,683.1317 L432.3203,685.5026 L434,687.6094 L434.2658,687.7447 L435.4415,690.0499 L436.4457,692.2678 L437.7009,694.6135 L438.9679,696.9652 L439.8622,699.1271 L439.5536,699.0404 L440.9582,702.0767 L441.3468,704.8274 L442.5078,707.7952 L442.8733,710.5395 L443.8909,713.4669 L443.8607,713.4625 L444.7118,716.8639 L444.8591,720.1614 L445.4217,723.5202 L446.0191,726.8842 L446.3651,730.211 L446.5497,730.2229 L446.6031,733.9571 L446.9719,737.7115 L446.8304,741.4332 L447.4501,745.2037 L447.5637,748.9417 L447.8073,748.9468 L447.8029,750.9418 L447.9194,752.9393 L447.474,754.9251 L447.4405,756.9195 L447.7719,758.9215 L447.4958,758.9213 L447.7446,760.9854 L447.6822,763.0493 L448.0711,765.1135 L447.6894,767.1772 L447.7659,769.2412 L447.6134,769.2386 L447.8302,771.3645 L447.3954,773.4791 L447.4239,775.6017 L447.9059,777.7323 L447.5804,779.8488 L447.7739,779.8547 L447.8407,782.0273 L447.3054,784.1817 L447.5242,786.359 L447.5787,788.5313 L447.2504,790.6919 L447.0406,790.6829 L447.017,795.1269 L446.9247,799.5679 L446.9673,804.0148 L446.4852,808.439 L446.2963,812.8759 L446.5016,812.8861 L445.8277,817.3637 L445.5501,821.8609 L445.8516,826.3868 L445.087,830.8599 L445.1825,835.3756 L445.4085,835.3857 L445.0753,839.8592 L444.6657,844.3294 L444.4287,848.8072 L444.5906,853.3028 L444.188,857.7732 L444.055,857.7696 L444.3317,862.156 L443.704,866.5177 L444.1046,870.9074 L443.9262,875.2814 L443.5918,879.6511 L443.7007,879.6517 L443.6005,881.7739 L443.8901,883.8983 L443.8275,886.0207 L443.6178,888.1423 L443.5302,890.2645 L443.6494,890.2662 L443.5008,892.3291 L443.9056,894.3997 L443.6846,896.4616 L443.721,898.5271 L443.6728,900.5914 L443.4028,900.5771 L443.7004,904.4989 L444.3232,908.4379 L444.4859,912.3525 L444.4835,916.2584 L444.71,920.1764 L444.568,920.1583 L445.068,923.7265 L445.3164,927.2626 L446.2563,930.887 L446.8539,934.4676 L446.9824,937.9885 L447.2097,938.0436 L448.0398,941.1855 L448.4379,944.2227 L449.2919,947.3704 L449.8441,950.4449 L450.7688,953.6098 L450.8849,953.6595 L451.9855,956.2556 L453.2263,958.9117 L454.0228,961.3773 L455.1776,963.9966 L456.3484,966.6227 L456.5048,966.7425 L458.0789,968.7734 L459.2282,970.4788 L460.871,972.5623 L462.5223,974.6524 L464,976.6094 L463.8195,976.4066 L466.2533,978.6389 L468.374,980.5195 L470.4169,982.3126 L472.6376,984.3055 L474.7445,986.1705 L474.944,986.4257 L476.8987,987.8124 L479.3104,989.7837 L481.5422,991.5249 L483.7355,993.2169 L485.9436,994.9278 L485.9791,994.9794 L488.2965,996.5654 L490.4353,997.8913 L492.8158,999.5692 L495.1249,1001.143 L497.5654,1002.9082 L497.58,1002.9325 L499.988,1004.3879 L502.4074,1005.8621 L504.7061,1007.1359 L507.1598,1008.6671 L509.5777,1010.139 L509.5528,1010.0917 L512.1713,1011.6676 L514.6144,1012.9101 L516.8998,1013.853 L519.4594,1015.317 L521.9487,1016.6473 L521.8419,1016.4141 L524.5416,1017.9265 L527.1403,1019.2184 L529.668,1020.3552 L532.0262,1021.1217 L534.6463,1022.4604 L534.7222,1022.6521 L537.1232,1023.1824 L539.876,1024.601 L542.3927,1025.4236 L545.056,1026.6162 L547.6386,1027.6052 L547.673,1027.7063 L550.3571,1028.7046 L552.8376,1029.1038 L555.6596,1030.5076 L558.268,1031.2832 L560.8936,1032.109 L560.9373,1032.2608 L563.6828,1033.2064 L566.2885,1033.6674 L569.0065,1034.5179 L571.7084,1035.3121 L574.3792,1035.999 L574.3998,1036.0842 L577.116,1036.6593 L579.9271,1037.6274 L582.5262,1037.7175 L585.3857,1038.8858 L588.0636,1039.3023 L588.0097,1039.0302 L590.7871,1039.6154 L593.6075,1040.4172 L596.3767,1040.9608 L599.1019,1041.2824 L601.9147,1042.046 L601.9434,1042.2276 L604.7194,1042.536 L607.5594,1043.2495 L610.3525,1043.6656 L613.0722,1043.6183 L615.9005,1044.2573 L615.8792,1044.0817 L618.7113,1044.5415 L621.5549,1045.0966 L624.3752,1045.4588 L627.1874,1045.7551 L629.9891,1045.9634 L629.9759,1045.812 L632.8454,1046.4908 L635.6771,1046.7352 L638.4828,1046.6793 L641.3073,1046.8399 L644.1484,1047.1914 L644.1386,1047.0133 L646.9828,1047.2516 L649.831,1047.5632 L652.6656,1047.6273 L655.4967,1047.6276 L658.3465,1047.9685 L658.3519,1048.185 L661.1824,1047.8352 L664.034,1048.333 L666.8741,1048.3703 L669.7145,1048.4163 L672.5514,1048.3218 L672.5523,1048.6295 L675.387,1048.2038 L678.2229,1048.1708 L681.0599,1048.5264 L683.8943,1048.0218 L686.7311,1048.2784 L686.728,1048.1745 L689.5571,1048.2472 L692.381,1048.1438 L695.1999,1047.8715 L698.0285,1047.9291 L700.8536,1047.8656 L700.8714,1048.1961 L703.6758,1048.0024 L706.4527,1047.299 L709.2755,1047.4474 L712.068,1047.0335 L714.887,1047.1105 L714.8861,1047.0989 L717.6794,1047.0263 L720.4662,1046.8685 L723.2116,1046.1738 L726.0304,1046.4318 L728.7992,1046.0403 L728.7995,1046.044 L731.5267,1045.523 L734.2822,1045.2886 L737.0689,1045.3698 L739.8173,1045.0642 L742.5582,1044.682 L742.5574,1044.6747 L745.2376,1044.0616 L748.0224,1044.3248 L750.6862,1043.5729 L753.3896,1043.1537 L756.1322,1043.0629 L756.128,1043.0333 L758.8395,1042.9519 L761.5125,1042.5927 L764.1484,1041.9667 L766.8084,1041.5141 L769.489,1041.2101 L769.5007,1041.2846 L772.1234,1040.88 L774.697,1040.1634 L777.3822,1040.1562 L780.0137,1039.808 L782.5967,1039.1507 L782.5802,1039.0563 L785.1292,1038.5151 L787.7789,1038.5506 L790.2943,1037.8167 L792.858,1037.3597 L795.4234,1036.912 L795.4483,1037.0426 L797.8722,1036.1519 L800.473,1036.187 L802.9302,1035.4707 L805.49,1035.2912 L807.9369,1034.5211 L807.9175,1034.4271 L810.4075,1034.1959 L812.7644,1033.3214 L815.2601,1033.1181 L817.7059,1032.6733 L820.1055,1032.005 L820.074,1031.863 L822.4987,1031.6397 L824.7671,1030.7115 L827.1351,1030.2325 L829.6043,1030.2101 L831.897,1029.3911 L831.9668,1029.6871 L834.2314,1029.1 L836.4132,1028.1613 L838.7656,1027.9464 L840.9548,1027.0391 L843.2794,1026.7063 L843.2857,1026.7314 L845.4676,1026.1601 L847.6278,1025.5018 L849.9105,1025.335 L852.0802,1024.7148 L854.2209,1023.978 L854.1839,1023.8403 L858.3679,1023.1083 L862.4042,1021.8259 L866.4128,1020.4402 L870.5395,1019.4948 L874.6528,1018.4991 " fill="none" style="stroke:#181818;stroke-width:1.0;"/><polygon fill="#181818" points="880.43,1016.8794,880.4401,1016.9487,878.4609,1016.4583,876.541,1016.3744,874.6018,1016.1581,872.5991,1015.5066,870.6843,1015.4575,870.6716,1015.435,871.6009,1015.8879,872.5942,1016.4548,873.632,1017.1007,874.5165,1017.474,875.6156,1018.2292,875.7765,1018.3196,874.8782,1019.1125,874.4495,1020.1694,874.0782,1021.2585,873.3734,1022.1602,872.844,1023.1605,872.8585,1023.178,874.3544,1021.8961,875.9164,1020.6939,877.4464,1019.4532,879.0373,1018.286,880.43,1016.8794" style="stroke:#181818;stroke-width:1.0;"/><text fill="#000000" font-family="sans-serif" font-size="13" lengthAdjust="spacing" textLength="30" x="630.5" y="1024.1045">Uses</text></g><!--link Client to StartEvent--><g id="link_Client_StartEvent"><path d="M64.44,677.8194 L64.5324,677.8329 L64.8749,682.0016 L65.7591,686.2498 L66.467,690.472 L66.5946,694.6092 L67.5253,698.8642 L67.4912,698.8589 L68.0711,703.5909 L68.8232,708.3493 L69.6948,713.1262 L70.1542,717.8396 L71.1911,722.642 L71.4339,722.6815 L71.7619,727.8045 L72.7989,733.043 L73.9224,738.2955 L74.5426,743.4661 L75.4275,748.6798 L75.4574,748.6849 L76.373,754.2423 L77.4246,759.8232 L78.4106,765.3927 L79.5219,770.9838 L80.2248,776.5045 L80.5182,776.5584 L81.5915,782.3868 L82.4756,788.1805 L83.6366,794.025 L84.8107,799.8719 L85.5734,805.6433 L85.2589,805.5815 L87.0473,811.6973 L87.8001,817.6097 L89.3402,823.6768 L90.0695,829.5846 L91.4634,835.6229 L91.4336,835.6166 L93.0702,841.7607 L94.0109,847.7575 L95.3622,853.8412 L96.748,859.9322 L97.8851,865.9706 L98.0654,866.012 L99.2721,872.0187 L100.787,878.0962 L101.8033,884.0592 L103.5632,890.1929 L104.8288,896.2131 L105.0654,896.2712 L105.7535,899.247 L106.5592,902.2517 L106.819,905.1224 L107.4789,908.0913 L108.4933,911.1472 L108.2258,911.0783 L109.2262,914.0867 L109.9252,917.0176 L111.0614,920.0609 L111.4512,922.9122 L112.2846,925.8776 L112.1375,925.8377 L113.166,928.7976 L113.5654,931.5872 L114.4121,934.4979 L115.6966,937.5271 L116.2016,940.3452 L116.3878,940.3984 L117.3238,943.264 L117.6807,945.9642 L118.7629,948.8716 L119.6871,951.7339 L120.243,954.491 L120.0421,954.4302 L121.0352,957.2316 L121.9625,960.0131 L123.019,962.8337 L123.5729,965.5022 L124.4076,968.2557 L124.6033,968.3186 L125.0306,970.8452 L125.8357,973.4933 L127.1926,976.3189 L127.5335,978.8177 L128.6942,981.5802 L128.9081,981.6537 L129.6625,984.1751 L130.3445,986.6716 L131.1898,989.2243 L132.4128,991.9067 L133.1015,994.4055 L132.9766,994.3594 L134.2536,996.9499 L134.6817,999.2272 L136.075,1001.8606 L136.9248,1004.2935 L137.6283,1006.6723 L137.7294,1006.7127 L138.5768,1009.01 L139.7863,1011.4517 L140.6687,1013.7629 L141.4143,1016.0197 L142.2734,1018.3217 L142.3828,1018.3691 L143.1728,1020.4932 L144.4704,1022.8375 L145.1939,1024.9327 L146.1536,1027.1303 L147.0357,1029.2943 L146.7916,1029.178 L147.8487,1031.2642 L149.1999,1033.4906 L150.135,1035.5186 L150.9209,1037.4756 L151.9138,1039.5312 L151.7872,1039.4643 L152.8263,1041.3741 L153.6413,1043.1654 L155.0724,1045.2826 L156.1986,1047.2384 L156.9066,1048.9732 L157.1041,1049.0986 L159.2323,1052.3913 L160.9852,1055.4457 L163.1341,1058.7516 L165.0209,1061.891 L167.2313,1065.2359 L167.3265,1065.3187 L169.4677,1067.7826 L171.724,1070.3464 L173.6155,1072.593 L175.8012,1075.0955 L178,1077.6094 L178.1303,1077.7572 L179.703,1079.1523 L180.9219,1080.1459 L182.5518,1081.6059 L184.1889,1083.0741 L185.6813,1084.378 L185.5143,1084.164 L187.3448,1085.7247 L188.8856,1086.9141 L190.3544,1088.0113 L191.9877,1089.3193 L193.5157,1090.4923 L193.692,1090.7639 L196.6842,1092.4805 L200.0803,1094.8195 L203.3173,1096.9135 L206.5204,1098.9551 L209.7366,1101.0168 L209.7649,1101.0727 L213.1817,1102.7989 L216.4556,1104.2436 L219.9228,1106.0691 L223.3329,1107.7821 L226.8481,1109.7021 L226.8587,1109.7284 L230.5003,1111.2113 L234.1501,1112.7146 L237.7121,1114.0011 L241.3869,1115.5661 L245.0357,1117.0668 " fill="none" style="stroke:#181818;stroke-width:1.0;"/><polygon fill="#181818" points="250.67,1119.1294,250.7187,1119.1797,249.1586,1117.6601,247.8842,1116.4356,246.5168,1115.1151,244.8434,1113.4785,243.5935,1112.2793,243.57,1112.2684,243.9408,1113.2457,244.43,1114.278,245.0016,1115.3485,245.2894,1116.2873,245.9747,1117.4106,246.0524,1117.578,244.86,1117.6962,243.8945,1118.3033,242.9566,1118.9699,241.8577,1119.2896,240.8434,1119.7918,240.845,1119.8145,242.808,1119.6487,244.7781,1119.5862,246.7447,1119.4739,248.7178,1119.4566,250.67,1119.1294" style="stroke:#181818;stroke-width:1.0;"/><text fill="#000000" font-family="sans-serif" font-size="13" lengthAdjust="spacing" textLength="30" x="139" y="1011.1045">Does</text></g><!--link Client to ViewReactions--><g id="link_Client_ViewReactions"><path d="M108.14,655.6494 L108.1811,655.7333 L111.3784,657.1082 L114.8165,658.975 L118.1762,660.6817 L121.2781,661.8616 L124.7369,663.7706 L124.7221,663.7394 L128.1636,665.2534 L131.6794,666.925 L135.2468,668.706 L138.6363,670.1097 L142.275,672.0419 L142.3759,672.2663 L145.7472,673.3994 L149.4132,675.1877 L153.1151,677.056 L156.6079,678.4591 L160.2106,680.1069 L160.2224,680.1348 L163.763,681.5943 L167.3572,683.181 L170.9256,684.7063 L174.5433,686.3487 L178,687.6094 L178.1091,687.887 L181.6817,689.2935 L185.184,690.5211 L188.7892,692.0107 L192.3993,693.5126 L195.8565,694.6253 L195.7456,694.3245 L199.4232,696.1841 L202.7358,697.0534 L206.3258,698.6755 L209.6301,699.5224 L213.1686,701.0047 L213.1587,700.9759 L216.724,702.5103 L220.0564,703.3725 L223.5263,704.6313 L227.0077,705.9235 L230.4058,706.9754 L230.4635,707.1511 L233.9316,708.1317 L237.4982,709.4125 L240.9053,710.2075 L244.5504,711.7272 L248.0373,712.765 " fill="none" style="stroke:#181818;stroke-width:1.0;"/><polygon fill="#181818" points="253.75,714.5994,253.7967,714.6516,252.1888,713.1844,250.8544,712.0234,249.431,710.7627,247.7147,709.174,246.4038,708.0394,246.3808,708.0275,246.7945,708.9807,247.3244,709.9935,247.935,711.0478,248.2673,711.9591,248.9894,713.0707,249.0738,713.2349,247.8871,713.401,246.9467,714.0463,246.0364,714.7501,244.9512,715.1138,243.958,715.6563,243.9605,715.6789,245.9153,715.4343,247.8812,715.2927,249.8418,715.1014,251.8126,715.0049,253.75,714.5994" style="stroke:#181818;stroke-width:1.0;"/><text fill="#000000" font-family="sans-serif" font-size="13" lengthAdjust="spacing" textLength="30" x="139" y="668.1045">Does</text></g><!--link Client to DownloadReactions--><g id="link_Client_DownloadReactions"><path d="M86.28,677.6994 L86.3574,677.7517 L87.8338,680.1211 L89.764,682.7972 L91.5464,685.3735 L92.8429,687.6214 L94.812,690.3238 L94.7839,690.3036 L96.5551,692.8532 L98.4676,695.5044 L100.4784,698.2263 L102.1505,700.7047 L104.297,703.5241 L104.492,703.6741 L106.1512,706.0505 L108.3796,708.8651 L110.6775,711.7332 L112.5713,714.2902 L114.6776,717.0107 L114.701,717.0301 L116.9104,719.6984 L119.2261,722.4549 L121.4905,725.1689 L123.8526,727.9641 L125.8963,730.4944 L126.1169,730.6951 L128.5194,733.3357 L130.7796,735.847 L133.2481,738.5477 L135.7264,741.2573 L137.8953,743.6855 L137.6697,743.4579 L140.652,746.4215 L142.8914,748.6356 L145.6956,751.4195 L147.9181,753.6166 L150.6173,756.2947 L150.5973,756.2718 L153.5121,758.8901 L155.958,760.9735 L158.6806,763.3725 L161.4265,765.7981 L164.0047,768.0325 L164.1163,768.18 L166.8028,770.1465 L169.6798,772.3651 L172.2485,774.1756 L175.2772,776.5948 L178,778.6094 L178.1318,778.8143 L180.6944,780.4394 L183.3225,782.1662 L185.6466,783.4202 L188.1935,785.0208 L190.9378,786.9285 L190.807,786.6852 L193.4823,788.2809 L196.0102,789.6024 L198.752,791.3215 L201.1286,792.3619 L203.7223,793.8057 L203.6608,793.6662 L206.4232,795.0696 L208.9229,795.8766 L211.6094,797.1078 L214.4786,798.754 L217.0224,799.6611 L217.0884,799.8431 L220.0306,801.0186 L222.7675,801.628 L225.7616,802.9465 L228.6996,804.1105 L231.5071,804.9145 " fill="none" style="stroke:#181818;stroke-width:1.0;"/><polygon fill="#181818" points="237.2,806.8094,237.2472,806.8611,235.6517,805.3798,234.333,804.2019,232.9241,802.9253,231.2188,801.3236,229.9238,800.1718,229.9007,800.1602,230.3031,801.1199,230.8223,802.138,231.4227,803.1967,231.7434,804.1155,232.4559,805.2303,232.5385,805.3954,231.3501,805.5489,230.403,806.1842,229.4852,806.8783,228.3963,807.2304,227.3974,807.7624,227.3996,807.785,229.3569,807.5612,231.3242,807.4404,233.2867,807.2699,235.2584,807.1943,237.2,806.8094" style="stroke:#181818;stroke-width:1.0;"/><text fill="#000000" font-family="sans-serif" font-size="13" lengthAdjust="spacing" textLength="30" x="139" y="741.1045">Does</text></g><!--link Client to ViewInsights--><g id="link_Client_ViewInsights"><path d="M70.4,677.6594 L70.4892,677.6871 L70.8727,679.6938 L71.7791,681.863 L72.5152,683.9792 L72.6913,685.9216 L73.6426,688.1047 L73.6098,688.0939 L74.1938,690.2675 L74.9433,692.4956 L75.8077,694.7615 L76.2758,696.897 L77.299,699.2152 L77.5313,699.2963 L77.8507,701.4582 L78.8484,703.8571 L79.9288,706.2849 L80.5277,708.5445 L81.3799,710.8926 L81.4083,710.9031 L82.2699,713.3169 L83.2608,715.7787 L84.1893,718.2173 L85.237,720.7002 L85.8963,723.0387 L86.1735,723.1487 L87.1694,725.6534 L87.9865,728.0871 L89.0653,730.6247 L90.1565,733.1672 L90.8588,735.5555 L90.5637,735.4304 L92.2204,738.2309 L92.9054,740.6197 L94.3291,743.3215 L94.992,745.7009 L96.2785,748.3445 L96.2508,748.3319 L97.7561,751.0735 L98.6138,753.5209 L99.8537,756.1418 L101.1256,758.7773 L102.1661,761.3077 L102.3324,761.3889 L103.4378,763.9148 L104.8274,766.5794 L105.7573,769.0196 L107.3728,771.7945 L108.5325,774.3469 L108.7481,774.4604 L110.0785,777.0423 L111.516,779.6806 L112.4561,782.0569 L113.7608,784.6253 L115.3885,787.3637 L115.1486,787.2269 L116.837,789.9301 L118.2552,792.479 L120.0654,795.2517 L121.2062,797.6424 L122.7449,800.2602 L122.6154,800.1798 L124.4047,802.8492 L125.6402,805.175 L127.2695,807.7451 L129.2842,810.5544 L130.6126,812.9379 L130.7729,813.0466 L132.5607,815.5934 L133.8503,817.8019 L135.7639,820.4341 L137.5416,822.9739 L139.0025,825.2987 L138.8343,825.1731 L140.7529,827.6624 L142.6165,830.1106 L144.5883,832.6396 L146.1393,834.8543 L147.9253,837.2445 L148.0837,837.3756 L149.6291,839.3741 L151.4801,841.6256 L153.7777,844.2468 L155.2532,846.1873 L157.392,848.677 L157.5579,848.8307 L159.4636,850.9036 L161.3131,852.9245 L163.2894,855.0628 L165.5586,857.4724 L167.4132,859.498 L167.3213,859.4018 L169.7123,861.7105 L171.4783,863.3649 L173.9548,865.7633 L176.0313,867.7428 L178,869.6094 L178.0694,869.6932 L180.3497,871.5604 L182.8785,873.7279 L185.1828,875.6241 L187.3931,877.4069 L189.6814,879.2838 L189.7493,879.3818 L191.9949,880.8622 L194.5558,882.7974 L196.7601,884.2181 L199.1111,885.8505 L201.4139,887.4134 L201.2801,887.1784 L203.8116,888.6732 L206.5042,890.4509 L208.9687,891.8282 L211.3515,893.062 L213.8477,894.4948 L213.7864,894.3654 L216.5631,895.7129 L219.2312,896.8312 L222.1977,898.5795 L225.0166,900.0159 L227.6329,901.0249 " fill="none" style="stroke:#181818;stroke-width:1.0;"/><polygon fill="#181818" points="233.13,903.4294,233.1817,903.4766,231.6995,901.8819,230.5205,900.5642,229.2427,899.1564,227.6403,897.4518,226.4873,896.1579,226.4632,896.1485,226.7672,897.1596,227.1929,898.2184,227.7032,899.3103,227.9221,900.2881,228.5491,901.4256,228.6163,901.5975,227.4189,901.6424,226.4179,902.189,225.4409,902.7968,224.3244,903.0484,223.2813,903.4874,223.2814,903.5102,225.251,903.4652,227.2211,903.5237,229.191,903.5323,231.1614,903.6362,233.13,903.4294" style="stroke:#181818;stroke-width:1.0;"/><text fill="#000000" font-family="sans-serif" font-size="13" lengthAdjust="spacing" textLength="30" x="139" y="823.1045">Does</text></g><!--link Client to OffBoardClient--><g id="link_Client_OffBoardClient"><path d="M60.24,677.6294 L60.333,677.6378 L60.3325,680.6479 L60.8774,683.7076 L61.2447,686.7511 L61.0279,689.7415 L61.6196,692.8054 L61.5853,692.8016 L61.8018,696.1208 L62.1913,699.4593 L62.7012,702.8111 L62.7964,706.1169 L63.4723,709.4872 L63.7163,709.5197 L63.6737,713.0468 L64.3433,716.6688 L65.0998,720.3023 L65.3508,723.8685 L65.8676,727.4701 L65.8976,727.4749 L66.4551,731.2839 L67.149,735.1144 L67.777,738.9345 L68.5307,742.7744 L68.875,746.5498 L69.1683,746.604 L69.9097,750.5991 L70.4619,754.5592 L71.291,758.5704 L72.1331,762.5841 L72.5639,766.5217 L72.25,766.4568 L73.2836,768.6342 L73.2836,770.5977 L74.0693,772.7238 L74.0459,774.6825 L74.6857,776.7784 L74.656,776.7717 L75.471,778.9307 L75.5918,780.9348 L76.1223,783.0303 L76.6872,785.1335 L77.0039,787.1813 L77.1838,787.2245 L77.5069,789.2857 L78.1374,791.4206 L78.2705,793.4363 L79.1455,795.6298 L79.5273,797.7051 L79.7632,797.7659 L80.266,799.8782 L80.886,802.0207 L80.9617,804.0229 L81.4363,806.128 L82.2644,808.3241 L81.9983,808.2504 L82.8312,810.4549 L83.3641,812.5763 L84.3321,814.8182 L84.5574,816.8544 L85.2241,819.0128 L85.078,818.9694 L85.9595,821.1883 L86.2164,823.2215 L86.9175,825.3868 L88.0533,827.6813 L88.415,829.7456 L88.5995,829.8045 L89.4121,831.9951 L89.6511,834.0027 L90.6086,836.2396 L91.4096,838.4265 L91.8458,840.497 L91.6471,840.4289 L92.5413,842.632 L93.3705,844.8128 L94.3274,847.0374 L94.7875,849.0918 L95.5251,851.2413 L95.7181,851.3122 L96.0814,853.2987 L96.8172,855.4222 L98.0971,857.7455 L98.3753,859.7008 L99.4617,861.953 L99.6721,862.036 L100.3876,864.1174 L101.0319,866.1708 L101.8369,868.2875 L103.0134,870.5507 L103.6642,872.6066 L103.5417,872.5547 L104.8019,874.8232 L105.2289,876.7388 L106.6032,879.0556 L107.4441,881.1465 L108.1414,883.1765 L108.2405,883.2216 L109.1126,885.2773 L110.3395,887.4945 L111.2459,889.5658 L112.0182,891.5762 L112.9019,893.6371 L113.0089,893.6895 L113.8603,895.6768 L115.2089,897.9074 L115.9952,899.8628 L117.0127,901.9315 L117.9543,903.9629 L117.7151,903.8369 L118.8656,905.9121 L120.3043,908.139 L121.3352,910.1511 L122.22,912.0863 L123.3075,914.1283 L123.183,914.0576 L124.3554,916.0761 L125.3073,917.9695 L126.8653,920.2069 L128.1234,922.274 L128.97,924.1077 L129.1696,924.2299 L130.4296,926.2226 L131.3105,927.9831 L132.5915,929.9887 L133.6076,931.8321 L134.9506,933.8756 L135.0559,933.9453 L136.3036,935.8423 L137.6783,937.8234 L138.6499,939.5377 L139.9467,941.4673 L141.258,943.4064 L141.4182,943.5212 L142.7915,945.4069 L143.73,946.981 L145.1736,948.9171 L146.6261,950.8596 L147.9008,952.6746 L147.6865,952.5078 L149.4221,954.567 L150.786,956.3369 L152.0576,958.035 L153.5402,959.8973 L154.8877,961.6545 L155.1348,961.8638 L156.2495,963.2979 L157.9304,965.2114 L159.3884,966.9362 L160.7987,968.6207 L162.2274,970.3206 L162.2734,970.3632 L163.8047,972.0203 L165.1042,973.463 L166.7173,975.1958 L168.2378,976.8428 L169.9286,978.6475 L169.9485,978.6677 L171.5704,980.2677 L173.2077,981.8834 L174.6806,983.3325 L176.3646,984.9956 L178,986.6094 L177.965,986.569 L180.1603,988.527 L182.1091,990.2002 L183.8364,991.6173 L185.9489,993.4798 L187.9627,995.228 L187.8156,995.0178 L190.031,996.7292 L192.1074,998.242 L194.086,999.615 L195.831,1000.6544 L197.9369,1002.2092 L198.0353,1002.3904 L199.9267,1003.0854 L202.2742,1004.6201 L204.3157,1005.5914 L206.5472,1006.9124 L208.6741,1008.041 L208.7157,1008.1394 L211.2061,1009.2684 L213.4506,1009.8144 L216.1075,1011.338 L218.5066,1012.2504 L220.9262,1013.2115 " fill="none" style="stroke:#181818;stroke-width:1.0;"/><polygon fill="#181818" points="226.54,1015.3294,226.5892,1015.3792,225.0412,1013.8472,223.7818,1012.6075,222.4283,1011.2726,220.7659,1009.6247,219.5312,1008.41,219.5076,1008.3994,219.8678,1009.3824,220.347,1010.4192,220.9089,1011.4933,221.1857,1012.4386,221.8618,1013.5645,221.9379,1013.7326,220.7444,1013.8392,219.7729,1014.4367,218.8285,1015.094,217.7265,1015.4029,216.7074,1015.8951,216.7087,1015.9178,218.6733,1015.7713,220.6439,1015.7282,222.6115,1015.6352,224.5847,1015.6374,226.54,1015.3294" style="stroke:#181818;stroke-width:1.0;"/><text fill="#000000" font-family="sans-serif" font-size="13" lengthAdjust="spacing" textLength="30" x="139" y="937.1045">Does</text></g><!--link OffBoardClient to RefundPayment--><g id="link_OffBoardClient_RefundPayment"><path d="M384.48,1009.4794 L384.5734,1009.7436 L393.5051,1005.7047 L402.9842,1003.2147 L412.2851,1000.2203 L420.9998,995.5671 L430.4914,993.1124 L439.5457,989.4201 L448.7739,986.2203 L458.1232,983.3629 L467.0555,979.3255 L476.8177,977.6369 L485.501,972.8946 L494.9023,970.1845 L504.3912,967.7223 L513.3705,963.8176 L522.648,960.7574 L531.8127,957.3776 L541.1154,954.3883 L550.3515,951.2107 L559.7146,948.3925 L568.9617,945.246 L577.8728,941.1485 " fill="none" style="stroke:#181818;stroke-width:1.0;"/><polygon fill="#181818" points="583.53,939.1494,583.5355,939.2192,581.5555,938.8571,579.6077,938.9045,577.6494,938.8185,575.6565,938.2941,573.7115,938.3766,573.7003,938.3532,574.6711,938.7361,575.6981,939.2367,576.7642,939.8193,577.6955,940.1196,578.8157,940.8153,578.9822,940.8949,578.1384,941.7456,577.7807,942.8286,577.4824,943.9399,576.8389,944.8863,576.377,945.9195,576.3926,945.936,577.8003,944.5577,579.2791,943.2547,580.7236,941.9153,582.2336,940.6452,583.53,939.1494" style="stroke:#181818;stroke-width:1.0;"/><text fill="#000000" font-family="sans-serif" font-size="13" lengthAdjust="spacing" textLength="46" x="465" y="962.1045">Triggers</text></g><!--link RefundPayment to HandlePayment--><g id="link_RefundPayment_HandlePayment"><path d="M718.24,936.2894 L718.3106,936.5606 L727.9983,938.3326 L738.1001,941.6944 L748.0671,944.5386 L757.5906,945.6802 L767.7018,949.0783 L777.4822,951.2061 L787.3942,953.8394 L797.3978,956.8241 L807.0859,958.5979 L817.4019,962.7821 L826.9016,963.8324 L836.9445,966.9683 L847.0537,970.3586 L856.7773,972.2684 L866.7037,974.957 " fill="none" style="stroke:#181818;stroke-width:1.0;"/><polygon fill="#181818" points="872.51,976.4694,872.5537,976.5242,870.8837,975.1335,869.4697,974.064,867.9724,972.8899,866.2009,971.3719,864.8089,970.3299,864.7866,970.3168,865.2588,971.2338,865.8437,972.2169,866.5068,973.2459,866.9002,974.1166,867.6715,975.209,867.7648,975.3682,866.5893,975.6003,865.6864,976.2972,864.8168,977.0507,863.7537,977.4744,862.7923,978.0716,862.796,978.094,864.7341,977.7406,866.6891,977.4894,868.6359,977.1889,870.5982,976.9824,872.51,976.4694" style="stroke:#181818;stroke-width:1.0;"/><text fill="#000000" font-family="sans-serif" font-size="13" lengthAdjust="spacing" textLength="30" x="782" y="951.1045">Uses</text></g><!--link StartEvent to LoadConfiguration--><g id="link_StartEvent_LoadConfiguration"><path d="M391.84,1130.7994 L391.8623,1131.0787 L401.7976,1129.4512 L411.8635,1129.4614 L421.8869,1128.9382 L431.7704,1126.6614 L441.8393,1126.7088 L451.8038,1125.4478 L461.8099,1124.7074 L471.8448,1124.3291 L481.7802,1122.7033 L491.9137,1123.5606 L501.7897,1121.1896 L511.837,1120.967 L521.9053,1121.0065 L531.8519,1119.5209 L541.8697,1118.9282 L551.8606,1117.9976 L561.8844,1117.4798 L571.8923,1116.7629 L581.9306,1116.4261 L591.9411,1115.7421 L601.9435,1114.9555 L611.9,1113.5937 L621.9236,1113.0739 L631.9504,1112.5937 L641.8011,1109.9043 L651.9509,1110.9672 L661.8491,1108.8739 L671.9386,1109.18 L681.831,1107.0151 L691.8777,1106.7845 L701.9651,1107.0638 L711.8828,1105.2159 L721.9006,1104.6231 L731.9269,1104.1358 L741.9366,1103.4415 L751.8936,1102.0856 L761.9259,1101.6751 L771.8363,1099.7351 L781.9286,1100.0764 L791.9581,1099.6296 L801.9486,1098.6943 L811.9679,1098.1208 L821.8533,1095.8665 L831.8369,1094.8443 L841.8416,1094.0878 L851.909,1094.1162 " fill="none" style="stroke:#181818;stroke-width:1.0;"/><polygon fill="#181818" points="857.89,1093.6394,857.9133,1093.7055,855.9862,1092.8547,854.1956,1092.3913,852.3606,1091.8018,850.3795,1090.7974,848.6006,1090.3673,848.5838,1090.3476,849.3694,1090.993,850.2398,1091.7378,851.169,1092.5517,851.8953,1093.1275,852.9058,1094.0367,853.0463,1094.1564,852.012,1094.7615,851.3879,1095.7161,850.8137,1096.7133,849.9485,1097.4624,849.2364,1098.342,849.2472,1098.362,850.962,1097.3921,852.7262,1096.5132,854.4666,1095.5905,856.2525,1094.7514,857.89,1093.6394" style="stroke:#181818;stroke-width:1.0;"/><text fill="#000000" font-family="sans-serif" font-size="13" lengthAdjust="spacing" textLength="46" x="622.5" y="1098.1045">Triggers</text></g><!--link StartEvent to ProcessFeed--><g id="link_StartEvent_ProcessFeed"><path d="M391.84,1142.8794 L391.864,1143.1586 L401.845,1143.1948 L411.967,1144.8677 L422.043,1146.0076 L431.9681,1145.3948 L442.0933,1147.105 L452.1058,1147.5074 L462.1632,1148.4303 L472.2517,1149.715 L482.2328,1149.7529 L492.4277,1152.2725 L502.3447,1151.5656 L512.4466,1153.0059 L522.5711,1154.7082 L532.5643,1154.8862 L542.6344,1155.9566 L552.6753,1156.6892 L562.7519,1157.8346 L572.8112,1158.7809 L582.9033,1160.107 L592.9655,1161.0862 L603.0189,1161.9629 L613.0227,1162.2646 L623.0991,1163.4079 L633.1788,1164.5907 L643.0684,1163.5656 L653.281,1166.2907 L663.2219,1165.8613 L673.3693,1167.83 L683.304,1167.3291 L693.4053,1168.7615 L703.5504,1170.7034 L713.5124,1170.5193 L723.5825,1171.5897 L733.6616,1172.7654 L743.7229,1173.7342 L753.7273,1174.0419 L763.813,1175.2944 L773.7671,1175.0182 L783.9176,1177.0222 L794.0002,1178.2384 L804.0408,1178.9664 L814.1125,1180.056 L824.0395,1179.4657 L834.0726,1180.1069 L844.1286,1181.0135 L854.2521,1182.7048 " fill="none" style="stroke:#181818;stroke-width:1.0;"/><polygon fill="#181818" points="860.23,1183.2194,860.2638,1183.2807,858.4385,1182.147,856.8116,1181.3729,855.1201,1180.4817,853.2161,1179.2054,851.6062,1178.4622,851.5864,1178.4455,852.2259,1179.2363,852.9653,1180.1112,853.7742,1181.0446,854.3437,1181.7765,855.2484,1182.7905,855.3672,1182.9317,854.2475,1183.3582,853.4746,1184.197,852.7441,1185.086,851.7674,1185.6824,850.9201,1186.4327,850.9275,1186.4542,852.7786,1185.78,854.6635,1185.2036,856.532,1184.5801,858.4317,1184.0466,860.23,1183.2194" style="stroke:#181818;stroke-width:1.0;"/><text fill="#000000" font-family="sans-serif" font-size="13" lengthAdjust="spacing" textLength="46" x="622.5" y="1153.1045">Triggers</text></g><!--link ProcessFeed to IdentifyPerson--><g id="link_ProcessFeed_IdentifyPerson"><path d="M1035.38,1190.6094 L1035.38,1190.8896 L1044.9967,1190.0569 L1054.6133,1190.8671 L1064.23,1191.1423 L1073.8467,1189.6582 L1083.4633,1190.5058 L1093.08,1190.0407 L1102.6967,1190.098 L1112.3133,1190.5185 L1121.93,1189.6875 L1131.5467,1191.3476 L1141.1633,1189.769 L1150.78,1190.6094 " fill="none" style="stroke:#181818;stroke-width:1.0;"/><polygon fill="#181818" points="1156.78,1190.6094,1156.8085,1190.6734,1154.9239,1189.6832,1153.2062,1189.0683,1151.4341,1188.3311,1149.4834,1187.1921,1147.78,1186.6094,1147.7617,1186.5911,1148.4795,1187.3088,1149.2896,1188.119,1150.1639,1188.9933,1150.817,1189.6464,1151.78,1190.6094,1151.9105,1190.7399,1150.8314,1191.2608,1150.1334,1192.1628,1149.4818,1193.1112,1148.5598,1193.7892,1147.78,1194.6094,1147.7892,1194.6302,1149.5757,1193.7996,1151.4042,1193.0638,1153.2124,1192.2822,1155.0593,1191.5878,1156.78,1190.6094" style="stroke:#181818;stroke-width:1.0;"/><text fill="#000000" font-family="sans-serif" font-size="13" lengthAdjust="spacing" textLength="46" x="1080" y="1187.1045">Triggers</text></g><!--link ProcessFeed to CaptureReaction--><g id="link_ProcessFeed_CaptureReaction"><path d="M1015.36,1164.8694 L1015.4601,1165.1311 L1024.7572,1160.6858 L1034.6409,1157.7751 L1044.3336,1154.3646 L1053.3981,1149.3108 L1063.2952,1146.435 L1072.7236,1142.3331 L1082.3385,1138.7192 L1092.0831,1135.4444 L1101.3808,1131.0007 L1111.568,1128.8838 L1120.5988,1123.7418 L1130.3991,1120.6129 L1140.2934,1117.7297 L1149.6413,1113.4174 L1159.3091,1109.9417 L1168.8558,1106.1494 L1178.4655,1102.5217 " fill="none" style="stroke:#181818;stroke-width:1.0;"/><polygon fill="#181818" points="1184.07,1100.3794,1184.0737,1100.4493,1182.0957,1100.1369,1180.1394,1100.2345,1178.1761,1100.1987,1176.1894,1099.7236,1174.235,1099.8565,1174.2245,1099.8328,1175.2099,1100.1883,1176.2487,1100.663,1177.3245,1101.2206,1178.2726,1101.4926,1179.3996,1102.1646,1179.5681,1102.2399,1178.7461,1103.1118,1178.4161,1104.2035,1178.1461,1105.3221,1177.5269,1106.2846,1177.0914,1107.3291,1177.1075,1107.3453,1178.4796,1105.9316,1179.9248,1104.5914,1181.3348,1103.2158,1182.812,1101.9077,1184.07,1100.3794" style="stroke:#181818;stroke-width:1.0;"/><text fill="#000000" font-family="sans-serif" font-size="13" lengthAdjust="spacing" textLength="46" x="1080" y="1119.1045">Triggers</text></g><!--link CaptureReaction to ValidateReaction--><g id="link_CaptureReaction_ValidateReaction"><path d="M1337.23,1086.8994 L1337.2707,1087.1766 L1346.9821,1087.7964 L1356.932,1090.0415 L1366.8043,1091.7574 L1376.421,1091.7326 L1386.3764,1094.0148 L1396.1412,1094.9983 L1405.9818,1096.4986 L1415.8752,1098.3582 L1425.5868,1098.9796 L1435.6602,1102.0656 L1445.2632,1101.9474 L1455.1793,1103.9615 L1465.1335,1106.2358 L1474.8656,1106.9964 L1484.7277,1108.6432 L1494.5406,1109.9546 L1504.4137,1111.6759 L1514.2577,1113.1994 L1524.0437,1114.3275 " fill="none" style="stroke:#181818;stroke-width:1.0;"/><polygon fill="#181818" points="1529.98,1115.1994,1530.0175,1115.2586,1528.2415,1114.0296,1526.6851,1113.1477,1525.0573,1112.1528,1523.1943,1110.7862,1521.6568,1109.9341,1521.636,1109.9186,1522.2179,1110.757,1522.9047,1111.6733,1523.6643,1112.6438,1524.1729,1113.4275,1525.0331,1114.4728,1525.1432,1114.6209,1523.9999,1114.9795,1523.1782,1115.7705,1522.3957,1116.6142,1521.385,1117.1509,1520.4943,1117.8492,1520.5004,1117.8711,1522.3886,1117.3089,1524.3046,1116.8466,1526.2072,1116.3361,1528.1354,1115.9174,1529.98,1115.1994" style="stroke:#181818;stroke-width:1.0;"/><text fill="#000000" font-family="sans-serif" font-size="13" lengthAdjust="spacing" textLength="30" x="1422" y="1090.1045">Runs</text></g><!--link CaptureReaction to SaveReaction--><g id="link_CaptureReaction_SaveReaction"><path d="M1337.23,1062.7794 L1337.2692,1063.0569 L1347.2082,1060.8118 L1357.3769,1060.1935 L1367.4709,1059.0454 L1377.3187,1056.1553 L1387.4927,1055.574 L1397.4831,1053.693 L1407.5466,1052.3292 L1417.6609,1051.325 L1427.6001,1049.0817 L1437.8877,1049.3048 L1447.7224,1046.3212 L1457.8585,1045.4717 L1468.0314,1044.8825 L1477.9903,1042.7784 L1488.0744,1041.5612 L1498.1112,1040.0084 L1508.2059,1038.8657 L1518.2727,1037.5252 L1528.3927,1036.5622 L1538.3389,1034.3684 " fill="none" style="stroke:#181818;stroke-width:1.0;"/><polygon fill="#181818" points="1544.28,1033.5294,1544.2992,1033.5967,1542.3479,1032.8561,1540.5093,1032.5104,1538.634,1032.0362,1536.638,1031.1389,1534.8091,1030.8272,1534.7935,1030.8065,1535.6276,1031.3938,1536.5402,1032.0856,1537.5075,1032.8498,1538.2865,1033.3641,1539.3291,1034.2285,1539.4766,1034.3395,1538.481,1035.0062,1537.9159,1035.9969,1537.4033,1037.0271,1536.5852,1037.8274,1535.9277,1038.7486,1535.9398,1038.7678,1537.5926,1037.6957,1539.3002,1036.7113,1540.9813,1035.6846,1542.713,1034.7388,1544.28,1033.5294" style="stroke:#181818;stroke-width:1.0;"/><text fill="#000000" font-family="sans-serif" font-size="13" lengthAdjust="spacing" textLength="116" x="1379" y="1038.1045">Runs after validation</text></g><!--link HandlePayment to PaymentProvider--><g id="link_HandlePayment_PaymentProvider"><path d="M1017.94,1015.8194 L1017.9867,1015.9002 L1019.5899,1016.667 L1021.4672,1017.9077 L1023.2552,1018.9942 L1024.7497,1019.5729 L1026.6505,1020.8544 L1026.6306,1020.8261 L1028.1851,1021.8548 L1029.8398,1023.0259 L1031.564,1024.2961 L1033.0484,1025.225 L1034.8688,1026.6319 L1035.0418,1026.8068 L1037.498,1029.2282 L1040.4594,1032.1604 L1043.4825,1035.1549 L1046.1469,1037.7868 L1049,1040.6094 L1049.0251,1040.6264 L1050.5597,1042.9195 L1052.2085,1045.2901 L1053.8022,1047.6233 L1055.5011,1050.0278 L1056.8571,1052.1999 L1057.1249,1052.3311 L1058.2356,1054.5928 L1059.1736,1056.7698 L1060.3645,1059.0707 L1061.5672,1061.3775 L1062.3944,1063.5002 L1062.0892,1063.4024 L1063.3903,1065.8034 L1063.6865,1067.8822 L1064.7466,1070.206 L1065.02,1072.2775 L1065.9382,1074.5558 L1065.9082,1074.5506 L1066.6383,1076.7832 L1066.6675,1078.8945 L1067.1102,1081.0774 L1067.5877,1083.2663 L1067.8147,1085.4119 L1067.9994,1085.4211 L1067.92,1087.5522 L1068.1563,1089.699 L1067.8817,1091.8203 L1068.3691,1093.9797 L1068.3499,1096.1137 L1068.5933,1096.1247 L1068.4513,1098.2412 L1068.4302,1100.3632 L1067.8476,1102.4598 L1067.6765,1104.5749 L1067.8701,1106.7066 L1067.5956,1106.6762 L1067.6104,1108.8096 L1067.3158,1110.9087 L1067.4699,1113.0576 L1066.858,1115.1215 L1066.7014,1117.2359 L1066.5505,1117.2139 L1066.4955,1119.3527 L1065.7956,1121.3976 L1065.5543,1123.5092 L1065.7617,1125.6863 L1065.17,1127.7469 L1065.3615,1127.7754 L1065.1793,1129.9025 L1064.4013,1131.941 L1064.3695,1134.0905 L1064.1752,1136.2158 L1063.602,1138.2848 L1063.3936,1138.2597 L1063.304,1140.4017 L1063.1463,1142.5355 L1063.1226,1144.6855 L1062.5775,1146.7727 L1062.3236,1148.8949 L1062.5288,1148.9076 L1061.9454,1151.0253 L1061.7582,1153.1674 L1062.1495,1155.3453 L1061.4755,1157.4574 L1061.661,1159.6226 L1061.8871,1159.6284 L1061.8087,1161.8031 L1061.6537,1163.9758 L1061.6714,1166.1529 L1062.0883,1168.3402 L1061.9403,1170.5131 L1061.8086,1170.4948 L1062.5103,1172.7692 L1062.316,1174.9187 L1063.1405,1177.2102 L1063.3914,1179.4218 L1063.4877,1181.6118 L1063.5926,1181.6408 L1064.1363,1183.8878 L1065.0556,1186.2387 L1065.6355,1188.4957 L1066.0735,1190.7135 L1066.6293,1192.9638 L1066.7387,1193.0113 L1067.5886,1195.2709 L1068.9462,1197.751 L1069.7297,1199.9817 L1070.7493,1202.315 L1071.6914,1204.6146 L1071.4605,1204.4739 L1072.9993,1206.9198 L1074.8163,1209.5353 L1076.2397,1211.9109 L1077.522,1214.2005 L1079,1216.6094 L1078.8876,1216.5207 L1081.1829,1219.4114 L1083.2792,1222.1451 L1085.9225,1225.3106 L1088.2951,1228.2624 L1090.2963,1230.9211 L1090.4635,1231.0847 L1093.0334,1233.7079 L1095.2855,1236.0202 L1097.8729,1238.6606 L1100.2384,1241.0838 L1102.8778,1243.7751 L1102.9592,1243.8716 L1105.6701,1246.1566 L1108.4793,1248.5581 L1110.9766,1250.5902 L1113.7254,1252.9203 L1116.4855,1255.2636 L1116.5997,1255.4243 L1119.5066,1257.5122 L1122.1036,1259.164 L1125.0607,1261.3225 L1128.0241,1263.4898 L1130.8607,1265.4788 L1130.7198,1265.2467 L1133.9189,1267.4198 L1136.8737,1269.1904 L1139.7677,1270.8608 L1142.8005,1272.7599 L1145.7445,1274.5127 L1145.895,1274.7994 L1148.7065,1275.9785 L1151.8629,1277.8145 L1154.8836,1279.3919 L1157.8752,1280.914 L1160.878,1282.4574 L1160.9041,1282.5144 L1163.9239,1283.8928 L1166.8119,1284.9845 L1169.8783,1286.4642 L1172.8919,1287.8293 L1176.0024,1289.4052 L1176.0131,1289.4315 L1178.9885,1290.6501 L1181.9721,1291.889 L1184.8676,1292.9112 L1187.8763,1294.2118 L1190.8589,1295.4482 " fill="none" style="stroke:#181818;stroke-width:1.0;"/><polygon fill="#181818" points="1196.46,1297.5994,1196.5095,1297.6489,1194.9689,1296.1095,1193.7185,1294.8606,1192.3736,1293.5171,1190.7179,1291.8625,1189.4925,1290.6385,1189.4688,1290.628,1189.8226,1291.6144,1190.2956,1292.6538,1190.8517,1293.7302,1191.1219,1294.6794,1191.7924,1295.8067,1191.8674,1295.9753,1190.6734,1296.0748,1189.6983,1296.6665,1188.75,1297.3182,1187.6462,1297.6206,1186.6242,1298.1067,1186.6254,1298.1294,1188.5908,1297.9946,1190.5616,1297.9632,1192.5298,1297.8819,1194.5029,1297.8958,1196.46,1297.5994" style="stroke:#181818;stroke-width:1.0;"/><text fill="#000000" font-family="sans-serif" font-size="13" lengthAdjust="spacing" textLength="21" x="1092.5" y="1213.1045">use</text></g><!--SRC=[VLR1Rjim3BtxAuXSUieF14E1Bjkm0XrQDDk03G46rQOTeRPaI7A2RDY_ZvJaHhATvH0avECJIJtITjAr2AiVwEJwktn12zyimbPOjAkYk847STQ30ulEITNOmhvArGiZEX2bqsRdpXGkJcXrXudp85HrCj8vLE3CW4MBjGEdmSZcuA2I1aidjU8ZxfW8AgobacopXQU6pSSZAWUFfX5A_aQp0M5XsqesldltXCPgTNixWf_4kMFFaz57MKLqD8us2hlh-rQMWi-XM3ez4ahbq0YV4mpKWP8xK72MGZLKOe3zkh_0BFmfW3w4PZ0yzgZiNLdgWUZex5LarcI_iR1NGi7etgkJT0UuT7sLKON81zr85PcGyeDMDqH4jhsYJhe3IaEtu1dp-E-YbPLmk1jUR6baxwkwf4GaDlNibRHmZ37L91MjQjaC1hUYeyhJmlhGLIwj3CuoWdrxxHMYJwGFJ7d6AFHT-gqL0gSBjGVkLMrqnzL2ZRFi35BAGISfepV7dYDxyx0luXL7lIHX7Pavg8-kcdH5hQQJqtPDMYtnz8oZ8j8SwEWZEIE3YHYW7ekSueC-gLQBwYfD5G54PTumkgvRgN2UpRsoF6FNadbp-xQ6v1f1tmQhjonpriUwVg-5gI9PmbjXwHL0ScnH7D5tl0Bfqrk_KD3qnfwn7bGrRpxTlS5Eq0fG3RDql7M8fnHjERHpNUwSCEvoyVxlfSbx5KfYiiijHYNyBNZkTsVhi6CHbsZjuim7oFzc_e5kPPkAFYGJgFdAM4uistmqybAUGWgV69Q4MoxfnlUM91dJv38Y8-q1ghTTEzdX2ZB6-ueAbVKvxCYKj497vTdndW9EuaZSXm2Yvly_zLHVMz4x6jHHgIbp6LnsgdTTHqlWNbvKIuJZGfenxXLnNcFSaGgNs2pPfqnvv6VgI9kjXV4toV3WdJo1mlcpNqJvofhyk_mCiKMqhTUt-PDXG_EEcJlTzfatc1YokD0t_AZEcIRBUk6iV0il09ADElUcYpDwKnD3yZRESqm6TywVRzEvVxugbpdUbjpSFLbc4J2nCZ3VL1luIgyk3Icko1rNQqwMJ2QCf04SEryXoL4JRBef4bHgPjXa_F-3dCvp0fswKXac-ET1BMEpGGmu43NrOHniVllB6-TBdBonRNW-Yty0]--></g></svg>