<?xml version="1.0" encoding="us-ascii" standalone="no"?><svg xmlns="http://www.w3.org/2000/svg" xmlns:xlink="http://www.w3.org/1999/xlink" contentStyleType="text/css" height="1257px" preserveAspectRatio="none" style="width:1563px;height:1257px;background:#FFFFFF;" version="1.1" viewBox="0 0 1563 1257" width="1563px" zoomAndPan="magnify"><defs/><g><text fill="#000000" font-family="sans-serif" font-size="14" font-weight="bold" lengthAdjust="spacing" textLength="150" x="699.6362" y="24.5332">Yeti-Vibes Use Cases</text><!--entity Client--><g id="elem_Client"><polygon fill="#F1F1F1" points="73.0884,556.6106,70.7431,559.8152,67.969,564.5089,64.0016,567.6721,59.8326,569.4018,56.5084,569.5519,52.2359,567.3886,48.2046,565.9754,45.1448,563.1059,43.5397,559.821,42.5879,557.2053,41.6554,553.7889,40.1418,550.8489,41.3049,547.9784,42.3239,544.834,46.1481,542.3471,48.8385,539.1203,52.1686,538.0488,56.1274,537.1261,61.2042,537.6743,63.9848,538.9857,67.2178,539.5801,71.1486,543.6074,72.5189,547.859,73.1143,550.76,72.4399,555.5404" style="stroke:#181818;stroke-width:0.5;"/><path d="M57,572.7188 L57,572.7188 L57.0319,572.8065 L59.1371,571.7457 L61.4294,571.1995 L63.6607,570.4857 L65.6916,569.2208 L68,568.7188 L68,568.7188 L67.9857,568.6873 L70.1216,569.5462 L72.3295,570.5636 L74.5875,571.6912 L76.6728,572.439 L79,573.7188 L79.224,573.8206 L79.745,575.8028 L80.92,578.0824 L82.1748,580.3982 L82.9653,582.503 L84,584.7188 L84.0607,584.7188 L83.9716,585.5188 L84.1587,586.3188 L84.2126,587.1188 L84.5206,587.9188 L84,588.7188 L84,588.7188 L84.2109,588.9296 L82.6135,590.5322 L80.88,591.9988 L79.3457,593.6644 L77.8207,595.3394 L76,596.7188 L76,596.0777 L68.4,597.3219 L60.8,596.4552 L53.2,597.1932 L45.6,596.2787 L38,596.7188 L38,596.7188 L37.9785,596.6972 L36.6331,595.3518 L34.7847,593.5034 L33.2331,591.9518 L31.7064,590.4252 L30,588.7188 L30.37,588.7188 L29.9965,587.9188 L30.2553,587.1188 L29.4912,586.3188 L30.2528,585.5188 L30,584.7188 L30,584.7188 L30.2218,584.8196 L31.1799,582.6005 L32.248,580.4315 L32.8045,578.0299 L33.7361,575.7988 L35,573.7188 L34.8857,573.4673 L37.1892,572.6949 L39.3639,571.6392 L41.7253,570.9945 L43.7679,569.6481 L46,568.7188 L46,568.7188 L45.9479,568.5755 L48.2347,569.6141 L50.2987,570.0402 L52.5212,570.9019 L54.8986,572.1898 L57,572.7188 " fill="#F1F1F1" style="stroke:#181818;stroke-width:0.5;"/><text fill="#000000" font-family="sans-serif" font-size="14" lengthAdjust="spacing" textLength="102" x="6" y="611.752">Event Organizer</text><text fill="#000000" font-family="sans-serif" font-size="14" font-style="italic" lengthAdjust="spacing" textLength="61" x="26.5" y="533.1426">&#171;Person&#187;</text></g><!--entity PaymentProvider--><g id="elem_PaymentProvider"><polygon fill="#F1F1F1" points="1472.0884,966.6106,1469.7431,969.8152,1466.969,974.5089,1463.0016,977.6721,1458.8326,979.4018,1455.5084,979.5519,1451.2359,977.3886,1447.2046,975.9754,1444.1448,973.1059,1442.5397,969.821,1441.5879,967.2053,1440.6554,963.7889,1439.1418,960.8489,1440.3049,957.9784,1441.3239,954.834,1445.1481,952.3471,1447.8385,949.1203,1451.1686,948.0488,1455.1274,947.1261,1460.2042,947.6743,1462.9848,948.9857,1466.2178,949.5801,1470.1486,953.6074,1471.5189,957.859,1472.1143,960.76,1471.4399,965.5404" style="stroke:#181818;stroke-width:0.5;"/><path d="M1456,982.7188 L1456,982.7188 L1456.0319,982.8065 L1458.1371,981.7457 L1460.4294,981.1995 L1462.6607,980.4857 L1464.6916,979.2208 L1467,978.7188 L1467,978.7188 L1466.9857,978.6873 L1469.1216,979.5462 L1471.3295,980.5636 L1473.5875,981.6912 L1475.6728,982.439 L1478,983.7188 L1478.224,983.8206 L1478.745,985.8028 L1479.92,988.0824 L1481.1748,990.3982 L1481.9653,992.503 L1483,994.7188 L1483.0607,994.7188 L1482.9716,995.5188 L1483.1587,996.3188 L1483.2126,997.1188 L1483.5206,997.9188 L1483,998.7188 L1483,998.7188 L1483.2109,998.9296 L1481.6135,1000.5322 L1479.88,1001.9988 L1478.3457,1003.6644 L1476.8207,1005.3394 L1475,1006.7188 L1475,1006.0777 L1467.4,1007.3219 L1459.8,1006.4552 L1452.2,1007.1932 L1444.6,1006.2787 L1437,1006.7188 L1437,1006.7188 L1436.9785,1006.6972 L1435.6331,1005.3518 L1433.7847,1003.5034 L1432.2331,1001.9518 L1430.7064,1000.4252 L1429,998.7188 L1429.37,998.7188 L1428.9965,997.9188 L1429.2553,997.1188 L1428.4912,996.3188 L1429.2528,995.5188 L1429,994.7188 L1429,994.7188 L1429.2218,994.8196 L1430.1799,992.6005 L1431.248,990.4315 L1431.8045,988.0299 L1432.7361,985.7988 L1434,983.7188 L1433.8857,983.4673 L1436.1892,982.6949 L1438.3639,981.6392 L1440.7253,980.9945 L1442.7679,979.6481 L1445,978.7188 L1445,978.7188 L1444.9479,978.5755 L1447.2347,979.6141 L1449.2987,980.0402 L1451.5212,980.9019 L1453.8986,982.1898 L1456,982.7188 " fill="#F1F1F1" style="stroke:#181818;stroke-width:0.5;"/><text fill="#000000" font-family="sans-serif" font-size="14" lengthAdjust="spacing" textLength="112" x="1400" y="1021.752">Payment Provider</text><text fill="#000000" font-family="sans-serif" font-size="14" font-style="italic" lengthAdjust="spacing" textLength="117" x="1397.5" y="943.1426">&#171;External Service&#187;</text></g><g id="elem_OpenAccount"><polygon fill="#F1F1F1" points="420.2452,76.6897,418.4637,81.4073,411.6641,84.9969,403.8622,88.5731,397.4215,92.7267,385.2698,95.095,374.1685,97.6398,361.1388,99.2817,346.783,100.0685,334.3154,100.8749,317.4054,99.6062,306.6147,99.4652,292.6587,97.4697,279.2306,94.7161,269.8217,92.2601,260.368,88.8195,253.2951,85.1643,247.4398,80.9666,244.0292,76.6682,242.1073,72.0498,243.0021,67.6256,246.2492,63.3662,252.6136,59.6406,259.4279,55.7556,267.9479,52.252,281.9727,50.4693,290.575,47.1433,305.821,46.1941,317.4526,44.5558,333.8485,44.9774,346.7838,45.0035,358.4634,45.4224,373.2703,47.6839,384.8346,49.8549,394.9199,52.5223,403.8228,55.7908,412.133,59.8327,416.7955,63.6576,422.1061,68.55,421.1666,72.2738" style="stroke:#181818;stroke-width:0.5;"/><text fill="#000000" font-family="sans-serif" font-size="14" font-style="italic" lengthAdjust="spacing" textLength="110" x="274.6714" y="68.1971">&#171;use-interaction&#187;</text><text fill="#000000" font-family="sans-serif" font-size="14" lengthAdjust="spacing" textLength="110" x="274.6714" y="85.8065">Open an Account</text></g><g id="elem_Login"><polygon fill="#F1F1F1" points="417.8533,167.899,416.1161,172.6474,409.4855,176.2604,401.8774,179.86,395.5968,184.0407,383.7471,186.4244,372.9216,188.9858,360.2157,190.6385,346.2165,191.4304,334.0588,192.2421,317.569,190.9652,307.0464,190.8232,293.4372,188.8147,280.3428,186.0431,271.1676,183.5711,261.9488,180.108,255.0517,176.429,249.3419,172.2038,246.0161,167.8774,244.1419,163.2289,245.0145,158.7758,248.1808,154.4886,254.3872,150.7386,261.0321,146.8283,269.3404,143.3019,283.0167,141.5075,291.4053,138.1598,306.2724,137.2045,317.615,135.5554,333.6035,135.9798,346.2173,136.0061,357.6068,136.4277,372.0457,138.7039,383.3227,140.8891,393.1573,143.5739,401.839,146.8638,409.9427,150.9321,414.4894,154.7819,419.668,159.7062,418.7518,163.4543" style="stroke:#181818;stroke-width:0.5;"/><text fill="#000000" font-family="sans-serif" font-size="14" font-style="italic" lengthAdjust="spacing" textLength="110" x="275.4556" y="159.379">&#171;use-interaction&#187;</text><text fill="#000000" font-family="sans-serif" font-size="14" lengthAdjust="spacing" textLength="106" x="277.4556" y="176.9884">Login to Account</text></g><g id="elem_ValidateSubscription"><polygon fill="#F1F1F1" points="795.2793,167.7497,793.2404,172.329,785.4585,175.8134,776.5295,179.2848,769.1583,183.3167,755.2511,185.6156,742.546,188.0858,727.6339,189.6797,711.2041,190.4434,696.9354,191.2262,677.5824,189.9947,665.2328,189.8578,649.2606,187.9208,633.8926,185.2479,623.1243,182.8639,612.3048,179.524,604.2101,175.9759,597.509,171.9012,593.6057,167.7288,591.4061,163.2457,592.4302,158.9512,596.1463,154.8165,603.4303,151.2001,611.2289,147.429,620.9798,144.0281,637.0308,142.2976,646.8759,139.069,664.3244,138.1477,677.6364,136.5573,696.401,136.9666,711.205,136.9919,724.572,137.3986,741.518,139.5938,754.7531,141.7012,766.2953,144.2904,776.4844,147.4631,785.9952,151.3867,791.3312,155.0994,797.4091,159.8484,796.3338,163.4632" style="stroke:#181818;stroke-width:0.5;"/><text fill="#000000" font-family="sans-serif" font-size="14" font-style="italic" lengthAdjust="spacing" textLength="110" x="633.7659" y="158.877">&#171;use-interaction&#187;</text><text fill="#000000" font-family="sans-serif" font-size="14" lengthAdjust="spacing" textLength="133" x="622.2659" y="176.4864">Validate Subscription</text></g><g id="elem_ConfigureCamera"><polygon fill="#F1F1F1" points="415.8298,273.7395,414.1381,280.5967,407.6815,285.8144,400.2732,291.0125,394.1574,297.05,382.6187,300.4924,372.0773,304.1914,359.7049,306.5781,346.0731,307.7216,334.2345,308.8938,318.1775,307.0498,307.931,306.8447,294.679,303.9442,281.9283,299.9417,272.9939,296.3718,264.0171,291.3707,257.301,286.0577,251.7411,279.9562,248.5025,273.7082,246.6775,266.9953,247.5273,260.5645,250.6105,254.3732,256.6539,248.9579,263.1244,243.3109,271.2147,238.2183,284.532,235.627,292.7004,230.7925,307.1774,229.4129,318.2222,227.0314,333.7911,227.6442,346.0739,227.6822,357.1644,228.2912,371.2244,231.5783,382.2054,234.734,391.7819,238.6111,400.2358,243.3621,408.1268,249.2372,412.5541,254.7968,417.5968,261.9081,416.7047,267.3208" style="stroke:#181818;stroke-width:0.5;"/><text fill="#000000" font-family="sans-serif" font-size="14" font-style="italic" lengthAdjust="spacing" textLength="110" x="276.4234" y="254.5353">&#171;use-interaction&#187;</text><text fill="#000000" font-family="sans-serif" font-size="14" lengthAdjust="spacing" textLength="99" x="279.9234" y="272.1447">Provide camera</text><text fill="#000000" font-family="sans-serif" font-size="14" lengthAdjust="spacing" textLength="73" x="294.9234" y="289.7541">feed details</text></g><g id="elem_ConfigureFrame"><polygon fill="#F1F1F1" points="451.5105,373.8002,449.0862,378.3135,439.8336,381.7476,429.2169,385.1689,420.4526,389.1426,403.9169,391.4083,388.8105,393.8429,371.08,395.4138,351.5449,396.1664,334.5794,396.9379,311.5687,395.7242,296.8849,395.5893,277.894,393.6802,259.6214,391.0459,246.8179,388.6963,233.9535,385.4046,224.3289,381.9078,216.3612,377.8919,211.7201,373.7796,209.1048,369.3613,210.3225,365.1287,214.741,361.0538,223.4016,357.4895,232.6742,353.7728,244.268,350.421,263.3527,348.7155,275.0585,345.5335,295.8049,344.6255,311.6328,343.0581,333.944,343.4614,351.546,343.4864,367.4394,343.8872,387.5882,346.0507,403.3247,348.1277,417.0484,350.6796,429.1634,353.8065,440.4716,357.6734,446.8162,361.3326,454.0428,366.013,452.7643,369.5756" style="stroke:#181818;stroke-width:0.5;"/><text fill="#000000" font-family="sans-serif" font-size="14" font-style="italic" lengthAdjust="spacing" textLength="110" x="270.8071" y="363.6701">&#171;use-interaction&#187;</text><text fill="#000000" font-family="sans-serif" font-size="14" lengthAdjust="spacing" textLength="170" x="240.8071" y="381.2794">Configure Zones on Frame</text></g><g id="elem_CreateEvent"><polygon fill="#F1F1F1" points="415.9725,463.6251,414.2795,468.4067,407.8174,472.045,400.4027,475.6698,394.2817,479.8797,382.7332,482.2802,372.1829,484.8595,359.7999,486.5237,346.1566,487.3212,334.3079,488.1386,318.2372,486.8527,307.982,486.7097,294.7187,484.6872,281.9572,481.8962,273.0152,479.4068,264.0307,475.9195,257.3089,472.2147,251.7443,467.96,248.5029,463.6033,246.6764,458.9222,247.5269,454.438,250.6127,450.1207,256.6613,446.3446,263.1373,442.4069,271.2344,438.8557,284.5631,437.0488,292.7385,433.6777,307.2277,432.7156,318.282,431.055,333.8641,431.4823,346.1573,431.5088,357.2573,431.9335,371.3292,434.2256,382.3196,436.4261,391.9043,439.1297,400.3653,442.4425,408.263,446.5393,412.6941,450.4161,417.7411,455.3749,416.8482,459.1492" style="stroke:#181818;stroke-width:0.5;"/><text fill="#000000" font-family="sans-serif" font-size="14" font-style="italic" lengthAdjust="spacing" textLength="110" x="276.7454" y="455.0754">&#171;use-interaction&#187;</text><text fill="#000000" font-family="sans-serif" font-size="14" lengthAdjust="spacing" textLength="102" x="280.7454" y="472.6848">Create an event</text></g><g id="elem_ChooseSubscription"><polygon fill="#F1F1F1" points="814.7191,594.4406,812.2827,598.9745,802.9835,602.4243,792.3135,605.8613,783.5052,609.8531,766.8864,612.1292,751.7041,614.5749,733.8845,616.153,714.2512,616.909,697.2004,617.6841,674.0741,616.4648,659.3165,616.3293,640.2301,614.4115,621.8657,611.7651,608.9979,609.4047,596.0689,606.098,586.3959,602.5852,578.3882,598.5509,573.7238,594.4199,571.0953,589.9814,572.3191,585.7294,576.7598,581.6358,585.4639,578.0553,594.7832,574.3216,606.4352,570.9544,625.6158,569.2411,637.3804,566.0446,658.231,565.1324,674.1386,563.5578,696.5619,563.963,714.2523,563.9881,730.2256,564.3908,750.4756,566.5642,766.2912,568.6507,780.0839,571.2142,792.2597,574.3554,803.6248,578.24,810.0013,581.9159,817.2642,586.6178,815.9792,590.1966" style="stroke:#181818;stroke-width:0.5;"/><text fill="#000000" font-family="sans-serif" font-size="14" font-style="italic" lengthAdjust="spacing" textLength="110" x="633.51" y="584.1381">&#171;use-interaction&#187;</text><text fill="#000000" font-family="sans-serif" font-size="14" lengthAdjust="spacing" textLength="173" x="602.01" y="601.7475">Choose Subscription Model</text></g><g id="elem_MakePayment"><polygon fill="#F1F1F1" points="462.9926,644.9109,460.3418,649.8081,450.2242,653.5343,438.6151,657.2467,429.0315,661.5584,410.9501,664.0168,394.4317,666.6585,375.0438,668.363,353.6826,669.1797,335.1312,670.0168,309.9695,668.6999,293.9131,668.5534,273.147,666.482,253.1663,663.6236,239.166,661.0741,225.0991,657.5024,214.5748,653.7081,205.8624,649.3506,200.7875,644.8886,197.9277,640.0944,199.2592,635.5018,204.0907,631.0802,213.5609,627.2128,223.7003,623.1799,236.3778,619.5429,257.2464,617.6924,270.0465,614.2397,292.7321,613.2544,310.0397,611.5537,334.4365,611.9914,353.6838,612.0185,371.0628,612.4534,393.0951,614.8009,410.3026,617.0546,425.3092,619.8235,438.5566,623.2164,450.9219,627.4123,457.8596,631.3827,465.7617,636.4613,464.3636,640.3269" style="stroke:#181818;stroke-width:0.5;"/><text fill="#000000" font-family="sans-serif" font-size="14" font-style="italic" lengthAdjust="spacing" textLength="110" x="272.3904" y="631.6925">&#171;use-interaction&#187;</text><text fill="#000000" font-family="sans-serif" font-size="14" lengthAdjust="spacing" textLength="218" x="218.3904" y="649.3019">Make Payment for the subscription</text></g><g id="elem_ViewReactions"><polygon fill="#F1F1F1" points="423.3519,736.9032,421.5038,741.5787,414.45,745.1362,406.3565,748.6805,399.6751,752.797,387.0692,755.1441,375.5529,757.6662,362.0361,759.2935,347.1437,760.0732,334.2101,760.8725,316.668,759.6151,305.4739,759.4753,290.9962,757.4977,277.0662,754.7686,267.3056,752.3346,257.4985,748.9247,250.1612,745.3021,244.0871,741.1419,240.549,736.8819,238.5552,732.3048,239.4835,727.9201,242.8519,723.6987,249.4543,720.0063,256.5232,716.1561,265.3617,712.6838,279.9108,710.9169,288.8347,707.6207,304.6505,706.68,316.7169,705.0562,333.7257,705.4741,347.1445,705.5,359.2607,705.9152,374.6211,708.1564,386.6177,710.3081,397.0799,712.9516,406.3157,716.1909,414.9365,720.1968,419.7732,723.9875,425.2824,728.8362,424.3077,732.5267" style="stroke:#181818;stroke-width:0.5;"/><text fill="#000000" font-family="sans-serif" font-size="14" font-style="italic" lengthAdjust="spacing" textLength="110" x="273.0046" y="728.4482">&#171;use-interaction&#187;</text><text fill="#000000" font-family="sans-serif" font-size="14" lengthAdjust="spacing" textLength="116" x="270.0046" y="746.0575">View reaction data</text></g><g id="elem_DownloadReactions"><polygon fill="#F1F1F1" points="450.9398,825.6178,448.5314,830.1043,439.3392,833.518,428.7919,836.919,420.0848,840.869,403.6571,843.1213,388.6493,845.5414,371.0346,847.1029,351.6271,847.8511,334.7724,848.6181,311.9119,847.4115,297.324,847.2774,278.4571,845.3797,260.3039,842.761,247.584,840.4254,234.8036,837.1533,225.2418,833.6772,217.3262,829.6852,212.7154,825.5974,210.1172,821.2053,211.327,816.9979,215.7165,812.9471,224.3206,809.4041,233.5327,805.7095,245.0508,802.3775,264.0108,800.6822,275.6402,797.5191,296.251,796.6165,311.9757,795.0584,334.1412,795.4593,351.6282,795.4842,367.4178,795.8826,387.435,798.0332,403.0687,800.0979,416.7029,802.6346,428.7387,805.7429,439.9731,809.5868,446.2762,813.2243,453.4556,817.8769,452.1855,821.4183" style="stroke:#181818;stroke-width:0.5;"/><text fill="#000000" font-family="sans-serif" font-size="14" font-style="italic" lengthAdjust="spacing" textLength="110" x="270.8863" y="815.7131">&#171;use-interaction&#187;</text><text fill="#000000" font-family="sans-serif" font-size="14" lengthAdjust="spacing" textLength="166" x="242.8863" y="833.3225">Download reactions offline</text></g><g id="elem_ViewInsights"><polygon fill="#F1F1F1" points="410.8159,914.8868,409.2202,919.5598,403.1296,923.1155,396.1412,926.658,390.3721,930.7724,379.4875,933.1183,369.5437,935.6391,357.8726,937.2655,345.0136,938.0448,333.8461,938.8437,318.6993,937.587,309.0337,937.4473,296.5329,935.4706,284.505,932.743,276.0771,930.3102,267.6091,926.902,261.2737,923.2814,256.029,919.1233,252.974,914.8655,251.2525,910.2907,252.0541,905.9083,254.9625,901.6891,260.6633,897.9986,266.7671,894.1503,274.3987,890.6798,286.9611,888.914,294.6665,885.6194,308.3228,884.6792,318.7415,883.0563,333.4279,883.4739,345.0144,883.4998,355.4762,883.9148,368.7391,886.1549,379.0977,888.3054,388.1313,890.9476,396.1059,894.1852,403.5496,898.189,407.7259,901.9777,412.4828,906.8239,411.6412,910.5126" style="stroke:#181818;stroke-width:0.5;"/><text fill="#000000" font-family="sans-serif" font-size="14" font-style="italic" lengthAdjust="spacing" textLength="110" x="277.3735" y="907.6357">&#171;use-interaction&#187;</text><text fill="#000000" font-family="sans-serif" font-size="14" lengthAdjust="spacing" textLength="81" x="291.8735" y="925.2451">View Insights</text></g><g id="elem_CloseAccount"><polygon fill="#F1F1F1" points="422.1472,1004.9953,420.3214,1009.6843,413.3524,1013.2521,405.3562,1016.8067,398.7551,1020.9351,386.3008,1023.289,374.923,1025.8184,361.5688,1027.4504,346.8554,1028.2324,334.0773,1029.034,316.7461,1027.773,305.6866,1027.6328,291.3831,1025.6494,277.6206,1022.9125,267.9772,1020.4714,258.2881,1017.0515,251.039,1013.4185,245.038,1009.2463,241.5424,1004.9739,239.5726,1000.3835,240.4897,995.9861,243.8176,991.7525,250.3406,988.0495,257.3246,984.188,266.0568,980.7057,280.4309,978.9338,289.2475,975.6279,304.8732,974.6845,316.7945,973.0561,333.5988,973.4751,346.8562,973.5011,358.8267,973.9175,374.0024,976.1653,385.8548,978.3231,396.1912,980.9743,405.3159,984.223,413.833,988.2405,418.6116,992.0422,424.0545,996.9049,423.0916,1000.6061" style="stroke:#181818;stroke-width:0.5;"/><text fill="#000000" font-family="sans-serif" font-size="14" font-style="italic" lengthAdjust="spacing" textLength="110" x="273.3923" y="996.5282">&#171;use-interaction&#187;</text><text fill="#000000" font-family="sans-serif" font-size="14" lengthAdjust="spacing" textLength="114" x="271.3923" y="1014.1375">Close the account</text></g><g id="elem_RefundPayment"><polygon fill="#F1F1F1" points="792.654,1004.9169,790.6718,1009.5208,783.1063,1013.0239,774.4256,1016.514,767.2594,1020.5675,753.739,1022.8788,741.3872,1025.3623,726.8898,1026.9647,710.9169,1027.7325,697.045,1028.5195,678.2302,1027.2814,666.224,1027.1437,650.696,1025.1963,635.7554,1022.509,625.2866,1020.1122,614.768,1016.7544,606.8984,1013.1873,600.3836,1009.0907,596.5888,1004.8959,594.4504,1000.3888,595.4461,996.0712,599.0588,991.9143,606.1402,988.2785,613.722,984.4871,623.2017,981.0679,638.8063,979.3281,648.3776,976.0822,665.3409,975.1559,678.2827,973.5571,696.5255,973.9685,710.9178,973.994,723.913,974.4029,740.3877,976.6098,753.2548,978.7285,764.476,981.3317,774.3818,984.5214,783.628,988.466,788.8157,992.1987,794.7245,996.9732,793.6792,1000.6074" style="stroke:#181818;stroke-width:0.5;"/><text fill="#000000" font-family="sans-serif" font-size="14" font-style="italic" lengthAdjust="spacing" textLength="110" x="633.9938" y="996.2508">&#171;use-interaction&#187;</text><text fill="#000000" font-family="sans-serif" font-size="14" lengthAdjust="spacing" textLength="128" x="624.9938" y="1013.8602">Refund the payment</text></g><g id="elem_StartEvent"><polygon fill="#F1F1F1" points="446.8175,1107.0741,444.496,1113.4658,435.6354,1118.3293,425.4687,1123.1746,417.0758,1128.8022,401.2409,1132.0109,386.7748,1135.4588,369.7957,1137.6835,351.0885,1138.7494,334.842,1139.842,312.8065,1138.1231,298.745,1137.932,280.5589,1135.2284,263.0608,1131.4976,250.7999,1128.1701,238.4807,1123.5084,229.264,1118.5561,221.634,1112.8688,217.1896,1107.045,214.6851,1100.7877,215.8512,1094.7935,220.0824,1089.0224,228.376,1083.9747,237.2557,1078.7111,248.3581,1073.9642,266.6339,1071.5488,277.8437,1067.0425,297.7108,1065.7565,312.8679,1063.5367,334.2336,1064.1079,351.0896,1064.1434,366.3094,1064.711,385.6042,1067.7749,400.6738,1070.7164,413.816,1074.3304,425.4174,1078.7588,436.2464,1084.2351,442.3221,1089.4173,449.2425,1096.0458,448.0181,1101.0911" style="stroke:#181818;stroke-width:0.5;"/><text fill="#000000" font-family="sans-serif" font-size="14" font-style="italic" lengthAdjust="spacing" textLength="110" x="262.1997" y="1088.2848">&#171;use-interaction&#187;</text><text fill="#000000" font-family="sans-serif" font-size="14" lengthAdjust="spacing" textLength="156" x="237.1997" y="1105.8942">Start gathering reactions</text><text fill="#000000" font-family="sans-serif" font-size="14" lengthAdjust="spacing" textLength="91" x="271.6997" y="1123.5035">from the event</text></g><g id="elem_LoadConfiguration"><polygon fill="#F1F1F1" points="805.589,1094.4709,803.3403,1099.0092,794.7579,1102.4624,784.9103,1105.9028,776.7808,1109.8986,761.4429,1112.1769,747.4307,1114.625,730.9845,1116.2046,712.8645,1116.9614,697.1278,1117.7373,675.7839,1116.5168,662.1638,1116.3811,644.5485,1114.4614,627.5995,1111.8124,615.7234,1109.4497,603.7909,1106.1398,594.8634,1102.6235,587.4729,1098.5853,583.168,1094.4502,580.7421,1090.0073,581.8716,1085.7512,585.97,1081.6535,594.0033,1078.0695,602.6043,1074.3321,613.3583,1070.9616,631.0605,1069.2466,641.9184,1066.047,661.162,1065.1339,675.8434,1063.5578,696.5385,1063.9634,712.8655,1063.9885,727.6076,1064.3915,746.2969,1066.5671,760.8936,1068.6556,773.6232,1071.2217,784.8606,1074.366,795.3497,1078.2544,801.2348,1081.9339,807.9379,1086.6404,806.752,1090.2227" style="stroke:#181818;stroke-width:0.5;"/><text fill="#000000" font-family="sans-serif" font-size="14" font-style="italic" lengthAdjust="spacing" textLength="115" x="630.9854" y="1085.216">&#171;system-process&#187;</text><text fill="#000000" font-family="sans-serif" font-size="14" lengthAdjust="spacing" textLength="150" x="613.4854" y="1102.8254">Load feed configuration</text></g><g id="elem_ProcessFeed"><polygon fill="#F1F1F1" points="777.1652,1198.6622,775.4954,1205.4345,769.1221,1210.5875,761.8093,1215.7214,755.7724,1221.6841,744.3825,1225.0839,733.9771,1228.737,721.7642,1231.0942,708.3083,1232.2236,696.6223,1233.3813,680.7724,1231.56,670.6581,1231.3575,657.577,1228.4929,644.9907,1224.54,636.1716,1221.0143,627.3105,1216.0751,620.681,1210.8279,615.1929,1204.8019,611.996,1198.6313,610.1946,1192.0014,611.0334,1185.6503,614.0768,1179.5356,620.0423,1174.1874,626.4294,1168.6103,634.4153,1163.5807,647.5609,1161.0215,655.6239,1156.2469,669.9142,1154.8844,680.8166,1152.5324,696.1847,1153.1376,708.309,1153.1751,719.2565,1153.7766,733.1351,1157.023,743.9746,1160.1396,753.4276,1163.9687,761.7724,1168.6608,769.5616,1174.4632,773.9318,1179.954,778.9095,1186.9772,778.0289,1192.323" style="stroke:#181818;stroke-width:0.5;"/><text fill="#000000" font-family="sans-serif" font-size="14" font-style="italic" lengthAdjust="spacing" textLength="115" x="637.5814" y="1180.802">&#171;system-process&#187;</text><text fill="#000000" font-family="sans-serif" font-size="14" lengthAdjust="spacing" textLength="75" x="655.5814" y="1198.4114">Process the</text><text fill="#000000" font-family="sans-serif" font-size="14" lengthAdjust="spacing" textLength="91" x="649.5814" y="1216.0208">feed  real-time</text></g><g id="elem_IdentifyPerson"><polygon fill="#F1F1F1" points="1175.1106,1114.915,1172.5896,1119.5922,1162.9676,1123.1511,1151.9272,1126.6967,1142.813,1130.8147,1125.6173,1133.1627,1109.9079,1135.6857,1091.4697,1137.3136,1071.1548,1138.0936,1053.5121,1138.8932,1029.5829,1137.6354,1014.313,1137.4955,994.5641,1135.5171,975.5621,1132.7871,962.2476,1130.3521,948.8697,1126.9409,938.8609,1123.3171,930.5752,1119.1553,925.7489,1114.8937,923.0292,1110.3149,924.2955,1105.9286,928.8903,1101.7056,937.8966,1098.0119,947.5394,1094.1602,959.596,1090.6866,979.4424,1088.9191,991.6154,1085.6216,1013.1899,1084.6806,1029.6497,1083.0562,1052.8514,1083.4742,1071.156,1083.5001,1087.6838,1083.9155,1108.6368,1086.1576,1125.0014,1088.31,1139.273,1090.9545,1151.8715,1094.1951,1163.6311,1098.2024,1170.229,1101.9945,1177.744,1106.845,1176.4144,1110.5369" style="stroke:#181818;stroke-width:0.5;"/><text fill="#000000" font-family="sans-serif" font-size="14" font-style="italic" lengthAdjust="spacing" textLength="115" x="987.6913" y="1103.7436">&#171;system-process&#187;</text><text fill="#000000" font-family="sans-serif" font-size="14" lengthAdjust="spacing" textLength="190" x="950.1913" y="1121.353">Detect and identify the person</text></g><g id="elem_CaptureReaction"><polygon fill="#F1F1F1" points="1152.4223,1204.9302,1150.3567,1209.5361,1142.4732,1213.0407,1133.4275,1216.5322,1125.96,1220.5875,1111.8711,1222.8997,1099,1225.3843,1083.893,1226.9874,1067.2485,1227.7555,1052.7934,1228.5429,1033.1876,1227.3042,1020.6766,1227.1665,1004.4957,1225.2183,988.9269,1222.5298,978.0179,1220.132,967.0571,1216.7728,958.8566,1213.2042,952.0679,1209.1058,948.1136,1204.9092,945.8853,1200.4002,946.9228,1196.0807,950.6874,1191.9221,958.0665,1188.2847,965.9671,1184.4917,975.8454,1181.0711,992.1061,1179.3305,1002.0798,1176.0833,1019.7563,1175.1566,1033.2422,1173.557,1052.2521,1173.9686,1067.2495,1173.9942,1080.7911,1174.4032,1097.9585,1176.6111,1111.3665,1178.7307,1123.0596,1181.335,1133.3818,1184.5261,1143.0168,1188.4723,1148.4226,1192.2066,1154.5799,1196.9832,1153.4906,1200.6188" style="stroke:#181818;stroke-width:0.5;"/><text fill="#000000" font-family="sans-serif" font-size="14" font-style="italic" lengthAdjust="spacing" textLength="115" x="987.0361" y="1196.2485">&#171;system-process&#187;</text><text fill="#000000" font-family="sans-serif" font-size="14" lengthAdjust="spacing" textLength="130" x="977.5361" y="1213.8578">Capture the reaction</text></g><g id="elem_ValidateReaction"><polygon fill="#F1F1F1" points="1555.4605,1136.5727,1553.4399,1141.1996,1545.728,1144.7201,1536.8793,1148.2275,1529.5744,1152.3012,1515.7922,1154.624,1503.2014,1157.1198,1488.4233,1158.7302,1472.1413,1159.5018,1458.0008,1160.2928,1438.8219,1159.0485,1426.5833,1158.9102,1410.7547,1156.9531,1395.5249,1154.2524,1384.8535,1151.8437,1374.1313,1148.4692,1366.1094,1144.8843,1359.4685,1140.7673,1355.6002,1136.5516,1353.4204,1132.0221,1354.4353,1127.683,1358.118,1123.5054,1365.3365,1119.8515,1373.065,1116.0412,1382.7282,1112.605,1398.6349,1110.8566,1408.3914,1107.5945,1425.6831,1106.6636,1438.8754,1105.0568,1457.4713,1105.4703,1472.1422,1105.4959,1485.389,1105.9068,1502.1826,1108.1248,1515.2986,1110.254,1526.7371,1112.8701,1536.8346,1116.0757,1546.2598,1120.04,1551.5479,1123.7912,1557.5711,1128.5895,1556.5055,1132.2417" style="stroke:#181818;stroke-width:0.5;"/><text fill="#000000" font-family="sans-serif" font-size="14" font-style="italic" lengthAdjust="spacing" textLength="115" x="1392.3368" y="1128.0642">&#171;system-process&#187;</text><text fill="#000000" font-family="sans-serif" font-size="14" lengthAdjust="spacing" textLength="130" x="1384.8368" y="1145.6736">Validate the reaction</text></g><g id="elem_SaveReaction"><polygon fill="#F1F1F1" points="1548.7088,1227.5739,1546.8218,1232.2744,1539.6197,1235.851,1531.3559,1239.4144,1524.5339,1243.553,1511.6628,1245.9127,1499.9043,1248.4483,1486.1032,1250.0844,1470.8975,1250.8682,1457.6918,1251.6718,1439.7807,1250.4077,1428.3512,1250.2671,1413.569,1248.2789,1399.346,1245.5352,1389.38,1243.0881,1379.3666,1239.6598,1371.875,1236.0179,1365.6731,1231.8353,1362.0605,1227.5524,1360.0248,1222.9507,1360.9727,1218.5425,1364.4119,1214.2984,1371.1532,1210.5863,1378.3708,1206.7153,1387.3952,1203.2244,1402.2503,1201.4481,1411.3619,1198.1341,1427.5105,1197.1884,1439.8307,1195.556,1457.1973,1195.976,1470.8983,1196.0021,1483.2694,1196.4195,1498.9529,1198.6728,1511.2019,1200.836,1521.8842,1203.4937,1531.3142,1206.7504,1540.1164,1210.7778,1545.0549,1214.5888,1550.6799,1219.4635,1549.6847,1223.1739" style="stroke:#181818;stroke-width:0.5;"/><text fill="#000000" font-family="sans-serif" font-size="14" font-style="italic" lengthAdjust="spacing" textLength="115" x="1394.7005" y="1219.0965">&#171;system-process&#187;</text><text fill="#000000" font-family="sans-serif" font-size="14" lengthAdjust="spacing" textLength="118" x="1393.2005" y="1236.7058">Saves the reaction</text></g><g id="elem_GenerateInsights"><polygon fill="#F1F1F1" points="786.1124,904.6363,784.2617,911.4048,777.1979,916.555,769.0929,921.6859,762.4019,927.6452,749.7781,931.0431,738.2455,934.6942,724.7095,937.0501,709.7959,938.1788,696.8439,939.3359,679.2769,937.5156,668.0669,937.3133,653.5687,934.4503,639.6189,930.4996,629.8444,926.9759,620.0233,922.0394,612.6756,916.7952,606.5929,910.7725,603.0498,904.6054,601.0532,897.9793,601.9828,891.6317,605.356,885.5205,611.9677,880.1752,619.0467,874.6013,627.8978,869.5746,642.4675,867.0168,651.404,862.2449,667.2424,860.8831,679.3259,858.5325,696.3589,859.1373,709.7967,859.1748,721.9302,859.7759,737.3123,863.0205,749.326,866.1354,759.8031,869.9624,769.052,874.6518,777.6851,880.451,782.5287,885.9386,788.0457,892.9579,787.0696,898.3006" style="stroke:#181818;stroke-width:0.5;"/><text fill="#000000" font-family="sans-serif" font-size="14" font-style="italic" lengthAdjust="spacing" textLength="115" x="634.3861" y="885.5112">&#171;system-process&#187;</text><text fill="#000000" font-family="sans-serif" font-size="14" lengthAdjust="spacing" textLength="112" x="633.8861" y="903.1205">Generate insights</text><text fill="#000000" font-family="sans-serif" font-size="14" lengthAdjust="spacing" textLength="78" x="652.8861" y="920.7299">on reactions</text></g><g id="elem_HandlePayment"><polygon fill="#F1F1F1" points="1148.0325,980.7285,1146.0566,985.3782,1138.515,988.9162,1129.8618,992.441,1122.7182,996.5349,1109.2405,998.8692,1096.9278,1001.3774,1082.4762,1002.9957,1066.5537,1003.7712,1052.7257,1004.566,1033.9704,1003.3156,1022.0021,1003.1765,1006.5232,1001.2098,991.6298,998.4957,981.194,996.0751,970.7087,992.6839,962.864,989.0813,956.3698,984.9439,952.587,980.7073,950.4553,976.1553,951.4478,971.7947,955.0492,967.5965,962.1081,963.9245,969.666,960.0953,979.1157,956.6421,994.671,954.885,1004.2121,951.6069,1021.1218,950.6713,1034.0227,949.0565,1052.2078,949.4721,1066.5546,949.4978,1079.5088,949.9107,1095.9315,952.1397,1108.7578,954.2795,1119.9436,956.9085,1129.8181,960.13,1139.0351,964.1139,1144.2064,967.8837,1150.0966,972.7058,1149.0545,976.3761" style="stroke:#181818;stroke-width:0.5;"/><text fill="#000000" font-family="sans-serif" font-size="14" font-style="italic" lengthAdjust="spacing" textLength="115" x="987.6523" y="972.2963">&#171;system-process&#187;</text><text fill="#000000" font-family="sans-serif" font-size="14" lengthAdjust="spacing" textLength="126" x="982.1523" y="989.9057">Handle the payment</text></g><!--link Client to OpenAccount--><g id="link_Client_OpenAccount"><path d="M57.27,518.2994 L57.3634,518.3018 L57.1839,514.5192 L57.5519,510.7509 L57.7416,506.9779 L57.3451,503.1897 L57.7601,499.4226 L57.7256,499.421 L57.772,495.1737 L57.9923,490.9347 L58.3335,486.7014 L58.258,482.4483 L58.7661,478.223 L59.0117,478.2389 L58.634,475.9308 L58.9733,473.6691 L59.4,471.4132 L59.3178,469.1242 L59.5033,466.8526 L59.5335,466.8549 L59.6721,464.4854 L59.9484,462.1265 L60.1583,459.7625 L60.4948,457.4082 L60.4183,455.0221 L60.7153,455.049 L60.9408,452.5992 L60.9747,450.1321 L61.289,447.6904 L61.6165,445.2498 L61.5275,442.7716 L61.2087,442.7383 L62.0913,440.2769 L61.9242,437.7058 L62.5552,435.2181 L62.3643,432.6446 L62.847,430.1414 L62.8168,430.1378 L63.4836,427.5865 L63.444,424.951 L63.8213,422.3651 L64.2335,419.7834 L64.3933,417.1717 L64.5767,417.1964 L64.7495,414.5176 L65.2355,411.8811 L65.2148,409.1762 L65.95,406.5733 L66.1826,403.9026 L66.4235,403.9391 L66.7877,401.2265 L67.2714,398.5321 L67.1995,395.7535 L67.5349,393.0366 L68.2312,390.3744 L67.9589,390.3284 L68.6702,387.6206 L69.0747,384.861 L69.9243,382.1766 L70.014,379.3637 L70.5554,376.6272 L70.4055,376.5991 L71.1783,373.8608 L71.3105,371.0022 L71.8982,368.2291 L72.9317,365.5398 L73.1714,362.7013 L73.361,362.7408 L74.0759,359.9549 L74.2011,357.0464 L75.0648,354.2916 L75.7677,351.5032 L76.0956,348.6369 L75.891,348.59 L76.7039,345.7948 L77.4497,342.9843 L78.3272,340.204 L78.6928,337.3062 L79.3443,334.4741 L79.5437,334.5244 L79.8236,331.5697 L80.4882,328.712 L81.715,325.9963 L81.9069,323.0193 L82.9338,320.2531 L83.1517,320.3135 L83.8115,317.4299 L84.3976,314.5258 L85.1501,311.6678 L86.2874,308.9164 L86.8802,306.0142 L86.7529,305.9755 L87.9959,303.2473 L88.3731,300.2561 L89.7347,297.564 L90.542,294.7034 L91.2,291.7975 L91.3033,291.8319 L92.1618,288.9733 L93.3902,286.2378 L94.2844,283.3911 L95.0389,280.4979 L95.9094,277.6433 L96.0215,277.684 L96.8781,274.8131 L98.2548,272.1316 L99.0433,269.2359 L100.0738,266.4282 L101.0248,263.5917 L100.7736,263.4916 L101.965,260.7433 L103.459,258.1154 L104.5248,255.317 L105.4371,252.4576 L106.5623,249.6829 L106.431,249.6257 L107.6683,246.8989 L108.6731,244.0708 L110.317,241.521 L111.6445,238.8335 L112.5384,235.9571 L112.7496,236.0577 L114.1034,233.3894 L115.0558,230.53 L116.4319,227.8723 L117.5275,225.081 L118.9692,222.4546 L119.0811,222.5129 L120.4468,219.8575 L121.9477,217.2724 L123.0198,214.4639 L124.4377,211.8357 L125.8711,209.2155 L126.0422,209.3132 L127.5679,206.7534 L128.629,203.9283 L130.2298,201.4114 L131.8401,198.9 L133.2604,196.28 L133.0303,196.1358 L134.972,193.8451 L136.5147,191.3042 L137.9582,188.7012 L139.6283,186.2402 L141.1533,183.6883 L141.42,183.8721 L142.7214,181.1679 L144.6337,178.8847 L146.3056,176.4357 L147.926,173.9514 L149.5662,171.4806 L149.6161,171.5185 L151.3962,169.1544 L152.9249,166.5995 L154.7938,164.3028 L156.5621,161.9298 L158.5153,159.6972 L158.537,159.7154 L160.4456,157.4585 L162.371,155.2158 L164.1172,152.8226 L166.0936,150.6226 L168.0169,148.3781 L167.9778,148.3417 L170.2187,146.3899 L172.1839,144.1815 L173.9013,141.7424 L176.0496,139.7045 L178.0874,137.5637 L177.9094,137.3789 L180.3075,135.602 L182.5373,133.6505 L184.6487,131.5761 L186.4776,129.2086 L188.743,127.294 L188.8775,127.4503 L190.7791,125.1068 L193.3038,123.4876 L195.4104,121.3824 L197.7766,119.5789 L200,117.6094 L200.0635,117.6953 L202.579,115.9634 L204.7183,113.7227 L207.4884,112.3351 L209.8641,110.4142 L212.2713,108.5358 L212.3521,108.6714 L214.9081,107.3509 L217.2059,105.5973 L219.7113,104.1918 L222.1866,102.7361 L224.6048,101.1843 L224.6419,101.2637 L227.2052,99.9664 L229.9399,99.0353 L232.2916,97.2862 L235.1136,96.5416 L237.6077,95.0966 L237.5114,94.8365 L240.3802,93.8149 L243.3256,93.0003 L246.1797,91.9389 L248.9552,90.6652 L251.8871,89.8142 " fill="none" style="stroke:#181818;stroke-width:1.0;"/><polygon fill="#181818" points="257.58,87.9194,257.5868,87.9891,255.6061,87.5913,253.6652,87.6023,251.7113,87.4801,249.7149,86.9202,247.7774,86.9663,247.7658,86.9432,248.7254,87.3456,249.7435,87.8648,250.8023,88.4652,251.721,88.7859,252.8359,89.4984,253.0009,89.581,252.1416,90.4161,251.7641,91.4923,251.4454,92.598,250.7846,93.5324,250.3038,94.5569,250.3191,94.5737,251.7519,93.2215,253.2544,91.9459,254.7232,90.6333,256.2563,89.3911,257.58,87.9194" style="stroke:#181818;stroke-width:1.0;"/><text fill="#000000" font-family="sans-serif" font-size="13" lengthAdjust="spacing" textLength="30" x="139" y="149.1045">Does</text></g><!--link Client to Login--><g id="link_Client_Login"><path d="M63.23,518.5194 L63.3223,518.5335 L63.5133,515.4383 L64.2457,512.4257 L64.8017,509.3863 L64.7781,506.2585 L65.5569,503.2529 L65.5229,503.2471 L65.9488,499.8645 L66.5462,496.5115 L67.263,493.1791 L67.5687,489.7758 L68.4502,486.4718 L68.6917,486.5188 L68.8784,482.801 L69.7703,479.2204 L70.7482,475.6564 L71.2256,471.9952 L71.9662,468.3851 L71.9958,468.3916 L72.7914,464.5455 L73.7218,460.7288 L74.5872,456.898 L75.5767,453.0943 L76.1614,449.202 L76.451,449.2732 L77.4407,445.26 L78.2436,441.2009 L79.3199,437.209 L80.4091,433.2202 L81.0921,429.1316 L80.7825,429.0487 L81.9352,427.1491 L82.0683,424.9765 L82.9766,423.0115 L83.0866,420.8327 L83.8509,418.8291 L83.8216,418.8208 L84.7608,416.8298 L85.0156,414.6448 L85.6742,412.5743 L86.3668,410.5134 L86.8147,408.3831 L86.9919,408.4364 L87.4483,406.27 L88.2073,404.1946 L88.4767,401.9719 L89.4765,399.9689 L89.9906,397.8199 L90.2228,397.8939 L90.8579,395.749 L91.6082,393.6409 L91.8231,391.3621 L92.4305,389.2084 L93.3857,387.1656 L93.124,387.0772 L94.0851,385.0133 L94.7514,382.8499 L95.8453,380.8309 L96.2091,378.5653 L97.0068,376.4463 L96.8633,376.3948 L97.8732,374.3288 L98.2696,372.043 L99.1023,369.9136 L100.3619,367.937 L100.8613,365.6881 L101.0422,365.7569 L101.9853,363.65 L102.3654,361.329 L103.4507,359.276 L104.3823,357.1647 L104.9559,354.9173 L104.7612,354.8387 L105.7848,352.7499 L106.7446,350.6353 L107.8297,348.5713 L108.4278,346.3107 L109.2979,344.16 L109.4868,344.241 L109.991,341.9194 L110.8598,339.7542 L112.2614,337.8175 L112.6821,335.4602 L113.8942,333.4422 L114.1,333.5361 L114.9493,331.3499 L115.729,329.132 L116.6658,326.9857 L117.9659,325.0052 L118.752,322.7902 L118.6323,322.7321 L120.0139,320.793 L120.5815,318.4588 L122.0746,316.5739 L123.0466,314.4361 L123.8782,312.23 L123.9749,312.2801 L124.9772,310.1513 L126.3257,308.2016 L127.3614,306.0901 L128.2663,303.9109 L129.2799,301.7879 L129.3842,301.8455 L130.366,299.7004 L131.8323,297.8226 L132.7507,295.6424 L133.8944,293.5866 L134.9641,291.49 L134.7312,291.3526 L136.0038,289.373 L137.5568,287.5588 L138.7129,285.5104 L139.7268,283.3782 L140.938,281.3623 L140.8169,281.2859 L142.1098,279.3242 L143.1883,277.2271 L144.8561,275.502 L146.2323,273.5929 L147.2085,271.4312 L147.4022,271.5623 L148.779,269.6626 L149.7878,267.5136 L151.1851,265.6277 L152.3252,263.5677 L153.7826,261.7226 L153.8847,261.7968 L155.2483,259.8951 L156.7351,258.0831 L157.8311,255.9866 L159.2423,254.1195 L160.6676,252.2627 L160.8227,252.3843 L162.3065,250.5813 L163.3694,248.4481 L164.9214,246.6985 L166.482,244.9556 L167.8703,243.0777 L167.6632,242.9022 L169.4956,241.4025 L170.9688,239.5983 L172.3527,237.7184 L173.9406,236.0114 L175.3978,234.1937 L175.6364,234.4128 L176.8673,232.3883 L178.6447,230.8657 L180.207,229.1455 L181.7233,227.3831 L183.2573,225.6369 L183.3016,225.6812 L184.9326,224.0319 L186.3404,222.1594 L188.0503,220.5889 L189.6709,218.9291 L191.4557,217.4334 L191.4748,217.4544 L193.191,215.8975 L194.9219,214.3568 L196.4949,212.6436 L198.2709,211.1521 L200,209.6094 L199.9669,209.5674 L202.6153,207.8707 L205.0303,205.8784 L207.2354,203.6204 L209.8054,201.8245 L212.2819,199.91 L212.146,199.6924 L214.8492,198.4579 L217.424,197.0178 L219.9084,195.4329 L222.1771,193.5026 L224.7791,192.106 L224.8686,192.2918 L227.2898,190.5305 L230.1256,189.63 L232.6832,188.1519 L235.4135,187.0325 L238.0488,185.7157 L238.0862,185.8157 L241.0421,184.8206 L243.7765,183.2327 L246.8824,182.6387 L249.756,181.4234 L252.6482,180.2576 " fill="none" style="stroke:#181818;stroke-width:1.0;"/><polygon fill="#181818" points="258.34,178.3594,258.3467,178.4291,256.3661,178.0325,254.4249,178.0446,252.4709,177.9236,250.4746,177.3649,248.5368,177.4121,248.5252,177.3889,249.4852,177.7908,250.5037,178.3094,251.5627,178.9092,252.4818,179.2292,253.5968,179.9412,253.7619,180.0237,252.9031,180.8593,252.5262,181.9357,252.2082,183.0416,251.548,183.9764,251.0677,185.0012,251.0831,185.018,252.515,183.665,254.0168,182.3884,255.4848,181.075,257.0172,179.8319,258.34,178.3594" style="stroke:#181818;stroke-width:1.0;"/><text fill="#000000" font-family="sans-serif" font-size="13" lengthAdjust="spacing" textLength="30" x="139" y="244.1045">Does</text></g><!--link Login to ValidateSubscription--><g id="link_Login_ValidateSubscription"><path d="M419.85,163.6094 L419.85,163.8896 L429.6641,163.0569 L439.4782,163.8671 L449.2924,164.1423 L459.1065,162.6582 L468.9206,163.5058 L478.7347,163.0407 L488.5488,163.098 L498.3629,163.5185 L508.1771,162.6875 L517.9912,164.3476 L527.8053,162.769 L537.6194,163.3457 L547.4335,164.1853 L557.2476,163.495 L567.0618,163.7004 L576.8759,163.5668 L586.69,163.6094 " fill="none" style="stroke:#181818;stroke-width:1.0;"/><polygon fill="#181818" points="592.69,163.6094,592.7185,163.6734,590.8339,162.6832,589.1162,162.0683,587.3441,161.3311,585.3934,160.1921,583.69,159.6094,583.6717,159.5911,584.3895,160.3088,585.1996,161.119,586.0739,161.9933,586.727,162.6464,587.69,163.6094,587.8205,163.7399,586.7414,164.2608,586.0434,165.1628,585.3918,166.1112,584.4698,166.7892,583.69,167.6094,583.6992,167.6302,585.4857,166.7996,587.3142,166.0638,589.1224,165.2822,590.9693,164.5878,592.69,163.6094" style="stroke:#181818;stroke-width:1.0;"/><text fill="#000000" font-family="sans-serif" font-size="13" lengthAdjust="spacing" textLength="30" x="504" y="160.1045">Uses</text></g><!--link Client to ConfigureCamera--><g id="link_Client_ConfigureCamera"><path d="M74.52,518.4694 L74.6069,518.5037 L75.1835,516.2916 L76.2694,514.2809 L77.1895,512.2046 L77.5642,509.9126 L78.6938,507.9193 L78.6619,507.906 L79.449,505.6019 L80.397,503.3644 L81.4569,501.1733 L82.1313,498.8224 L83.3455,496.6953 L83.5712,496.7934 L84.1151,494.2242 L85.3178,491.9416 L86.6008,489.694 L87.4163,487.2429 L88.4776,484.8988 L88.5052,484.9114 L89.5877,482.4394 L90.7957,480.0249 L91.9432,477.5826 L93.2062,475.1932 L94.0925,472.6314 L94.3611,472.7611 L95.5844,470.2352 L96.6344,467.6258 L97.9381,465.1388 L99.2536,462.6575 L100.1925,459.9944 L99.907,459.8487 L101.7786,457.5505 L102.7102,454.7725 L104.3564,452.3593 L105.2666,449.5703 L106.7801,447.0894 L106.7533,447.0749 L108.4854,444.6319 L109.592,441.8503 L111.0678,439.2686 L112.5744,436.7036 L113.8576,434.0176 L114.0179,434.11 L115.3701,431.3893 L116.9962,428.8265 L118.1791,426.0084 L120.023,423.5711 L121.4275,420.8806 L121.635,421.0083 L123.2087,418.364 L124.8854,415.7831 L126.0835,412.9076 L127.6324,410.2481 L129.4922,407.7799 L129.2617,407.6276 L131.1827,405.1728 L132.844,402.5465 L134.882,400.1689 L136.2768,397.3666 L138.054,394.8167 L137.9298,394.7283 L139.9489,392.3308 L141.4371,389.5552 L143.3029,387.0485 L145.538,384.8048 L147.1154,382.0927 L147.2686,382.2111 L149.2864,379.8155 L150.8275,377.0519 L152.9657,374.7493 L154.9738,372.3463 L156.6787,369.7092 L156.5182,369.5739 L158.6597,367.2935 L160.7487,364.9687 L162.9409,362.731 L164.7315,360.1548 L166.7465,357.7677 L166.8972,357.9075 L168.681,355.3207 L170.7556,353.0037 L173.2553,351.0811 L174.9725,348.4325 L177.321,346.3696 L177.4785,346.5319 L179.6017,344.2849 L181.6716,341.9828 L183.8618,339.8048 L186.33,337.9133 L188.4047,335.6163 L188.3178,335.5156 L190.8956,333.8141 L192.8823,331.4276 L195.5412,329.8199 L197.8216,327.7737 L200,325.6094 L200.0653,325.6965 L202.7194,323.5974 L205.6073,321.8103 L208.284,319.7413 L210.8723,317.5546 L213.534,315.4656 L213.5977,315.5664 L216.2222,313.6974 L219.1425,312.2962 L221.7283,310.3659 L224.4517,308.6533 L227.1298,306.8692 L227.0032,306.6303 L229.8787,305.2086 L232.9066,304.0747 L235.7188,302.5337 L238.4535,300.8466 L241.2956,299.3621 L241.2368,299.2315 L244.3044,297.8982 L247.2679,296.3338 L250.5178,295.4047 L253.626,294.1612 L256.5396,292.4864 " fill="none" style="stroke:#181818;stroke-width:1.0;"/><polygon fill="#181818" points="262.07,290.1594,262.0714,290.2294,260.0979,289.982,258.1325,290.1453,256.1645,290.1748,254.1877,289.7646,252.2231,289.9631,252.2133,289.9391,253.2171,290.2585,254.2702,290.6989,255.3575,291.2233,256.3267,291.4581,257.4614,292.0986,257.6323,292.1683,256.8397,293.0669,256.5461,294.169,256.3134,295.2959,255.7265,296.2784,255.3258,297.3369,255.3424,297.3524,256.6669,295.8941,258.0669,294.5066,259.4304,293.085,260.8634,291.7286,262.07,290.1594" style="stroke:#181818;stroke-width:1.0;"/><text fill="#000000" font-family="sans-serif" font-size="13" lengthAdjust="spacing" textLength="30" x="139" y="354.1045">Does</text></g><!--link Client to ConfigureFrame--><g id="link_Client_ConfigureFrame"><path d="M91.77,518.5694 L91.8433,518.6273 L93.6944,515.8382 L95.9751,513.3888 L98.1159,510.8287 L99.7967,507.905 L102.1143,505.4846 L102.0878,505.4625 L104.258,502.6195 L106.562,499.888 L108.9588,497.234 L111.0354,494.3128 L113.5606,491.7659 L113.7447,491.9292 L115.8415,488.7719 L118.4758,486.0913 L121.1756,483.4689 L123.4939,480.508 L126.0129,477.7252 L126.0349,477.7461 L128.675,474.9052 L131.4152,472.1595 L134.1072,469.3679 L136.8912,466.6639 L139.375,463.6744 L139.5826,463.8885 L142.4204,461.1413 L145.1241,458.256 L148.024,455.5729 L150.933,452.8993 L153.5509,449.9254 L153.3388,449.685 L156.729,447.5246 L159.4211,444.5725 L162.6439,442.2223 L165.3201,439.2523 L168.4444,436.7903 L168.4255,436.7664 L171.7512,434.6075 L174.637,431.8896 L177.7824,429.5015 L180.9495,427.1411 L183.9595,424.581 L184.0639,424.7337 L187.1666,422.3852 L190.4477,420.2977 L193.4402,417.788 L196.8632,415.908 L200,413.6094 L200.1247,413.8187 L202.3768,412.4237 L204.6909,411.1326 L206.7173,409.3586 L208.9546,407.9385 L211.3787,406.8321 L211.2516,406.5869 L213.5613,405.6713 L215.7279,404.4794 L218.1022,403.6882 L220.1218,402.2128 L222.3522,401.1442 L222.2908,401.0046 L224.6636,400.2374 L226.7737,398.8737 L229.0707,397.9342 L231.5503,397.4098 L233.7046,396.1462 L233.7727,396.3275 L236.3225,395.5103 L238.6602,394.1295 L241.2635,393.4547 L243.8089,392.626 L246.2195,391.439 " fill="none" style="stroke:#181818;stroke-width:1.0;"/><polygon fill="#181818" points="251.88,389.4494,251.8856,389.5192,249.9055,389.1539,247.9583,389.1979,246.0004,389.1086,244.0072,388.5809,242.0628,388.6601,242.0516,388.6367,243.0213,389.0214,244.0475,389.5238,245.113,390.108,246.0432,390.4101,247.1629,391.1074,247.3293,391.1872,246.484,392.0365,246.1246,393.1189,245.8243,394.2297,245.1793,395.1751,244.7156,396.2075,244.7312,396.224,246.1412,394.8481,247.6222,393.5475,249.0689,392.2106,250.5811,390.943,251.88,389.4494" style="stroke:#181818;stroke-width:1.0;"/><text fill="#000000" font-family="sans-serif" font-size="13" lengthAdjust="spacing" textLength="30" x="139" y="434.1045">Does</text></g><!--link Client to CreateEvent--><g id="link_Client_CreateEvent"><path d="M108.42,531.4294 L108.4664,531.5104 L111.2602,529.5901 L114.3262,528.1449 L117.3035,526.545 L119.9894,524.4363 L123.0788,523.0319 L123.0634,523.001 L125.9786,521.3777 L128.9713,519.9103 L132.018,518.5513 L134.8789,516.8188 L138,515.6094 L138.0978,515.8352 L140.8381,514.0744 L143.8639,512.9728 L146.9247,511.9516 L149.7826,510.4625 L152.7472,509.2195 L152.7584,509.2477 L155.7038,508.026 L158.7003,506.9327 L161.6721,505.7774 L164.691,504.7403 L167.5565,503.3182 L167.6594,503.5981 L170.6252,502.5125 L173.5247,501.2464 L176.5213,500.2445 L179.5224,499.2551 L182.3794,497.8731 L182.2763,497.5696 L185.4339,497.1544 L188.2522,495.7398 L191.3284,495.085 L194.139,493.6478 L197.1673,492.8518 L197.1582,492.8228 L200.2072,492.2402 L203.0426,490.9792 L206.0041,490.1185 L208.9762,489.2915 L211.8719,488.222 L211.9239,488.3995 L214.7859,487.3661 L217.7368,486.6361 L220.5439,485.4153 L223.5655,484.9266 L226.4444,483.9511 L226.5088,484.1861 L229.3751,483.3528 L232.2733,482.6362 L235.0229,481.3775 L237.8815,480.5161 L240.8365,480.0068 L240.7676,479.7394 L243.6626,479.2515 L246.48,478.4622 L249.41,478.1101 L252.1477,477.0116 L254.9997,476.3568 " fill="none" style="stroke:#181818;stroke-width:1.0;"/><polygon fill="#181818" points="260.82,474.8994,260.8321,474.9684,258.8558,474.4245,256.9503,474.2852,255.0217,474.0142,253.0174,473.3098,251.1179,473.2053,251.1046,473.1831,252.0152,473.6651,252.9929,474.2591,254.0173,474.931,254.8809,475.3345,255.9697,476.1139,256.128,476.2088,255.2078,476.9762,254.7498,478.0207,254.3481,479.099,253.6183,479.9806,253.0611,480.9657,253.0752,480.9836,254.6064,479.744,256.2013,478.586,257.7656,477.3887,259.3885,476.2664,260.82,474.8994" style="stroke:#181818;stroke-width:1.0;"/><text fill="#000000" font-family="sans-serif" font-size="13" lengthAdjust="spacing" textLength="30" x="139" y="500.1045">Does</text></g><!--link Client to ChooseSubscription--><g id="link_Client_ChooseSubscription"><path d="M108.18,564.1394 L108.1827,564.2328 L111.168,563.8693 L114.1691,564.0532 L117.165,564.0588 L120.1441,563.4783 L123.1466,563.7092 L123.146,563.6747 L126.2644,563.465 L129.3859,563.4294 L132.5096,563.5148 L135.6259,563.1831 L138.7525,563.4356 L138.7533,563.6817 L141.9065,563.1447 L145.0621,563.326 L148.218,563.5951 L151.3721,563.3541 L154.5272,563.3814 L154.5276,563.4117 L157.6215,563.4128 L160.7175,563.5519 L163.8124,563.6245 L166.9093,563.8241 L170,563.6094 L170.0266,564.5037 L180.6768,564.8309 L191.3099,564.5812 L201.9681,565.1758 L212.6275,565.8101 L223.2496,565.1904 L223.2145,564.2295 L234.063,566.489 L244.7958,565.5844 L255.6166,567.0852 L266.3467,566.1089 L277.1512,567.163 L277.1473,567.0717 L287.9531,568.607 L298.6684,568.0103 L309.4371,568.6716 L320.2103,569.4385 L330.9511,569.4435 L330.9773,569.9979 L341.5398,569.9393 L352.1471,570.8281 L362.6819,570.1842 L373.3248,571.8263 L383.8958,571.9486 L383.9335,572.6786 L394.1935,573.0698 L404.4723,573.8234 L414.6643,572.8931 L424.9198,573.1971 L435.2318,574.5948 L435.1861,573.7675 L445.0222,575.0572 L454.8068,575.4147 L464.6661,577.1242 L474.3979,576.5253 L484.2055,577.2986 L484.1782,576.842 L493.9843,578.1854 L503.6738,577.577 L513.4463,578.3566 L523.2998,580.4942 L533.0435,580.7933 L542.828,581.774 L552.5047,580.9511 L562.3164,582.3872 L572.0517,582.5453 " fill="none" style="stroke:#181818;stroke-width:1.0;"/><polygon fill="#181818" points="578.04,582.9194,578.0724,582.9815,576.2295,581.8863,574.5765,581.1552,572.8617,580.3055,570.9436,579.0659,569.3069,578.3661,569.2875,578.3489,569.9489,579.1203,570.7082,579.9781,571.5356,580.896,572.1284,581.6069,573.0497,582.6077,573.1718,582.746,572.0624,583.1987,571.3095,584.0554,570.6,584.9613,569.6375,585.5805,568.8081,586.3505,568.8161,586.3718,570.6508,585.6543,572.5216,585.0338,574.375,584.3665,576.2616,583.7886,578.04,582.9194" style="stroke:#181818;stroke-width:1.0;"/><text fill="#000000" font-family="sans-serif" font-size="13" lengthAdjust="spacing" textLength="30" x="317.5" y="561.1045">Does</text></g><!--link Client to MakePayment--><g id="link_Client_MakePayment"><path d="M108.16,580.1794 L108.2332,580.4499 L117.6163,582.2442 L127.4285,585.6243 L137.101,588.4879 L146.3139,589.6534 L156.1359,593.0696 L165.615,595.2188 L175.2306,597.8722 L184.941,600.8761 L194.3245,602.672 L204.3588,606.8725 L213.547,607.9468 L223.2982,611.1015 L233.1182,614.51 L242.5683,616.5521 " fill="none" style="stroke:#181818;stroke-width:1.0;"/><polygon fill="#181818" points="248.36,618.1194,248.4042,618.1737,246.7443,616.7698,245.3435,615.6846,243.8584,614.4956,242.0958,612.9653,240.7173,611.9074,240.6948,611.8945,241.1572,612.8178,241.7329,613.8061,242.3874,614.8396,242.7705,615.7174,243.5336,616.8133,243.6255,616.9734,242.4478,617.1944,241.5384,617.8827,240.6617,618.628,239.5946,619.0416,238.6276,619.6296,238.6311,619.6521,240.5725,619.3171,242.5297,619.0843,244.4793,618.8023,246.4435,618.6144,248.36,618.1194" style="stroke:#181818;stroke-width:1.0;"/><text fill="#000000" font-family="sans-serif" font-size="13" lengthAdjust="spacing" textLength="30" x="139" y="585.1045">Does</text></g><!--link MakePayment to ChooseSubscription--><g id="link_MakePayment_ChooseSubscription"><path d="M445.1,625.1294 L445.1385,625.407 L455.036,623.1939 L465.1592,622.6081 L475.209,621.4924 L485.017,618.6341 L495.1454,618.0853 L505.0934,616.2364 L515.1132,614.9049 L525.1829,613.9331 L535.0807,611.7218 L545.3206,611.9778 L555.1157,609.0259 L565.2068,608.2088 L575.334,607.6522 L585.2669,605.6935 " fill="none" style="stroke:#181818;stroke-width:1.0;"/><polygon fill="#181818" points="591.21,604.8694,591.2294,604.9367,589.279,604.1915,587.4422,603.8409,585.5684,603.3618,583.5729,602.4601,581.7459,602.1434,581.7303,602.1228,582.5624,602.7126,583.4734,603.4066,584.4391,604.1729,585.2161,604.6898,586.2574,605.5561,586.4046,605.6675,585.4073,606.3317,584.8397,607.3209,584.3246,608.3499,583.5044,609.1481,582.8447,610.0676,582.8567,610.0869,584.5121,609.0189,586.2222,608.0389,587.9059,607.0164,589.64,606.0748,591.21,604.8694" style="stroke:#181818;stroke-width:1.0;"/><text fill="#000000" font-family="sans-serif" font-size="13" lengthAdjust="spacing" textLength="30" x="504" y="610.1045">Uses</text></g><!--link MakePayment to HandlePayment--><g id="link_MakePayment_HandlePayment"><path d="M404.46,664.9894 L404.492,665.0771 L410.4659,667.0281 L416.6274,669.4936 L422.7278,671.7915 L428.6274,673.5385 L434.805,676.0481 L434.7928,676.0158 L437.794,677.0236 L440.8566,678.1943 L443.9619,679.4783 L446.92,680.372 L450.0844,681.8123 L450.1735,682.0417 L452.966,682.7107 L456.0188,684.0492 L459.1033,685.4695 L462.0031,686.4144 L465,687.6094 L465.0333,687.694 L474.1231,691.1632 L483.3645,695.0179 L492.5328,698.6865 L501.8407,702.71 L511.021,706.4095 L520.1638,710.0131 L529.0953,713.0797 L538.336,716.9325 L547.5911,720.8221 L556.0353,722.6493 L565.5259,727.1377 L565.6376,727.4178 L573.5655,730.2385 L581.7905,733.8045 L589.7096,736.603 L597.8681,740.0023 L605.9678,743.2538 L606.0923,743.559 L609.7469,744.7795 L613.56,746.3886 L617.3864,748.0303 L621.1867,749.6079 L624.9041,750.9824 L624.9034,750.9808 L628.6584,752.6463 L632.2165,753.8399 L636.0683,755.7375 L639.8186,757.3918 L643.43,758.7131 L643.5078,758.8947 L647.2272,760.5435 L650.7255,761.6755 L654.3859,763.1863 L658.0813,764.7788 L661.88,766.6125 L661.8694,766.5886 L665.5865,768.1795 L669.4854,770.1835 L673.0738,771.4821 L676.7854,773.0605 L680.5885,774.847 L680.6303,774.9394 L684.3266,776.3242 L688.214,778.1311 L692.2883,780.3513 L696.1095,782.0121 L699.89,783.5829 L700.0276,783.8789 L703.8755,785.334 L708.0414,787.4731 L712.1381,789.4631 L715.9847,790.9156 L720.1191,792.9867 L720.1007,792.9483 L724.4414,795.0849 L728.8401,797.3435 L733.0129,799.1279 L737.4003,801.3628 L741.6101,803.2249 L741.5024,803.0036 L746.0959,805.202 L750.9431,807.9217 L755.3231,809.6817 L760.1791,812.4193 L764.6976,814.4637 L764.7384,814.546 L769.6484,816.8383 L774.6352,819.2853 L779.7993,822.09 L784.6533,824.2694 L789.7161,826.8698 L789.8344,827.1047 L795.0624,829.3983 L800.7531,832.6107 L806.1832,835.3058 L811.5922,837.9587 L817,840.6094 L817.0097,840.628 L822.3821,843.6108 L827.5923,846.2811 L832.7348,848.8206 L837.9884,851.5744 L843.1669,854.1834 L843.1394,854.1325 L848.5378,857.282 L853.6389,859.8807 L858.8622,862.706 L863.917,865.2189 L869.2651,868.2752 L869.1773,868.1179 L874.5162,871.3474 L879.6305,874.1744 L884.6643,876.8572 L889.7399,879.6151 L894.9459,882.6064 L894.8975,882.522 L899.7771,885.2003 L905.0035,888.4833 L910.0583,891.467 L914.9941,894.2433 L919.8607,896.8989 L920.0171,897.1652 L924.5899,899.6416 L929.4004,902.5226 L934.0535,905.1357 L938.9647,908.1883 L943.6608,910.8745 L943.7172,910.9686 L948.2543,913.7612 L952.5431,916.1392 L957.0322,918.8516 L961.6315,921.7481 L965.9976,924.2551 L966.1288,924.4704 L969.984,926.5621 L974.1626,929.1845 L978.347,931.8162 L982.2761,934.0292 L986.5223,936.7625 L986.6049,936.896 L990.2554,939.1312 L993.8444,941.2667 L997.574,943.6298 L1001.3839,946.1226 L1004.8864,948.1184 " fill="none" style="stroke:#181818;stroke-width:1.0;"/><polygon fill="#181818" points="1009.98,951.2894,1010.038,951.3287,1008.7604,949.5814,1007.8228,948.0646,1006.7744,946.4728,1005.362,944.6342,1004.4536,943.1372,1004.4283,943.1313,1004.5715,944.2069,1004.8418,945.3121,1005.2005,946.4378,1005.2545,947.4927,1005.7353,948.6469,1005.7771,948.8266,1004.5858,948.6986,1003.5165,949.0954,1002.4621,949.5562,1001.3211,949.6444,1000.2256,949.9286,1000.2287,949.9512,1002.175,950.1902,1004.1356,950.5319,1006.0893,950.824,1008.0561,951.2106,1009.98,951.2894" style="stroke:#181818;stroke-width:1.0;"/><text fill="#000000" font-family="sans-serif" font-size="13" lengthAdjust="spacing" textLength="29" x="680.5" y="728.1045">Calls</text></g><!--link Client to StartEvent--><g id="link_Client_StartEvent"><path d="M62.02,614.6894 L62.1129,614.6992 L62.1498,617.6399 L62.7314,620.638 L63.1356,623.6174 L62.9566,626.5353 L63.5849,629.5384 L63.5506,629.5344 L63.773,632.7972 L64.1685,636.0798 L64.6842,639.3762 L64.7855,642.625 L65.4673,645.9405 L65.7115,645.971 L65.6339,649.4661 L66.2692,653.0502 L66.9915,656.6452 L67.2078,660.177 L67.6902,663.742 L67.7202,663.7461 L68.1933,667.5496 L68.8033,671.3716 L69.3472,675.1847 L70.0171,679.0149 L70.2764,682.7894 L70.5715,682.8329 L71.1696,686.8614 L71.5774,690.8617 L72.2638,694.9032 L72.9632,698.9466 L73.249,702.9289 L72.9325,702.8781 L74.2231,707.1923 L74.4716,711.3393 L75.5123,715.6134 L75.7372,719.7566 L76.6308,724.007 L76.6008,724.0018 L77.7183,728.4363 L78.135,732.7485 L78.9652,737.1329 L79.8302,741.5233 L80.4447,745.8701 L80.6265,745.9046 L81.2968,750.3686 L82.2777,754.8916 L82.7562,759.3192 L83.9841,763.8891 L84.7138,768.3644 L84.9524,768.4137 L85.8566,772.9988 L86.8794,777.6083 L87.3517,782.1041 L88.2275,786.6833 L89.4608,791.3363 L89.1914,791.2757 L90.4849,795.9898 L91.4748,800.6356 L92.905,805.3805 L93.5834,809.9561 L94.7088,814.6323 L94.5607,814.5959 L95.9617,819.3499 L96.7297,823.9481 L97.9478,828.6571 L99.6063,833.4743 L100.4806,838.0987 L100.6676,838.149 L102.0596,842.8802 L102.8699,847.4548 L104.4088,852.2255 L105.7889,856.9534 L106.7992,861.5819 L106.5975,861.5237 L107.4326,863.91 L108.2016,866.2773 L109.1005,868.682 L109.4946,870.9412 L110.1707,873.2817 L110.3675,873.3412 L110.6385,875.5399 L111.2893,877.8533 L112.4951,880.3343 L112.6791,882.5067 L113.6875,884.9281 L113.9032,884.9964 L114.5081,887.2706 L115.04,889.5217 L115.7366,891.825 L116.8139,894.2487 L117.3525,896.5019 L117.2263,896.46 L118.3653,898.8813 L118.6458,901.0172 L119.9025,903.4777 L120.6096,905.7554 L121.1685,907.9839 L121.2713,908.0198 L121.9823,910.265 L123.0613,912.6387 L123.8079,914.8964 L124.4154,917.1054 L125.1384,919.3548 L125.2503,919.3959 L125.9094,921.583 L127.0879,923.9608 L127.679,926.123 L128.5117,928.3738 L129.265,930.5955 L129.0128,930.4981 L129.9543,932.7489 L131.1995,935.1171 L132.0149,937.3191 L132.6762,939.4616 L133.5513,941.6868 L133.4187,941.6328 L134.3509,943.8346 L135.0483,945.9408 L136.3912,948.3099 L137.4147,950.5488 L138,952.6094 L138.216,952.6993 L139.6051,955.8987 L140.5839,958.9273 L141.9957,962.1363 L143.1209,965.2258 L144.5999,968.4627 L144.716,968.5123 L145.8605,971.2162 L147.1452,973.98 L147.9854,976.5536 L149.1841,979.2807 L150.3988,982.0145 L150.577,982.0986 L151.7393,984.4815 L152.4177,986.6362 L153.6584,989.056 L154.9088,991.4805 L155.9613,993.8116 L155.7241,993.6796 L157.2768,996.0058 L158.418,998.103 L159.4569,1000.1433 L160.7295,1002.3136 L161.8525,1004.4006 L162.1199,1004.5834 L163.0946,1006.3077 L164.6819,1008.4507 L166.0281,1010.4288 L167.3227,1012.3717 L168.6371,1014.3282 L168.6851,1014.3685 L170.3243,1016.3232 L171.7219,1018.0749 L173.4464,1020.1014 L175.0744,1022.0466 L176.88,1024.1411 L176.9,1024.1612 L178.9609,1026.2178 L181.0372,1028.2899 L182.9483,1030.1964 L185.0716,1032.3157 L187.146,1034.3859 L187.1109,1034.3457 L189.8854,1036.8237 L192.4123,1039.0181 L194.7165,1040.9574 L197.4079,1043.3403 L200,1045.6094 L199.842,1045.4072 L202.1717,1047.346 L204.3521,1049.0937 L206.4274,1050.7069 L208.2519,1051.9993 L210.4639,1053.7874 L210.5792,1053.9584 L212.331,1054.8974 L214.6171,1056.6286 L216.5447,1057.8283 L218.6948,1059.358 L220.7225,1060.7061 L220.7753,1060.7989 L222.986,1062.1176 L224.8837,1062.8864 L227.3062,1064.5774 L229.4005,1065.6918 L231.5211,1066.8522 L231.59,1066.9943 L234.0829,1068.3234 L236.3557,1069.1986 L238.8054,1070.4386 L241.2296,1071.626 L243.605,1072.7127 " fill="none" style="stroke:#181818;stroke-width:1.0;"/><polygon fill="#181818" points="249.07,1075.1894,249.1223,1075.2359,247.6575,1073.6259,246.4996,1072.2889,245.2417,1070.863,243.6552,1069.1447,242.5236,1067.8311,242.4993,1067.822,242.789,1068.8399,243.2008,1069.9038,243.6977,1070.9997,243.9017,1071.9855,244.5158,1073.1255,244.5808,1073.2982,243.383,1073.3273,242.3748,1073.8607,241.3899,1074.4556,240.2702,1074.6926,239.2214,1075.1178,239.2216,1075.1405,241.191,1075.1214,243.1613,1075.2059,245.1311,1075.2404,247.1017,1075.3703,249.07,1075.1894" style="stroke:#181818;stroke-width:1.0;"/><text fill="#000000" font-family="sans-serif" font-size="13" lengthAdjust="spacing" textLength="30" x="139" y="949.1045">Does</text></g><!--link Client to ViewReactions--><g id="link_Client_ViewReactions"><path d="M105.88,614.7694 L105.9429,614.8385 L107.782,616.4765 L109.9897,618.5196 L112.0774,620.4308 L113.7704,621.9082 L116.0097,623.986 L115.9869,623.9601 L118.0389,625.7327 L120.2058,627.6363 L122.4524,629.6309 L124.424,631.3118 L126.7808,633.432 L126.9392,633.6203 L128.8655,635.123 L131.2543,637.1755 L133.6996,639.2951 L135.8165,641.0243 L138.1062,642.9589 L138.1251,642.9825 L140.4558,644.8397 L142.8728,646.8045 L145.2482,648.7173 L147.7031,650.7293 L149.8987,652.4181 L150.0791,652.6557 L152.5159,654.5072 L154.8363,656.2055 L157.327,658.1281 L159.8257,660.0612 L162.0715,661.6613 L161.8856,661.4002 L164.7396,663.6826 L166.9814,665.1054 L169.6886,667.1817 L171.9165,668.5849 L174.5373,670.5398 L174.5206,670.5144 L177.2533,672.488 L179.5942,673.868 L182.1662,675.5982 L184.7577,677.3579 L187.2092,678.9054 L187.3046,679.0638 L189.7665,680.4447 L192.3914,682.0963 L194.7524,683.3098 L197.5071,685.1768 L200,686.6094 L200.1155,686.8239 L202.9661,688.3292 L205.8742,689.941 L208.5158,691.0579 L211.3527,692.5376 L214.3626,694.3387 L214.2451,694.0887 L217.1574,695.6346 L219.9373,696.8989 L222.9093,698.5716 L225.5534,699.5469 L228.3923,700.9368 L228.3348,700.7956 L231.2906,702.1963 L234.0004,702.9934 L236.8851,704.2197 L239.941,705.866 L242.6921,706.7644 L242.7572,706.9467 L245.8364,708.1553 L248.713,708.7967 L251.8433,710.1484 L254.9184,711.3454 L257.8647,712.1818 " fill="none" style="stroke:#181818;stroke-width:1.0;"/><polygon fill="#181818" points="263.55,714.0994,263.5974,714.1509,262.0066,712.6644,260.6938,711.4802,259.2904,710.1975,257.5894,708.5911,256.3004,707.4328,256.2772,707.4213,256.6754,708.3834,257.1906,709.4035,257.7871,710.4639,258.1034,711.3853,258.8122,712.5014,258.8942,712.6667,257.7052,712.8155,256.7555,713.4471,255.835,714.1375,254.7447,714.4852,253.7436,715.0132,253.7457,715.0359,255.7039,714.8198,257.6717,714.7069,259.6348,714.5443,261.6068,714.4765,263.55,714.0994" style="stroke:#181818;stroke-width:1.0;"/><text fill="#000000" font-family="sans-serif" font-size="13" lengthAdjust="spacing" textLength="30" x="139" y="643.1045">Does</text></g><!--link Client to DownloadReactions--><g id="link_Client_DownloadReactions"><path d="M78.55,614.7394 L78.634,614.7802 L79.2857,616.5145 L80.4299,618.488 L81.4138,620.3837 L81.8702,622.0231 L83.0567,624.0172 L83.0259,624.0016 L83.875,625.8862 L84.8795,627.8494 L85.992,629.8671 L86.7323,631.6967 L87.994,633.7897 L88.2117,633.9044 L88.8189,635.6966 L90.0617,637.8236 L91.3821,639.9913 L92.2512,641.9215 L93.3577,643.9767 L93.3843,643.9913 L94.5025,646.0741 L95.7417,648.2234 L96.9225,650.3406 L98.2146,652.519 L99.1438,654.4978 L99.4022,654.6466 L100.6462,656.8035 L101.7235,658.8643 L103.0448,661.0657 L104.3775,663.2736 L105.3479,665.2729 L105.0736,665.1071 L106.9296,667.6186 L107.8824,669.5842 L109.5218,671.9649 L110.4541,673.9181 L111.966,676.2217 L111.9403,676.2053 L113.6497,678.6071 L114.7589,680.6269 L116.2223,682.8722 L117.7153,685.1363 L118.9939,687.2639 L119.1475,687.3671 L120.4792,689.474 L122.0733,691.7573 L123.243,693.7552 L125.0457,696.1788 L126.4275,698.3194 L126.6259,698.4608 L128.1554,700.6318 L129.7834,702.8729 L130.9537,704.7878 L132.4595,706.9418 L134.2625,709.3078 L134.0426,709.1408 L135.8882,711.4602 L137.4859,713.5914 L139.4432,715.9956 L140.7866,717.9338 L142.4949,720.1489 L142.3766,720.0528 L144.2988,722.3357 L145.7151,724.2075 L147.4912,726.3716 L149.6192,728.8217 L151.1205,730.7626 L151.2662,730.8901 L153.1691,733.0387 L154.6186,734.7908 L156.636,737.0395 L158.5296,739.18 L160.135,741.0684 L159.9826,740.924 L161.984,743.0227 L163.9354,745.0741 L165.9849,747.2184 L167.6532,749.0014 L169.5344,750.9863 L169.6772,751.1341 L171.3194,752.6992 L173.2373,754.5497 L175.558,756.817 L177.137,758.3168 L179.3145,760.4359 L179.4635,760.606 L181.4063,762.2852 L183.2986,763.9068 L185.3048,765.6583 L187.5741,767.7101 L189.471,769.337 L189.3889,769.2324 L191.7393,771.1983 L193.5309,772.4528 L195.958,774.5162 L198.0272,776.1242 L200,777.6094 L200.0621,777.6988 L202.0769,779.0618 L204.3142,780.7449 L206.3505,782.1388 L208.3028,783.4118 L210.3248,784.7852 L210.3854,784.8878 L212.3004,785.9191 L214.4968,787.427 L216.3749,788.3959 L218.384,789.5865 L220.35,790.7042 L220.2321,790.4609 L222.3759,791.5621 L224.6618,792.9564 L226.7466,793.9359 L228.7594,794.7668 L230.8722,795.8039 L230.8191,795.6709 L233.1992,796.6571 L235.4852,797.4078 L238.0298,798.8057 L240.4464,799.8833 L242.6876,800.5216 " fill="none" style="stroke:#181818;stroke-width:1.0;"/><polygon fill="#181818" points="248.32,802.5894,248.3688,802.6397,246.8098,801.1189,245.5368,799.893,244.1707,798.571,242.4983,796.9334,241.2499,795.7328,241.2264,795.7219,241.5961,796.6997,242.0844,797.7324,242.6551,798.8033,242.9419,799.7427,243.6263,800.8662,243.7038,801.0337,242.5113,801.1509,241.5452,801.757,240.6067,802.4228,239.5075,802.7414,238.4928,803.2427,238.4943,803.2654,240.4576,803.1014,242.4276,803.0407,244.3944,802.9302,246.3675,802.9148,248.32,802.5894" style="stroke:#181818;stroke-width:1.0;"/><text fill="#000000" font-family="sans-serif" font-size="13" lengthAdjust="spacing" textLength="30" x="139" y="716.1045">Does</text></g><!--link Client to ViewInsights--><g id="link_Client_ViewInsights"><path d="M66.52,614.6794 L66.6111,614.7001 L66.9426,617.2905 L67.8081,620.0023 L68.4997,622.6745 L68.6195,625.2169 L69.5309,627.9391 L69.4973,627.9307 L70.0592,630.7653 L70.7901,633.6418 L71.6385,636.5474 L72.082,639.3526 L73.0926,642.2984 L73.3301,642.3628 L73.6516,645.2837 L74.6665,648.3925 L75.766,651.5243 L76.3733,654.5226 L77.2395,657.5911 L77.2685,657.5997 L78.1791,660.799 L79.2221,664.0375 L80.2011,667.2571 L81.3021,670.5128 L82.0058,673.6506 L82.2894,673.7429 L83.3769,677.076 L84.2814,680.3496 L85.4537,683.7104 L86.6386,687.0752 L87.4258,690.3106 L87.124,690.2028 L88.9314,693.8309 L89.745,697.1039 L91.3141,700.6469 L92.1051,703.9118 L93.5339,707.4047 L93.5056,707.3935 L95.2067,710.9977 L96.2459,714.3414 L97.6757,717.8389 L99.1382,721.3492 L100.3643,724.7664 L100.5339,724.8401 L101.8801,728.2583 L103.5161,731.8025 L104.6831,735.1428 L106.5498,738.7871 L107.9513,742.2294 L108.1708,742.3351 L109.8048,745.7947 L111.5479,749.3067 L112.7845,752.5749 L114.3924,756.0219 L116.3291,759.6272 L116.0857,759.4967 L118.1467,763.0481 L119.9334,766.4524 L122.1179,770.07 L123.6232,773.3235 L125.5322,776.7934 L125.4015,776.715 L127.6317,780.1993 L129.3031,783.3482 L131.3719,786.7357 L133.8296,790.3565 L135.5948,793.5617 L135.7552,793.6702 L138.0565,796.9853 L139.8588,799.9632 L142.2861,803.3635 L144.5772,806.6718 L146.5511,809.7656 L146.3846,809.6377 L148.8942,812.8343 L151.3493,815.989 L153.9115,819.2259 L156.0571,822.143 L158.4355,825.2388 L158.5897,825.3747 L160.8202,827.9912 L163.3484,830.8701 L166.3115,834.1323 L168.4738,836.6888 L171.2822,839.8147 L171.4403,839.9766 L174.1151,842.5829 L176.7364,845.1344 L179.4785,847.8096 L182.4994,850.7705 L185.1257,853.327 L185.0409,853.2244 L188.268,855.9863 L190.919,858.0505 L194.225,860.908 L197.1622,863.3189 L200,865.6094 L200.0615,865.6992 L202.7935,867.5297 L205.7456,869.682 L208.4989,871.5436 L211.1691,873.2836 L213.9082,875.1246 L213.9657,875.229 L216.6835,876.6155 L219.668,878.4868 L222.3508,879.8097 L225.1577,881.3582 L227.9239,882.8326 L227.8162,882.5846 L230.7745,883.9367 L233.8626,885.5876 L236.7671,886.8158 L239.6058,887.8925 L242.5358,889.1793 L242.489,889.044 L245.6434,890.1736 L248.7149,891.0637 L252.0143,892.6124 L255.2009,893.8351 L258.2328,894.6108 " fill="none" style="stroke:#181818;stroke-width:1.0;"/><polygon fill="#181818" points="263.96,896.3994,264.0062,896.452,262.3892,894.9954,261.0432,893.8474,259.6089,892.5988,257.8843,891.0199,256.5616,889.8983,256.5387,889.8863,256.9608,890.8344,257.4987,891.8432,258.1169,892.8941,258.4581,893.7998,259.1873,894.9089,259.273,895.0723,258.0877,895.2479,257.1525,895.9008,256.2478,896.6118,255.1656,896.9841,254.1768,897.5346,254.1794,897.5572,256.1322,897.297,258.0969,897.1396,260.0559,896.9326,262.0259,896.8203,263.96,896.3994" style="stroke:#181818;stroke-width:1.0;"/><text fill="#000000" font-family="sans-serif" font-size="13" lengthAdjust="spacing" textLength="30" x="139" y="797.1045">Does</text></g><!--link ViewInsights to GenerateInsights--><g id="link_ViewInsights_GenerateInsights"><path d="M412.17,907.9894 L412.1793,908.2695 L422.3896,907.0966 L432.6545,907.5657 L442.9016,907.5002 L453.0902,905.6763 L463.3564,906.1828 L473.5789,905.3774 L483.8187,905.0941 L494.0707,905.1737 L504.281,904.0026 L514.5742,905.3211 L524.7596,903.4028 L535.0168,903.6385 L545.2826,904.1371 L555.4977,903.1065 L565.7424,902.9712 L575.976,902.4971 L586.2233,902.4369 L596.4533,901.8584 " fill="none" style="stroke:#181818;stroke-width:1.0;"/><polygon fill="#181818" points="602.45,901.6594,602.4763,901.7243,600.5726,900.7915,598.8231,900.2394,597.0234,899.5633,595.0585,898.4796,593.3223,897.9601,593.3046,897.9412,594.0512,898.6294,594.8871,899.4128,595.785,900.2626,596.4692,900.8839,597.4528,901.8252,597.5875,901.9513,596.5263,902.5078,595.8586,903.4324,595.2388,904.4019,594.3398,905.1101,593.5876,905.9557,593.5976,905.9762,595.3555,905.0869,597.1585,904.2907,598.9398,903.4496,600.7627,902.6943,602.45,901.6594" style="stroke:#181818;stroke-width:1.0;"/><text fill="#000000" font-family="sans-serif" font-size="13" lengthAdjust="spacing" textLength="29" x="504.5" y="901.1045">Calls</text></g><!--link Client to CloseAccount--><g id="link_Client_CloseAccount"><path d="M59.92,614.8894 L60.0131,614.8972 L60.018,618.2377 L60.5686,621.624 L60.9414,624.9953 L60.7299,628.3178 L61.3274,631.7079 L61.293,631.7043 L61.5312,635.4158 L61.9425,639.1455 L62.4743,642.8878 L62.5911,646.5865 L63.289,650.3463 L63.5331,650.3779 L63.5326,654.3497 L64.2447,658.4136 L65.0437,662.4887 L65.3369,666.4984 L65.8961,670.5426 L65.9261,670.547 L66.1969,672.6606 L66.6043,674.7944 L66.9457,676.9184 L67.4129,679.0611 L67.4702,681.143 L67.7646,681.1908 L68.1221,683.3697 L68.2898,685.5177 L68.7354,687.7109 L69.194,689.9063 L69.2398,692.0345 L68.9242,691.9786 L69.9321,694.3172 L69.9007,696.4715 L70.6594,698.7659 L70.6045,700.9161 L71.2164,703.1845 L71.1865,703.1787 L71.979,705.5221 L72.0731,707.7307 L72.5793,710.0188 L73.1201,712.3135 L73.4113,714.5601 L73.5924,714.5981 L73.8945,716.8735 L74.5061,719.2137 L74.6171,721.4491 L75.4747,723.8409 L75.8359,726.1287 L76.0735,726.1827 L76.5617,728.5182 L77.1679,730.8805 L77.226,733.1183 L77.6859,735.4474 L78.5017,737.8573 L78.2335,737.7913 L79.0599,740.2223 L79.5841,742.5789 L80.5467,745.0433 L80.7609,747.3236 L81.4199,749.7134 L81.2726,749.6741 L82.1544,752.1296 L82.4064,754.4174 L83.1063,756.8244 L84.2444,759.3481 L84.6021,761.664 L84.7882,761.7176 L85.6073,764.1568 L85.8476,766.4295 L86.8129,768.9108 L87.6202,771.3466 L88.0596,773.6765 L87.8591,773.6142 L88.7677,776.0722 L89.6107,778.5098 L90.5827,780.9875 L91.0531,783.3093 L91.8038,785.7181 L91.9986,785.7836 L92.3789,788.0474 L93.1353,790.4375 L94.4413,793.0121 L94.7355,795.247 L95.846,797.7561 L96.0587,797.8332 L96.8027,800.1877 L97.4748,802.5161 L98.3093,804.9034 L99.5191,807.4268 L100.1978,809.7576 L100.0739,809.7091 L101.3773,812.24 L101.8381,814.4409 L103.2569,817.0171 L104.1363,819.3819 L104.8704,821.6899 L104.9707,821.7324 L105.8908,824.0642 L107.1698,826.5479 L108.1245,828.8944 L108.9437,831.1836 L109.8754,833.5203 L109.9838,833.5699 L110.8924,835.8354 L112.3044,838.331 L113.1471,840.5664 L114.224,842.9088 L115.224,845.216 L114.9816,845.0961 L116.2033,847.4418 L117.7169,849.9319 L118.8174,852.2177 L119.7698,854.4302 L120.9276,856.7443 L120.8014,856.6766 L122.0559,858.9639 L123.0869,861.1314 L124.7322,863.6281 L126.0735,865.9619 L126.9978,868.0723 L127.2001,868.1899 L128.5544,870.4465 L129.5244,872.4798 L130.9001,874.7488 L132.0072,876.8618 L133.4458,879.1673 L133.5525,879.2347 L134.906,881.3918 L136.3883,883.6301 L137.4618,885.6104 L138.8651,887.7989 L140.283,889.9967 L140.4455,890.1083 L141.9384,892.2456 L142.9905,894.08 L144.5548,896.2663 L146.128,898.4589 L147.5209,900.5275 L147.3037,900.3646 L149.1766,902.6616 L150.6726,904.6761 L152.0751,906.6203 L153.6915,908.725 L155.1709,910.727 L155.4212,910.9325 L156.6781,912.6059 L158.5084,914.7501 L160.113,916.7089 L161.6693,918.6281 L163.2442,920.5626 L163.2908,920.6045 L164.9833,922.4841 L166.4415,924.1523 L168.2168,926.1065 L169.8984,927.9762 L171.7524,930.0013 L171.7726,930.0213 L173.5711,931.8308 L175.3852,933.6557 L177.0334,935.3157 L178.8947,937.1876 L180.7069,939.0106 L180.671,938.971 L182.7616,940.9097 L184.5992,942.5697 L186.209,943.979 L188.2147,945.8241 L190.1189,947.5575 L189.9569,947.3586 L192.1761,949.2672 L194.2422,950.9879 L196.2005,952.5762 L197.9015,953.8489 L200,955.6094 L200.119,955.7778 L202.2892,957.0922 L205.0107,959.1869 L207.3623,960.758 L209.9436,962.6541 L212.3984,964.3714 L212.4518,964.464 L214.9795,965.9821 L217.1908,966.9521 L219.9326,968.8412 L222.3427,970.1557 L224.7793,971.516 L224.8453,971.6595 L227.5155,973.0129 L229.9749,973.908 L232.6037,975.1715 L235.2081,976.3818 L237.7657,977.4906 L237.7961,977.5728 L240.6087,978.5406 L243.5613,979.8877 L246.201,980.3876 L249.225,981.9279 L251.981,982.7426 " fill="none" style="stroke:#181818;stroke-width:1.0;"/><polygon fill="#181818" points="257.67,984.6494,257.7173,984.701,256.1243,983.217,254.8086,982.0358,253.4026,980.756,251.6995,979.1518,250.4077,977.9966,250.3845,977.9851,250.7847,978.946,251.3019,979.9652,251.9003,981.0248,252.2186,981.945,252.9292,983.0604,253.0115,983.2256,251.8228,983.3767,250.8743,984.01,249.9551,984.7022,248.8654,985.052,247.8654,985.5819,247.8675,985.6046,249.8253,985.3848,251.7929,985.2682,253.7557,985.1018,255.7276,985.0302,257.67,984.6494" style="stroke:#181818;stroke-width:1.0;"/><text fill="#000000" font-family="sans-serif" font-size="13" lengthAdjust="spacing" textLength="30" x="139" y="888.1045">Does</text></g><!--link CloseAccount to RefundPayment--><g id="link_CloseAccount_RefundPayment"><path d="M424,1000.6094 L424,1000.8896 L433.7565,1000.0569 L443.5129,1000.8671 L453.2694,1001.1423 L463.0259,999.6582 L472.7824,1000.5058 L482.5388,1000.0407 L492.2953,1000.098 L502.0518,1000.5185 L511.8082,999.6875 L521.5647,1001.3476 L531.3212,999.769 L541.0776,1000.3457 L550.8341,1001.1853 L560.5906,1000.495 L570.3471,1000.7004 L580.1035,1000.5668 L589.86,1000.6094 " fill="none" style="stroke:#181818;stroke-width:1.0;"/><polygon fill="#181818" points="595.86,1000.6094,595.8885,1000.6734,594.0039,999.6832,592.2862,999.0683,590.5141,998.3311,588.5634,997.1921,586.86,996.6094,586.8417,996.5911,587.5595,997.3088,588.3696,998.119,589.2439,998.9933,589.897,999.6464,590.86,1000.6094,590.9905,1000.7399,589.9114,1001.2608,589.2134,1002.1628,588.5618,1003.1112,587.6398,1003.7892,586.86,1004.6094,586.8692,1004.6302,588.6557,1003.7996,590.4842,1003.0638,592.2924,1002.2822,594.1393,1001.5878,595.86,1000.6094" style="stroke:#181818;stroke-width:1.0;"/><text fill="#000000" font-family="sans-serif" font-size="13" lengthAdjust="spacing" textLength="46" x="496" y="997.1045">Triggers</text></g><!--link RefundPayment to HandlePayment--><g id="link_RefundPayment_HandlePayment"><path d="M791.33,994.1494 L791.349,994.429 L801.1166,992.9318 L810.9954,993.0736 L820.838,992.6817 L830.5616,990.5346 L840.4429,990.7138 L850.2354,989.5834 L860.0633,988.9741 L869.9158,988.7272 L879.6835,987.2317 L889.6198,988.2214 L899.337,985.98 L909.2,985.889 L919.0808,986.0602 L928.8581,984.705 L938.696,984.2435 L948.5138,983.4863 " fill="none" style="stroke:#181818;stroke-width:1.0;"/><polygon fill="#181818" points="954.5,983.0794,954.524,983.1452,952.6025,982.2736,950.8219,981.7877,948.9954,981.1762,947.0179,980.1517,945.2495,979.6989,945.2324,979.6794,946.0084,980.3357,946.8702,981.0904,947.7918,981.9135,948.5076,982.5009,949.5115,983.4184,949.6506,983.5398,948.6093,984.1327,947.974,985.0799,947.3883,986.0703,946.5143,986.8093,945.792,987.6805,945.8026,987.7006,947.5286,986.7509,949.303,985.8927,951.054,984.9903,952.8496,984.1722,954.5,983.0794" style="stroke:#181818;stroke-width:1.0;"/><text fill="#000000" font-family="sans-serif" font-size="13" lengthAdjust="spacing" textLength="29" x="856.5" y="984.1045">Calls</text></g><!--link StartEvent to LoadConfiguration--><g id="link_StartEvent_LoadConfiguration"><path d="M448.06,1098.1094 L448.0685,1098.3895 L457.9718,1097.2544 L467.9252,1097.7613 L477.8623,1097.7336 L487.7457,1095.9473 L497.7002,1096.4917 L507.6147,1095.7241 L517.5452,1095.4785 L527.4866,1095.596 L537.39,1094.4626 L547.3693,1095.819 L557.2498,1093.9384 L567.1961,1094.212 L577.1328,1094.1727 " fill="none" style="stroke:#181818;stroke-width:1.0;"/><polygon fill="#181818" points="583.13,1093.9894,583.1565,1094.0542,581.2542,1093.1169,579.5071,1092.5598,577.7095,1091.8788,575.7457,1090.7907,574.012,1090.2663,573.9942,1090.2474,574.7386,1090.9379,575.5725,1091.7235,576.4686,1092.5753,577.1504,1093.1991,578.1323,1094.1422,578.2668,1094.2686,577.2041,1094.8223,576.534,1095.7451,575.9117,1096.713,575.0108,1097.4189,574.2564,1098.2625,574.2663,1098.283,576.0265,1097.3983,577.8317,1096.6069,579.6152,1095.7705,581.44,1095.0199,583.13,1093.9894" style="stroke:#181818;stroke-width:1.0;"/><text fill="#000000" font-family="sans-serif" font-size="13" lengthAdjust="spacing" textLength="46" x="496" y="1092.1045">Triggers</text></g><!--link StartEvent to ProcessFeed--><g id="link_StartEvent_ProcessFeed"><path d="M424.94,1124.6894 L425.0086,1124.9611 L434.3074,1126.5528 L444.0083,1129.7374 L453.5783,1132.4033 L462.7177,1133.3634 L472.4278,1136.5842 L481.8166,1138.5324 L491.3332,1140.987 L500.9388,1143.7938 L510.238,1145.3872 L520.147,1149.3957 L529.2632,1150.2642 L538.907,1153.2225 L548.6151,1156.4356 L557.9488,1158.1654 L567.5017,1160.7635 L576.9716,1163.0331 L586.5429,1165.7042 L596.0653,1168.1816 L605.6811,1171.0287 L614.9925,1172.6706 " fill="none" style="stroke:#181818;stroke-width:1.0;"/><polygon fill="#181818" points="620.81,1174.1394,620.8533,1174.1945,619.1753,1172.8145,617.751,1171.7575,616.2441,1170.5953,614.4656,1169.0872,613.063,1168.0579,613.0408,1168.0447,613.5207,1168.9566,614.1129,1169.9354,614.783,1170.9608,615.1844,1171.8258,615.9621,1172.9154,616.0567,1173.0739,614.883,1173.3148,613.9853,1174.0184,613.1214,1174.7785,612.0615,1175.2102,611.1046,1175.8145,611.1085,1175.8369,613.0439,1175.469,614.9969,1175.2031,616.9414,1174.888,618.9021,1174.6668,620.81,1174.1394" style="stroke:#181818;stroke-width:1.0;"/><text fill="#000000" font-family="sans-serif" font-size="13" lengthAdjust="spacing" textLength="46" x="496" y="1141.1045">Triggers</text></g><!--link ProcessFeed to IdentifyPerson--><g id="link_ProcessFeed_IdentifyPerson"><path d="M770.64,1175.3194 L770.7032,1175.5924 L780.3814,1172.4961 L790.4302,1171.0003 L800.3584,1168.9833 L809.8895,1165.2525 L819.9468,1163.7931 L829.7079,1161.055 L839.5869,1158.8258 L849.5478,1156.9503 L859.2263,1153.8557 L869.4669,1153.1879 L878.9768,1149.365 L888.973,1147.6417 L899.0284,1146.1746 L908.7387,1143.2171 L918.6511,1141.132 L928.487,1138.7168 L938.4164,1136.7052 L948.3006,1134.4988 L958.0947,1131.9032 " fill="none" style="stroke:#181818;stroke-width:1.0;"/><polygon fill="#181818" points="963.94,1130.5494,963.9533,1130.6182,961.9797,1130.0405,960.084,1129.8662,958.163,1129.5605,956.1586,1128.8229,954.2696,1128.6832,954.2559,1128.6612,955.1542,1129.1614,956.1216,1129.7725,957.1372,1130.4605,957.9871,1130.8831,959.0689,1131.6775,959.2255,1131.7752,958.2918,1132.5262,957.8153,1133.5624,957.3945,1134.6334,956.6492,1135.5019,956.0746,1136.4769,956.0883,1136.4951,957.6413,1135.2829,959.2566,1134.1534,960.8418,1132.984,962.4844,1131.8908,963.94,1130.5494" style="stroke:#181818;stroke-width:1.0;"/><text fill="#000000" font-family="sans-serif" font-size="13" lengthAdjust="spacing" textLength="46" x="848" y="1144.1045">Triggers</text></g><!--link ProcessFeed to CaptureReaction--><g id="link_ProcessFeed_CaptureReaction"><path d="M778.55,1194.4794 L778.5563,1194.7595 L788.7333,1194.1573 L798.9473,1195.1975 L809.1492,1195.7029 L819.3114,1194.4494 L829.5263,1195.527 L839.7115,1195.2923 L849.9085,1195.5798 L860.1137,1196.2304 L870.2907,1195.6299 L880.5239,1197.5197 L890.684,1196.1718 L900.8927,1196.9786 L911.1074,1198.0482 L921.2875,1197.5883 L931.4879,1198.0239 L941.6815,1198.1631 " fill="none" style="stroke:#181818;stroke-width:1.0;"/><polygon fill="#181818" points="947.68,1198.2994,947.7099,1198.3627,945.8397,1197.3338,944.1448,1196.6763,942.3927,1195.8979,940.453,1194.7217,938.7731,1194.0961,938.7544,1194.0782,939.452,1194.8158,940.244,1195.6437,941.1016,1196.5342,941.733,1197.2087,942.6813,1198.1859,942.8088,1198.3193,941.7182,1198.8156,940.9998,1199.7015,940.3269,1200.6348,939.3897,1201.2917,938.5915,1202.094,938.6003,1202.115,940.4051,1201.3253,942.2498,1200.6311,944.0753,1199.8908,945.9375,1199.2385,947.68,1198.2994" style="stroke:#181818;stroke-width:1.0;"/><text fill="#000000" font-family="sans-serif" font-size="13" lengthAdjust="spacing" textLength="46" x="848" y="1192.1045">Triggers</text></g><!--link CaptureReaction to ValidateReaction--><g id="link_CaptureReaction_ValidateReaction"><path d="M1138.45,1186.0194 L1138.4966,1186.2957 L1148.1565,1183.8215 L1158.0897,1182.9673 L1167.9339,1181.5855 L1177.4854,1178.469 L1187.4249,1177.6516 L1197.1459,1175.5399 L1206.9539,1173.9433 L1216.8222,1172.7048 L1226.4824,1170.2323 L1236.557,1170.2161 L1246.0928,1167.0064 L1255.9872,1165.9219 L1265.9253,1165.0967 L1275.6088,1162.7629 L1285.4414,1161.3123 L1295.2176,1159.5274 L1305.0627,1158.1511 L1314.8746,1156.5776 L1324.7499,1155.3801 L1334.5672,1153.8392 L1344.3675,1152.1969 L1354.0717,1149.9855 L1363.8136,1147.9976 " fill="none" style="stroke:#181818;stroke-width:1.0;"/><polygon fill="#181818" points="1369.73,1146.9994,1369.7474,1147.0672,1367.7877,1146.3762,1365.93,1146.083,1364.0391,1145.6603,1362.0389,1144.8115,1360.1899,1144.5525,1360.1749,1144.5314,1361.0295,1145.0924,1361.9597,1145.7598,1362.9426,1146.5012,1363.7442,1146.9877,1364.7997,1147.8312,1364.9501,1147.9382,1363.9727,1148.6314,1363.4345,1149.6369,1362.9498,1150.6805,1362.1534,1151.5025,1361.5209,1152.441,1361.5335,1152.4599,1363.1569,1151.3438,1364.8374,1150.3139,1366.4904,1149.2425,1368.1961,1148.2504,1369.73,1146.9994" style="stroke:#181818;stroke-width:1.0;"/><text fill="#000000" font-family="sans-serif" font-size="13" lengthAdjust="spacing" textLength="30" x="1251" y="1151.1045">Runs</text></g><!--link CaptureReaction to SaveReaction--><g id="link_CaptureReaction_SaveReaction"><path d="M1152.39,1206.3394 L1152.406,1206.6192 L1162.1061,1206.344 L1171.8999,1207.7089 L1181.6632,1208.5398 L1191.3262,1207.6142 L1201.1221,1209.0166 L1210.8432,1209.1084 L1220.5941,1209.7218 L1230.3657,1210.6977 L1240.0659,1210.4242 L1249.9081,1212.6376 L1259.5658,1211.6178 L1269.3462,1212.7496 L1279.1417,1214.144 L1288.85,1214.011 L1298.6093,1214.7721 L1308.3493,1215.1949 L1318.1129,1216.0312 L1327.8651,1216.668 L1337.639,1217.6855 L1347.3931,1218.3552 L1357.0897,1218.0181 " fill="none" style="stroke:#181818;stroke-width:1.0;"/><polygon fill="#181818" points="1363.08,1218.3594,1363.1121,1218.4217,1361.2652,1217.3355,1359.6063,1216.6145,1357.8862,1215.7745,1355.9649,1214.5435,1354.3221,1213.8539,1354.3028,1213.8366,1354.9692,1214.6034,1355.7331,1215.4572,1356.5648,1216.3714,1357.1629,1217.0773,1358.0881,1218.0749,1358.211,1218.2126,1357.104,1218.6714,1356.3558,1219.5321,1355.6513,1220.442,1354.6922,1221.0664,1353.867,1221.8409,1353.8751,1221.8622,1355.7059,1221.1346,1357.5733,1220.504,1359.423,1219.8266,1361.3064,1219.2383,1363.08,1218.3594" style="stroke:#181818;stroke-width:1.0;"/><text fill="#000000" font-family="sans-serif" font-size="13" lengthAdjust="spacing" textLength="116" x="1208" y="1206.1045">Runs after validation</text></g><!--link HandlePayment to PaymentProvider--><g id="link_HandlePayment_PaymentProvider"><path d="M1150.07,976.6094 L1150.07,976.8896 L1160.1258,976.0569 L1170.1817,976.8671 L1180.2375,977.1423 L1190.2933,975.6582 L1200.3492,976.5058 L1210.405,976.0407 L1220.4608,976.098 L1230.5167,976.5185 L1240.5725,975.6875 L1250.6283,977.3476 L1260.6842,975.769 L1270.74,976.3457 L1280.7958,977.1853 L1290.8517,976.495 L1300.9075,976.7004 L1310.9633,976.5668 L1321.0192,976.8474 L1331.075,976.9282 L1341.1308,977.3903 L1351.1867,977.5041 L1361.2425,977.5151 L1371.2983,976.9489 L1381.3542,977.2275 L1391.41,976.6094 " fill="none" style="stroke:#181818;stroke-width:1.0;"/><polygon fill="#181818" points="1397.41,976.6094,1397.4385,976.6734,1395.5539,975.6832,1393.8362,975.0683,1392.0641,974.3311,1390.1134,973.1921,1388.41,972.6094,1388.3917,972.5911,1389.1095,973.3088,1389.9196,974.119,1390.7939,974.9933,1391.447,975.6464,1392.41,976.6094,1392.5405,976.7399,1391.4614,977.2608,1390.7634,978.1628,1390.1118,979.1112,1389.1898,979.7892,1388.41,980.6094,1388.4192,980.6302,1390.2057,979.7996,1392.0342,979.0638,1393.8424,978.2822,1395.6893,977.5878,1397.41,976.6094" style="stroke:#181818;stroke-width:1.0;"/><text fill="#000000" font-family="sans-serif" font-size="13" lengthAdjust="spacing" textLength="21" x="1255.5" y="973.1045">use</text></g><!--SRC=[bLRBRjim4BphAnQ-vEGVC8e0WPkq0HB4YDi0BG8KZBIIYSYaGL9stQB_tkL32YafbkEJERiSBfV3eGmtDSBi1ne-V-8lgE6xHbWoZNgMPHTmnuwoCQ3H62ugdUbNBdPCiIsmt4YrDaUQpWwevHQZu8Q9ug2uCIZ0g0Qp6ai3HeBYrSP0mHNcXajXbxYoH51WoGMtcCuSDIokzoWCFAYA2Vu7rGAOXcNDBVZfqmgLbkBoiarUiUFMHbPAxdaHiWFOOZJj-hT19LWDQrHxdYCHK0c1bGiACbSODDI6tBOXkx2rCb7HHdtUhzktF0r_Cw0VfTjiUDYXkCfpsH0T5J2pOs020ZQZ4YXr7gr45SG4TxBYmatr_wXdPyzzOZKlcC5ryw9pnNTk8vQg3K0ScUPRIb7ogb6uP5jASLIXbzGR1psB4h6WqpECr_e3b3Sa4tIC7GG_fI01KiqkU0QPGjgKbubZScFRRhJO6GGRAVMmNHvEcWNtii1wcl6UlM8hHKjbnwqCeIIXcWs2_j0fF74yF68hDtUSX80A4D31iccMp_8WQicAbAb5EpPgVrdMNE1vTTqARIzqL5QBdD7ycfeStnK7k0QnSnN_Y6KZYhZX7d4iEmzFiwmDK-PDHcu85ICEHQONzORKhkJMaPzGsCM_p9hA-gWDRc6dP8vQZnkAppbbA7TqEkqDOPr2BGhkvkLnpDQZ7UKyBDlRwSgZDtPckCskEBkZS9NjTkkvuVu2dcIxBQW7l3nwB_Q2GaEReojO00zHVnOkPP9noNQ6dA0LgPU5nnnD9_f9fjRo4ghE1sEkIQerswSq5j0Vu_Y2WaxOO79XMf0Ude0-2rgYqziawrVgSvtuZKVwyX-GM8cEFNiw2zXyVfcyPGio44oY_daAk1zOUFGDMjYlYcHs_saPylTUYf64oFr7eaDh7oR5RXsYCVGkZzjDFpCzZ0LfkQwJrIAR6PQIklmmFlJlSOvEO26SO3PfeCIHIXDhxjQ9C9kKUky2lj6tNKNNF4i3xxScCib4Wb6VlD3w3XYjrSkD_ItAYc6RrZEk4vbzGufI-w5O_L7-OoF6SnDRyNd0Ike3x3sB_JvEE-UssFkcNLWtoFu3]--></g></svg>