<?xml version="1.0" encoding="us-ascii" standalone="no"?><svg xmlns="http://www.w3.org/2000/svg" xmlns:xlink="http://www.w3.org/1999/xlink" contentStyleType="text/css" height="1261px" preserveAspectRatio="none" style="width:1757px;height:1261px;background:#FFFFFF;" version="1.1" viewBox="0 0 1757 1261" width="1757px" zoomAndPan="magnify"><defs/><g><text fill="#000000" font-family="sans-serif" font-size="14" font-weight="bold" lengthAdjust="spacing" textLength="150" x="796.6362" y="24.5332">Yeti-Vibes Use Cases</text><!--entity Client--><g id="elem_Client"><polygon fill="#F1F1F1" points="73.0884,560.6106,70.7431,563.8152,67.969,568.5089,64.0016,571.6721,59.8326,573.4018,56.5084,573.5519,52.2359,571.3886,48.2046,569.9754,45.1448,567.1059,43.5397,563.821,42.5879,561.2053,41.6554,557.7889,40.1418,554.8489,41.3049,551.9784,42.3239,548.834,46.1481,546.3471,48.8385,543.1203,52.1686,542.0488,56.1274,541.1261,61.2042,541.6743,63.9848,542.9857,67.2178,543.5801,71.1486,547.6074,72.5189,551.859,73.1143,554.76,72.4399,559.5404" style="stroke:#181818;stroke-width:0.5;"/><path d="M57,576.7188 L57,576.7188 L57.0319,576.8065 L59.1371,575.7457 L61.4294,575.1995 L63.6607,574.4857 L65.6916,573.2208 L68,572.7188 L68,572.7188 L67.9857,572.6873 L70.1216,573.5462 L72.3295,574.5636 L74.5875,575.6912 L76.6728,576.439 L79,577.7188 L79.224,577.8206 L79.745,579.8028 L80.92,582.0824 L82.1748,584.3982 L82.9653,586.503 L84,588.7188 L84.0607,588.7188 L83.9716,589.5188 L84.1587,590.3188 L84.2126,591.1188 L84.5206,591.9188 L84,592.7188 L84,592.7188 L84.2109,592.9296 L82.6135,594.5322 L80.88,595.9988 L79.3457,597.6644 L77.8207,599.3394 L76,600.7188 L76,600.0777 L68.4,601.3219 L60.8,600.4552 L53.2,601.1932 L45.6,600.2787 L38,600.7188 L38,600.7188 L37.9785,600.6972 L36.6331,599.3518 L34.7847,597.5034 L33.2331,595.9518 L31.7064,594.4252 L30,592.7188 L30.37,592.7188 L29.9965,591.9188 L30.2553,591.1188 L29.4912,590.3188 L30.2528,589.5188 L30,588.7188 L30,588.7188 L30.2218,588.8196 L31.1799,586.6005 L32.248,584.4315 L32.8045,582.0299 L33.7361,579.7988 L35,577.7188 L34.8857,577.4673 L37.1892,576.6949 L39.3639,575.6392 L41.7253,574.9945 L43.7679,573.6481 L46,572.7188 L46,572.7188 L45.9479,572.5755 L48.2347,573.6141 L50.2987,574.0402 L52.5212,574.9019 L54.8986,576.1898 L57,576.7188 " fill="#F1F1F1" style="stroke:#181818;stroke-width:0.5;"/><text fill="#000000" font-family="sans-serif" font-size="14" lengthAdjust="spacing" textLength="102" x="6" y="615.752">Event Organizer</text><text fill="#000000" font-family="sans-serif" font-size="14" font-style="italic" lengthAdjust="spacing" textLength="61" x="26.5" y="537.1426">&#171;Person&#187;</text></g><!--entity UI--><g id="elem_UI"><polygon fill="#F1F1F1" points="267.5884,560.6106,265.2431,563.8152,262.469,568.5089,258.5016,571.6721,254.3326,573.4018,251.0084,573.5519,246.7359,571.3886,242.7046,569.9754,239.6448,567.1059,238.0397,563.821,237.0879,561.2053,236.1554,557.7889,234.6418,554.8489,235.8049,551.9784,236.8239,548.834,240.6481,546.3471,243.3385,543.1203,246.6686,542.0488,250.6274,541.1261,255.7042,541.6743,258.4848,542.9857,261.7178,543.5801,265.6486,547.6074,267.0189,551.859,267.6143,554.76,266.9399,559.5404" style="stroke:#181818;stroke-width:0.5;"/><path d="M251.5,576.7188 L251.5,576.7188 L251.5319,576.8065 L253.6371,575.7457 L255.9294,575.1995 L258.1607,574.4857 L260.1916,573.2208 L262.5,572.7188 L262.5,572.7188 L262.4857,572.6873 L264.6216,573.5462 L266.8295,574.5636 L269.0875,575.6912 L271.1728,576.439 L273.5,577.7188 L273.724,577.8206 L274.245,579.8028 L275.42,582.0824 L276.6748,584.3982 L277.4653,586.503 L278.5,588.7188 L278.5607,588.7188 L278.4716,589.5188 L278.6587,590.3188 L278.7126,591.1188 L279.0206,591.9188 L278.5,592.7188 L278.5,592.7188 L278.7109,592.9296 L277.1135,594.5322 L275.38,595.9988 L273.8457,597.6644 L272.3207,599.3394 L270.5,600.7188 L270.5,600.0777 L262.9,601.3219 L255.3,600.4552 L247.7,601.1932 L240.1,600.2787 L232.5,600.7188 L232.5,600.7188 L232.4785,600.6972 L231.1331,599.3518 L229.2847,597.5034 L227.7331,595.9518 L226.2064,594.4252 L224.5,592.7188 L224.87,592.7188 L224.4965,591.9188 L224.7553,591.1188 L223.9912,590.3188 L224.7528,589.5188 L224.5,588.7188 L224.5,588.7188 L224.7218,588.8196 L225.6799,586.6005 L226.748,584.4315 L227.3045,582.0299 L228.2361,579.7988 L229.5,577.7188 L229.3857,577.4673 L231.6892,576.6949 L233.8639,575.6392 L236.2253,574.9945 L238.2679,573.6481 L240.5,572.7188 L240.5,572.7188 L240.4479,572.5755 L242.7347,573.6141 L244.7987,574.0402 L247.0212,574.9019 L249.3986,576.1898 L251.5,576.7188 " fill="#F1F1F1" style="stroke:#181818;stroke-width:0.5;"/><text fill="#000000" font-family="sans-serif" font-size="14" lengthAdjust="spacing" textLength="88" x="207.5" y="615.752">User Interface</text><text fill="#000000" font-family="sans-serif" font-size="14" font-style="italic" lengthAdjust="spacing" textLength="103" x="200" y="537.1426">&#171;UI Application&#187;</text></g><!--entity PaymentProvider--><g id="elem_PaymentProvider"><polygon fill="#F1F1F1" points="1666.0884,971.6106,1663.7431,974.8152,1660.969,979.5089,1657.0016,982.6721,1652.8326,984.4018,1649.5084,984.5519,1645.2359,982.3886,1641.2046,980.9754,1638.1448,978.1059,1636.5397,974.821,1635.5879,972.2053,1634.6554,968.7889,1633.1418,965.8489,1634.3049,962.9784,1635.3239,959.834,1639.1481,957.3471,1641.8385,954.1203,1645.1686,953.0488,1649.1274,952.1261,1654.2042,952.6743,1656.9848,953.9857,1660.2178,954.5801,1664.1486,958.6074,1665.5189,962.859,1666.1143,965.76,1665.4399,970.5404" style="stroke:#181818;stroke-width:0.5;"/><path d="M1650,987.7188 L1650,987.7188 L1650.0319,987.8065 L1652.1371,986.7457 L1654.4294,986.1995 L1656.6607,985.4857 L1658.6916,984.2208 L1661,983.7188 L1661,983.7188 L1660.9857,983.6873 L1663.1216,984.5462 L1665.3295,985.5636 L1667.5875,986.6912 L1669.6728,987.439 L1672,988.7188 L1672.224,988.8206 L1672.745,990.8028 L1673.92,993.0824 L1675.1748,995.3982 L1675.9653,997.503 L1677,999.7188 L1677.0607,999.7188 L1676.9716,1000.5188 L1677.1587,1001.3188 L1677.2126,1002.1188 L1677.5206,1002.9188 L1677,1003.7188 L1677,1003.7188 L1677.2109,1003.9296 L1675.6135,1005.5322 L1673.88,1006.9988 L1672.3457,1008.6644 L1670.8207,1010.3394 L1669,1011.7188 L1669,1011.0777 L1661.4,1012.3219 L1653.8,1011.4552 L1646.2,1012.1932 L1638.6,1011.2787 L1631,1011.7188 L1631,1011.7188 L1630.9785,1011.6972 L1629.6331,1010.3518 L1627.7847,1008.5034 L1626.2331,1006.9518 L1624.7064,1005.4252 L1623,1003.7188 L1623.37,1003.7188 L1622.9965,1002.9188 L1623.2553,1002.1188 L1622.4912,1001.3188 L1623.2528,1000.5188 L1623,999.7188 L1623,999.7188 L1623.2218,999.8196 L1624.1799,997.6005 L1625.248,995.4315 L1625.8045,993.0299 L1626.7361,990.7988 L1628,988.7188 L1627.8857,988.4673 L1630.1892,987.6949 L1632.3639,986.6392 L1634.7253,985.9945 L1636.7679,984.6481 L1639,983.7188 L1639,983.7188 L1638.9479,983.5755 L1641.2347,984.6141 L1643.2987,985.0402 L1645.5212,985.9019 L1647.8986,987.1898 L1650,987.7188 " fill="#F1F1F1" style="stroke:#181818;stroke-width:0.5;"/><text fill="#000000" font-family="sans-serif" font-size="14" lengthAdjust="spacing" textLength="112" x="1594" y="1026.752">Payment Provider</text><text fill="#000000" font-family="sans-serif" font-size="14" font-style="italic" lengthAdjust="spacing" textLength="117" x="1591.5" y="948.1426">&#171;External Service&#187;</text></g><g id="elem_OpenAccount"><polygon fill="#F1F1F1" points="616.4225,76.9708,614.6241,81.7298,607.76,85.3508,599.8841,88.9584,593.3822,93.1484,581.1153,95.5374,569.9086,98.1045,556.7552,99.7609,542.2631,100.5545,529.6773,101.368,512.6068,100.0882,501.7136,99.9459,487.6252,97.933,474.0697,95.1552,464.5715,92.6777,455.028,89.2069,447.888,85.5197,441.9772,81.2852,438.5342,76.9491,436.5941,72.2903,437.4974,67.8273,440.7752,63.5305,447.2001,59.7723,454.079,55.8533,462.6799,52.319,476.8378,50.5206,485.5218,47.1655,500.9124,46.208,512.6544,44.5553,529.2059,44.9806,542.264,45.0069,554.0544,45.4296,569.0018,47.7108,580.6759,49.9009,590.8569,52.5916,599.8443,55.8888,608.2334,59.9662,612.9401,63.8245,618.3011,68.7598,617.3527,72.5162" style="stroke:#181818;stroke-width:0.5;"/><text fill="#000000" font-family="sans-serif" font-size="14" font-style="italic" lengthAdjust="spacing" textLength="115" x="468.7677" y="68.4414">&#171;user-interaction&#187;</text><text fill="#000000" font-family="sans-serif" font-size="14" lengthAdjust="spacing" textLength="110" x="471.2677" y="86.0508">Open an Account</text></g><g id="elem_Login"><polygon fill="#F1F1F1" points="614.0453,168.6922,612.291,173.4837,605.5953,177.1296,597.9126,180.7618,591.5703,184.9805,579.6042,187.3859,568.6725,189.9705,555.8418,191.6382,541.7052,192.4373,529.4282,193.2564,512.7765,191.9678,502.1506,191.8245,488.4078,189.7978,475.1848,187.0011,465.9196,184.5066,456.6103,181.012,449.6454,177.2996,443.8797,173.0361,440.5211,168.6704,438.6286,163.9797,439.5098,159.4862,442.7072,155.16,448.9744,151.376,455.6846,147.4302,464.0744,143.8717,477.885,142.0611,486.3559,138.683,501.369,137.7189,512.8229,136.0549,528.9684,136.4831,541.706,136.5097,553.2073,136.9352,567.7879,139.232,579.1757,141.4371,589.1069,144.1463,597.8738,147.466,606.057,151.5712,610.6483,155.456,615.8778,160.425,614.9526,164.2072" style="stroke:#181818;stroke-width:0.5;"/><text fill="#000000" font-family="sans-serif" font-size="14" font-style="italic" lengthAdjust="spacing" textLength="115" x="469.5593" y="160.1338">&#171;user-interaction&#187;</text><text fill="#000000" font-family="sans-serif" font-size="14" lengthAdjust="spacing" textLength="106" x="474.0593" y="177.7432">Login to Account</text></g><g id="elem_ValidateSubscription"><polygon fill="#F1F1F1" points="990.8034,168.9646,988.7492,173.5756,980.9086,177.084,971.9123,180.5794,964.4856,184.6391,950.4736,186.9539,937.6728,189.4412,922.6484,191.046,906.0947,191.815,891.7185,192.6032,872.2197,191.3632,859.777,191.2253,843.6845,189.275,828.2007,186.5836,817.3513,184.1831,806.4503,180.8202,798.2946,177.2477,791.543,173.1448,787.6102,168.9436,785.3941,164.4296,786.4259,160.1054,790.17,155.9422,797.5088,152.3008,805.3663,148.5037,815.1906,145.0793,831.3625,143.3368,841.2818,140.086,858.8618,139.1583,872.2741,137.557,891.1801,137.969,906.0957,137.9946,919.5634,138.4041,936.637,140.6144,949.9718,142.7363,961.601,145.3434,971.8669,148.5381,981.4493,152.4887,986.8256,156.2271,992.9493,161.0089,991.8659,164.6485" style="stroke:#181818;stroke-width:0.5;"/><text fill="#000000" font-family="sans-serif" font-size="14" font-style="italic" lengthAdjust="spacing" textLength="115" x="825.9847" y="160.3249">&#171;user-interaction&#187;</text><text fill="#000000" font-family="sans-serif" font-size="14" lengthAdjust="spacing" textLength="133" x="816.9847" y="177.9343">Validate Subscription</text></g><g id="elem_ConfigureCamera"><polygon fill="#F1F1F1" points="612.046,275.6973,610.3371,282.6218,603.8144,287.8907,596.3303,293.1399,590.152,299.2366,578.4953,302.7128,567.8462,306.4481,555.3471,308.8582,541.576,310.013,529.6163,311.1967,513.3951,309.3345,503.0439,309.1274,489.6564,306.1985,476.7753,302.1567,467.7495,298.5518,458.6809,293.5015,451.8961,288.1364,446.2794,281.975,443.0077,275.6657,441.164,268.8868,442.0224,262.3929,445.1372,256.1408,451.2424,250.6723,457.7791,244.9699,465.9521,239.8273,479.4056,237.2106,487.6575,232.3287,502.2825,230.9355,513.4403,228.5307,529.1685,229.1495,541.5768,229.1879,552.7807,229.8028,566.9845,233.1222,578.0778,236.3088,587.7523,240.2241,596.2926,245.0216,604.2642,250.9544,608.7368,256.5686,613.8311,263.7497,612.9299,269.2156" style="stroke:#181818;stroke-width:0.5;"/><text fill="#000000" font-family="sans-serif" font-size="14" font-style="italic" lengthAdjust="spacing" textLength="115" x="470.5393" y="256.4331">&#171;user-interaction&#187;</text><text fill="#000000" font-family="sans-serif" font-size="14" lengthAdjust="spacing" textLength="99" x="476.5393" y="274.0425">Provide camera</text><text fill="#000000" font-family="sans-serif" font-size="14" lengthAdjust="spacing" textLength="73" x="491.5393" y="291.6518">feed details</text></g><g id="elem_ConfigureFrame"><polygon fill="#F1F1F1" points="647.6869,376.4368,645.2508,380.9702,635.9529,384.4196,625.2843,387.8561,616.4771,391.8475,599.8605,394.1233,584.6803,396.5687,566.863,398.1466,547.2324,398.9026,530.1838,399.6775,507.0606,398.4584,492.305,398.3229,473.2212,396.4053,454.8592,393.7592,441.9931,391.3992,429.0658,388.0929,419.3941,384.5805,411.3875,380.5467,406.7237,376.4161,404.0956,371.9782,405.3192,367.7267,409.7593,363.6336,418.4623,360.0535,427.7803,356.3203,439.4308,352.9535,458.6087,351.2404,470.3718,348.0443,491.2197,347.1322,507.1251,345.5579,529.5454,345.963,547.2335,345.9881,563.2046,346.3907,583.4519,348.5638,599.2654,350.65,613.0563,353.2133,625.2305,356.3541,636.5941,360.2382,642.9697,363.9137,650.2316,368.615,648.9468,372.1934" style="stroke:#181818;stroke-width:0.5;"/><text fill="#000000" font-family="sans-serif" font-size="14" font-style="italic" lengthAdjust="spacing" textLength="115" x="463.861" y="366.4658">&#171;user-interaction&#187;</text><text fill="#000000" font-family="sans-serif" font-size="14" lengthAdjust="spacing" textLength="170" x="436.361" y="384.0752">Configure Zones on Frame</text></g><g id="elem_CreateEvent"><polygon fill="#F1F1F1" points="612.4292,467.8092,610.7113,472.6179,604.1548,476.2768,596.6316,479.922,590.4211,484.1559,578.7037,486.5699,567.9991,489.1638,555.435,490.8375,541.5921,491.6394,529.5701,492.4615,513.2644,491.1683,502.8593,491.0245,489.402,488.9905,476.4538,486.1837,467.3811,483.6803,458.2652,480.1732,451.445,476.4474,445.7991,472.1687,442.5103,467.7872,440.6571,463.0797,441.5199,458.5701,444.6509,454.2284,450.7879,450.4308,457.3587,446.4708,465.5742,442.8996,479.0979,441.0824,487.3928,437.6922,502.0939,436.7247,513.3099,435.0547,529.1199,435.4845,541.5929,435.5111,552.8552,435.9381,567.1329,438.2433,578.2841,440.4562,588.0089,443.1751,596.5937,446.5067,604.6069,450.6267,609.1028,454.5254,614.2236,459.5123,613.3177,463.308" style="stroke:#181818;stroke-width:0.5;"/><text fill="#000000" font-family="sans-serif" font-size="14" font-style="italic" lengthAdjust="spacing" textLength="115" x="470.4849" y="459.3084">&#171;user-interaction&#187;</text><text fill="#000000" font-family="sans-serif" font-size="14" lengthAdjust="spacing" textLength="102" x="476.9849" y="476.9177">Create an event</text></g><g id="elem_ShowSubscriptions"><polygon fill="#F1F1F1" points="1008.7633,577.7135,1006.3466,582.214,997.1226,585.6384,986.539,589.05,977.8019,593.0125,961.3176,595.2718,946.2581,597.6995,928.5827,599.2659,909.1083,600.0164,892.1955,600.7858,869.2562,599.5755,854.6181,599.4409,835.6861,597.5373,817.4703,594.9103,804.7066,592.5674,791.8822,589.285,782.2875,585.7981,774.3446,581.7935,769.7179,577.6929,767.1107,573.2871,768.3246,569.0665,772.7294,565.003,781.3631,561.4489,790.6069,557.7427,802.1647,554.4003,821.19,552.6996,832.8595,549.5267,853.5414,548.6212,869.3202,547.0582,891.5621,547.4604,909.1094,547.4854,924.9534,547.885,945.0396,550.0424,960.7272,552.1135,974.4083,554.6582,986.4856,557.7763,997.7587,561.6322,1004.0836,565.281,1011.2877,569.9483,1010.0132,573.5008" style="stroke:#181818;stroke-width:0.5;"/><text fill="#000000" font-family="sans-serif" font-size="14" font-style="italic" lengthAdjust="spacing" textLength="115" x="825.728" y="568.0236">&#171;user-interaction&#187;</text><text fill="#000000" font-family="sans-serif" font-size="14" lengthAdjust="spacing" textLength="165" x="800.728" y="585.6329">Show Subscription Models</text></g><g id="elem_MakePayment"><polygon fill="#F1F1F1" points="658.86,649.0116,656.2004,653.9236,646.0495,657.6611,634.4021,661.3847,624.7869,665.7095,606.6459,668.1754,590.0729,670.825,570.6211,672.5347,549.1895,673.3538,530.5769,674.1935,505.3322,672.8725,489.2229,672.7257,468.3882,670.648,448.3417,667.7809,434.2952,665.2237,420.1819,661.6412,409.6229,657.8355,400.8817,653.4648,395.7901,648.9892,392.9208,644.1806,394.2568,639.5741,399.1042,635.1391,408.6056,631.26,418.7784,627.2149,431.4978,623.5669,452.4352,621.7108,465.2775,618.2477,488.038,617.2594,505.4026,615.5536,529.8798,615.9925,549.1907,616.0197,566.627,616.4559,588.7319,618.8106,605.9962,621.0711,621.0523,623.8484,634.3434,627.2515,646.7495,631.4601,653.71,635.4425,661.6382,640.5365,660.2355,644.4138" style="stroke:#181818;stroke-width:0.5;"/><text fill="#000000" font-family="sans-serif" font-size="14" font-style="italic" lengthAdjust="spacing" textLength="115" x="465.2976" y="635.953">&#171;user-interaction&#187;</text><text fill="#000000" font-family="sans-serif" font-size="14" lengthAdjust="spacing" textLength="218" x="413.7976" y="653.5624">Make Payment for the subscription</text></g><g id="elem_FetchReactions"><polygon fill="#F1F1F1" points="977.2663,794.0852,975.4897,798.861,968.7085,802.4948,960.9277,806.1151,954.5045,810.3199,942.3858,812.7174,931.3145,815.2936,918.3201,816.9558,904.0031,817.7523,891.5694,818.5687,874.7052,817.2843,863.9437,817.1415,850.0255,815.1215,836.6338,812.3339,827.2504,809.8476,817.8223,806.3645,810.7685,802.6643,804.9292,798.4148,801.5278,794.0634,799.6111,789.3881,800.5035,784.9094,803.7417,780.5974,810.0889,776.8259,816.8847,772.893,825.3816,769.3462,839.3685,767.5415,847.9475,764.1745,863.1521,763.2137,874.7522,761.5551,891.1038,761.9819,904.004,762.0084,915.652,762.4325,930.4187,764.7218,941.9517,766.9196,952.0097,769.6199,960.8885,772.9287,969.1761,777.0204,973.826,780.8924,979.1222,785.8451,978.1852,789.6149" style="stroke:#181818;stroke-width:0.5;"/><text fill="#000000" font-family="sans-serif" font-size="14" font-style="italic" lengthAdjust="spacing" textLength="120" x="829.9298" y="785.8846">&#171;service-endpoint&#187;</text><text fill="#000000" font-family="sans-serif" font-size="14" lengthAdjust="spacing" textLength="103" x="838.4298" y="803.494">Fetch Reactions</text></g><g id="elem_ShowReactions"><polygon fill="#F1F1F1" points="622.5136,740.9388,620.5933,745.6195,613.264,749.1811,604.8544,752.7293,597.9119,756.8504,584.8137,759.2002,572.8476,761.7251,558.8028,763.3542,543.3287,764.1348,529.8899,764.935,511.6626,763.6762,500.0313,763.5363,484.9882,761.5564,470.514,758.8243,460.3721,756.3875,450.182,752.9738,442.5581,749.3472,436.2468,745.1823,432.5704,740.9175,430.4988,736.3353,431.4634,731.9457,434.9633,727.7195,441.8236,724.023,449.1686,720.1684,458.3523,716.6922,473.4697,714.9235,482.7421,711.6235,499.1758,710.6817,511.7135,709.0562,529.3867,709.4745,543.3296,709.5004,555.919,709.9161,571.8793,712.1598,584.3446,714.3139,595.2155,716.9604,604.8119,720.2034,613.7695,724.2137,618.7952,728.0086,624.5195,732.8628,623.5068,736.5575" style="stroke:#181818;stroke-width:0.5;"/><text fill="#000000" font-family="sans-serif" font-size="14" font-style="italic" lengthAdjust="spacing" textLength="115" x="466.1178" y="732.4791">&#171;user-interaction&#187;</text><text fill="#000000" font-family="sans-serif" font-size="14" lengthAdjust="spacing" textLength="121" x="463.1178" y="750.0885">Show reaction data</text></g><g id="elem_DownloadReactions"><polygon fill="#F1F1F1" points="647.1421,829.7574,644.7216,834.2644,635.4831,837.6937,624.8827,841.1103,616.1318,845.0785,599.6215,847.341,584.5382,849.7722,566.8348,851.3409,547.3297,852.0925,530.3901,852.8629,507.4147,851.6509,492.7534,851.5161,473.7915,849.6098,455.5469,846.9791,442.763,844.6327,429.9184,841.3457,420.3085,837.8537,412.353,833.8434,407.719,829.7369,405.1077,825.3247,406.3236,821.098,410.7352,817.0288,419.3826,813.4695,428.641,809.758,440.2171,806.4108,459.2725,804.7077,470.9604,801.5302,491.675,800.6234,507.4787,799.0582,529.7558,799.4609,547.3308,799.4859,563.1998,799.8861,583.3177,802.0466,599.0302,804.1207,612.7329,806.669,624.8293,809.7916,636.1202,813.6531,642.4551,817.3072,649.6706,821.9811,648.394,825.5387" style="stroke:#181818;stroke-width:0.5;"/><text fill="#000000" font-family="sans-serif" font-size="14" font-style="italic" lengthAdjust="spacing" textLength="115" x="463.9523" y="820.0119">&#171;user-interaction&#187;</text><text fill="#000000" font-family="sans-serif" font-size="14" lengthAdjust="spacing" textLength="166" x="438.4523" y="837.6213">Download reactions offline</text></g><g id="elem_ShowInsights"><polygon fill="#F1F1F1" points="609.9593,918.9255,608.2916,923.6042,601.9262,927.1642,594.6225,930.711,588.593,934.8304,577.2173,937.1792,566.8249,939.703,554.6271,941.3315,541.1879,942.1117,529.5165,942.9115,513.6863,941.6533,503.5846,941.5134,490.5197,939.5344,477.9491,936.8034,469.1409,934.3677,460.2909,930.9553,453.6696,927.3303,448.1883,923.1671,444.9954,918.9041,443.1962,914.3238,444.0339,909.9361,447.0736,905.7117,453.0317,902.0168,459.4108,898.1638,467.3868,894.6891,480.5161,892.921,488.5691,889.6224,502.8416,888.6811,513.7304,887.0562,529.0794,887.4743,541.1887,887.5002,552.1226,887.9157,565.9839,890.1586,576.8099,892.3117,586.2512,894.9571,594.5856,898.1987,602.3651,902.2074,606.7299,906.0007,611.7014,910.8528,610.8219,914.5459" style="stroke:#181818;stroke-width:0.5;"/><text fill="#000000" font-family="sans-serif" font-size="14" font-style="italic" lengthAdjust="spacing" textLength="115" x="470.4775" y="911.6212">&#171;user-interaction&#187;</text><text fill="#000000" font-family="sans-serif" font-size="14" lengthAdjust="spacing" textLength="86" x="484.9775" y="929.2306">Show Insights</text></g><g id="elem_CloseAccount"><polygon fill="#F1F1F1" points="618.8106,1009.7652,616.968,1014.4939,609.9351,1018.092,601.8654,1021.6766,595.2037,1025.84,582.635,1028.2138,571.1527,1030.7646,557.6759,1032.4105,542.8274,1033.1991,529.932,1034.0074,512.4417,1032.7358,501.2806,1032.5944,486.8457,1030.5942,472.9568,1027.8341,463.225,1025.3723,453.4468,1021.9236,446.1312,1018.2598,440.075,1014.0522,436.5474,1009.7437,434.5595,1005.1144,435.4851,1000.6798,438.8435,996.4103,445.4264,992.676,452.4745,988.7818,461.2868,985.27,475.793,983.4831,484.6905,980.1492,500.4597,979.1979,512.4904,977.5556,529.4491,977.9782,542.8282,978.0044,554.9087,978.4244,570.2236,980.6911,582.1849,982.8673,592.6162,985.5409,601.8247,988.8171,610.42,992.8686,615.2425,996.7024,620.7354,1001.6063,619.7636,1005.3389" style="stroke:#181818;stroke-width:0.5;"/><text fill="#000000" font-family="sans-serif" font-size="14" font-style="italic" lengthAdjust="spacing" textLength="115" x="467.9815" y="1001.2627">&#171;user-interaction&#187;</text><text fill="#000000" font-family="sans-serif" font-size="14" lengthAdjust="spacing" textLength="114" x="468.4815" y="1018.8721">Close the account</text></g><g id="elem_RefundPayment"><polygon fill="#F1F1F1" points="988.2437,1009.6491,986.2455,1014.2872,978.6189,1017.8163,969.868,1021.3322,962.6439,1025.4158,949.0141,1027.7442,936.5625,1030.2461,921.9479,1031.8604,905.8459,1032.6339,891.8618,1033.4268,872.895,1032.1795,860.7917,1032.0408,845.1382,1030.0789,830.0768,1027.3717,819.5233,1024.9571,808.9197,1021.5744,800.9865,1017.9809,794.4191,1013.8539,790.5936,1009.6279,788.4379,1005.0874,789.4416,1000.7378,793.0835,996.5501,800.2222,992.8873,807.8653,989.0678,817.4216,985.6232,833.1523,983.8705,842.801,980.6006,859.9015,979.6674,872.9479,978.0567,891.3381,978.4712,905.8468,978.4968,918.9471,978.9087,935.555,981.1321,948.526,983.2665,959.838,985.8889,969.8238,989.1024,979.1448,993.0762,984.3744,996.8366,990.331,1001.6465,989.2772,1005.3076" style="stroke:#181818;stroke-width:0.5;"/><text fill="#000000" font-family="sans-serif" font-size="14" font-style="italic" lengthAdjust="spacing" textLength="115" x="826.2679" y="1001.2273">&#171;user-interaction&#187;</text><text fill="#000000" font-family="sans-serif" font-size="14" lengthAdjust="spacing" textLength="128" x="819.7679" y="1018.8367">Refund the payment</text></g><g id="elem_StartEvent"><polygon fill="#F1F1F1" points="611.0231,1100.7924,609.3345,1105.5251,602.8897,1109.1262,595.4949,1112.7139,589.3903,1116.8808,577.8727,1119.2567,567.3506,1121.8096,555.0007,1123.4568,541.3939,1124.2461,529.5769,1125.0551,513.5492,1123.7824,503.3215,1123.6409,490.0937,1121.639,477.3663,1118.8766,468.4483,1116.4127,459.4878,1112.9611,452.784,1109.2942,447.2343,1105.083,444.0016,1100.7708,442.18,1096.1377,443.0281,1091.6993,446.1057,1087.4262,452.1381,1083.6887,458.5968,1079.7913,466.6722,1076.2765,479.9653,1074.488,488.1188,1071.1514,502.5692,1070.1992,513.5939,1068.5556,529.1344,1068.9785,541.3947,1069.0048,552.4649,1069.425,566.4992,1071.6937,577.4602,1073.8717,587.0192,1076.5476,595.4576,1079.8266,603.3342,1083.8815,607.7534,1087.7186,612.7869,1092.6266,611.8964,1096.3624" style="stroke:#181818;stroke-width:0.5;"/><text fill="#000000" font-family="sans-serif" font-size="14" font-style="italic" lengthAdjust="spacing" textLength="115" x="470.5187" y="1092.9874">&#171;user-interaction&#187;</text><text fill="#000000" font-family="sans-serif" font-size="14" lengthAdjust="spacing" textLength="93" x="481.5187" y="1110.5967">Start the event</text></g><g id="elem_LoadConfiguration"><polygon fill="#F1F1F1" points="1000.589,1099.4709,998.3403,1104.0092,989.7579,1107.4624,979.9103,1110.9028,971.7808,1114.8986,956.4429,1117.1769,942.4307,1119.625,925.9845,1121.2046,907.8645,1121.9614,892.1278,1122.7373,870.7839,1121.5168,857.1638,1121.3811,839.5485,1119.4614,822.5995,1116.8124,810.7234,1114.4497,798.7909,1111.1398,789.8634,1107.6235,782.4729,1103.5853,778.168,1099.4502,775.7421,1095.0073,776.8716,1090.7512,780.97,1086.6535,789.0033,1083.0695,797.6043,1079.3321,808.3583,1075.9616,826.0605,1074.2466,836.9184,1071.047,856.162,1070.1339,870.8434,1068.5578,891.5385,1068.9634,907.8655,1068.9885,922.6076,1069.3915,941.2969,1071.5671,955.8936,1073.6556,968.6232,1076.2217,979.8606,1079.366,990.3497,1083.2544,996.2348,1086.9339,1002.9379,1091.6404,1001.752,1095.2227" style="stroke:#181818;stroke-width:0.5;"/><text fill="#000000" font-family="sans-serif" font-size="14" font-style="italic" lengthAdjust="spacing" textLength="115" x="825.9854" y="1090.216">&#171;system-process&#187;</text><text fill="#000000" font-family="sans-serif" font-size="14" lengthAdjust="spacing" textLength="150" x="808.4854" y="1107.8254">Load feed configuration</text></g><g id="elem_ProcessFeed"><polygon fill="#F1F1F1" points="972.1652,1203.6622,970.4954,1210.4345,964.1221,1215.5875,956.8093,1220.7214,950.7724,1226.6841,939.3825,1230.0839,928.9771,1233.737,916.7642,1236.0942,903.3083,1237.2236,891.6223,1238.3813,875.7724,1236.56,865.6581,1236.3575,852.577,1233.4929,839.9907,1229.54,831.1716,1226.0143,822.3105,1221.0751,815.681,1215.8279,810.1929,1209.8019,806.996,1203.6313,805.1946,1197.0014,806.0334,1190.6503,809.0768,1184.5356,815.0423,1179.1874,821.4294,1173.6103,829.4153,1168.5807,842.5609,1166.0215,850.6239,1161.2469,864.9142,1159.8844,875.8166,1157.5324,891.1847,1158.1376,903.309,1158.1751,914.2565,1158.7766,928.1351,1162.023,938.9746,1165.1396,948.4276,1168.9687,956.7724,1173.6608,964.5616,1179.4632,968.9318,1184.954,973.9095,1191.9772,973.0289,1197.323" style="stroke:#181818;stroke-width:0.5;"/><text fill="#000000" font-family="sans-serif" font-size="14" font-style="italic" lengthAdjust="spacing" textLength="115" x="832.5814" y="1185.802">&#171;system-process&#187;</text><text fill="#000000" font-family="sans-serif" font-size="14" lengthAdjust="spacing" textLength="75" x="850.5814" y="1203.4114">Process the</text><text fill="#000000" font-family="sans-serif" font-size="14" lengthAdjust="spacing" textLength="91" x="844.5814" y="1221.0208">feed  real-time</text></g><g id="elem_IdentifyPerson"><polygon fill="#F1F1F1" points="1369.1106,1118.915,1366.5896,1123.5922,1356.9676,1127.1511,1345.9272,1130.6967,1336.813,1134.8147,1319.6173,1137.1627,1303.9079,1139.6857,1285.4697,1141.3136,1265.1548,1142.0936,1247.5121,1142.8932,1223.5829,1141.6354,1208.313,1141.4955,1188.5641,1139.5171,1169.5621,1136.7871,1156.2476,1134.3521,1142.8697,1130.9409,1132.8609,1127.3171,1124.5752,1123.1553,1119.7489,1118.8937,1117.0292,1114.3149,1118.2955,1109.9286,1122.8903,1105.7056,1131.8966,1102.0119,1141.5394,1098.1602,1153.596,1094.6866,1173.4424,1092.9191,1185.6154,1089.6216,1207.1899,1088.6806,1223.6497,1087.0562,1246.8514,1087.4742,1265.156,1087.5001,1281.6838,1087.9155,1302.6368,1090.1576,1319.0014,1092.31,1333.273,1094.9545,1345.8715,1098.1951,1357.6311,1102.2024,1364.229,1105.9945,1371.744,1110.845,1370.4144,1114.5369" style="stroke:#181818;stroke-width:0.5;"/><text fill="#000000" font-family="sans-serif" font-size="14" font-style="italic" lengthAdjust="spacing" textLength="115" x="1181.6913" y="1107.7436">&#171;system-process&#187;</text><text fill="#000000" font-family="sans-serif" font-size="14" lengthAdjust="spacing" textLength="190" x="1144.1913" y="1125.353">Detect and identify the person</text></g><g id="elem_CaptureReaction"><polygon fill="#F1F1F1" points="1346.4223,1208.9302,1344.3567,1213.5361,1336.4732,1217.0407,1327.4275,1220.5322,1319.96,1224.5875,1305.8711,1226.8997,1293,1229.3843,1277.893,1230.9874,1261.2485,1231.7555,1246.7934,1232.5429,1227.1876,1231.3042,1214.6766,1231.1665,1198.4957,1229.2183,1182.9269,1226.5298,1172.0179,1224.132,1161.0571,1220.7728,1152.8566,1217.2042,1146.0679,1213.1058,1142.1136,1208.9092,1139.8853,1204.4002,1140.9228,1200.0807,1144.6874,1195.9221,1152.0665,1192.2847,1159.9671,1188.4917,1169.8454,1185.0711,1186.1061,1183.3305,1196.0798,1180.0833,1213.7563,1179.1566,1227.2422,1177.557,1246.2521,1177.9686,1261.2495,1177.9942,1274.7911,1178.4032,1291.9585,1180.6111,1305.3665,1182.7307,1317.0596,1185.335,1327.3818,1188.5261,1337.0168,1192.4723,1342.4226,1196.2066,1348.5799,1200.9832,1347.4906,1204.6188" style="stroke:#181818;stroke-width:0.5;"/><text fill="#000000" font-family="sans-serif" font-size="14" font-style="italic" lengthAdjust="spacing" textLength="115" x="1181.0361" y="1200.2485">&#171;system-process&#187;</text><text fill="#000000" font-family="sans-serif" font-size="14" lengthAdjust="spacing" textLength="130" x="1171.5361" y="1217.8578">Capture the reaction</text></g><g id="elem_ValidateReaction"><polygon fill="#F1F1F1" points="1749.4605,1140.5727,1747.4399,1145.1996,1739.728,1148.7201,1730.8793,1152.2275,1723.5744,1156.3012,1709.7922,1158.624,1697.2014,1161.1198,1682.4233,1162.7302,1666.1413,1163.5018,1652.0008,1164.2928,1632.8219,1163.0485,1620.5833,1162.9102,1604.7547,1160.9531,1589.5249,1158.2524,1578.8535,1155.8437,1568.1313,1152.4692,1560.1094,1148.8843,1553.4685,1144.7673,1549.6002,1140.5516,1547.4204,1136.0221,1548.4353,1131.683,1552.118,1127.5054,1559.3365,1123.8515,1567.065,1120.0412,1576.7282,1116.605,1592.6349,1114.8566,1602.3914,1111.5945,1619.6831,1110.6636,1632.8754,1109.0568,1651.4713,1109.4703,1666.1422,1109.4959,1679.389,1109.9068,1696.1826,1112.1248,1709.2986,1114.254,1720.7371,1116.8701,1730.8346,1120.0757,1740.2598,1124.04,1745.5479,1127.7912,1751.5711,1132.5895,1750.5055,1136.2417" style="stroke:#181818;stroke-width:0.5;"/><text fill="#000000" font-family="sans-serif" font-size="14" font-style="italic" lengthAdjust="spacing" textLength="115" x="1586.3368" y="1132.0642">&#171;system-process&#187;</text><text fill="#000000" font-family="sans-serif" font-size="14" lengthAdjust="spacing" textLength="130" x="1578.8368" y="1149.6736">Validate the reaction</text></g><g id="elem_SaveReaction"><polygon fill="#F1F1F1" points="1739.0186,1231.918,1737.2091,1236.6692,1730.3028,1240.2843,1722.3785,1243.886,1715.8367,1248.0691,1703.4944,1250.4543,1692.2189,1253.0172,1678.9847,1254.6709,1664.4036,1255.4632,1651.7404,1256.2754,1634.5651,1254.9977,1623.605,1254.8556,1609.4301,1252.846,1595.7913,1250.0727,1586.2347,1247.5993,1576.6326,1244.1341,1569.4488,1240.4529,1563.5017,1236.2253,1560.0375,1231.8963,1558.0854,1227.2451,1558.9943,1222.7894,1562.2923,1218.4997,1568.7566,1214.7475,1575.6778,1210.8349,1584.3315,1207.3064,1598.5764,1205.511,1607.3137,1202.1613,1622.7989,1201.2054,1634.613,1199.5554,1651.2662,1199.98,1664.4044,1200.0063,1676.2674,1200.4282,1691.3065,1202.7058,1703.0524,1204.8922,1713.2959,1207.5786,1722.3385,1210.8704,1730.7791,1214.9411,1735.5147,1218.7932,1740.9087,1223.7204,1739.9544,1227.4707" style="stroke:#181818;stroke-width:0.5;"/><text fill="#000000" font-family="sans-serif" font-size="14" font-style="italic" lengthAdjust="spacing" textLength="115" x="1590.5706" y="1223.3955">&#171;system-process&#187;</text><text fill="#000000" font-family="sans-serif" font-size="14" lengthAdjust="spacing" textLength="111" x="1592.5706" y="1241.0049">Save the reaction</text></g><g id="elem_GenerateInsights"><polygon fill="#F1F1F1" points="981.1124,908.6363,979.2617,915.4048,972.1979,920.555,964.0929,925.6859,957.4019,931.6452,944.7781,935.0431,933.2455,938.6942,919.7095,941.0501,904.7959,942.1788,891.8439,943.3359,874.2769,941.5156,863.0669,941.3133,848.5687,938.4503,834.6189,934.4996,824.8444,930.9759,815.0233,926.0394,807.6756,920.7952,801.5929,914.7725,798.0498,908.6054,796.0532,901.9793,796.9828,895.6317,800.356,889.5205,806.9677,884.1752,814.0467,878.6013,822.8978,873.5746,837.4675,871.0168,846.404,866.2449,862.2424,864.8831,874.3259,862.5325,891.3589,863.1373,904.7967,863.1748,916.9302,863.7759,932.3123,867.0205,944.326,870.1354,954.8031,873.9624,964.052,878.6518,972.6851,884.451,977.5287,889.9386,983.0457,896.9579,982.0696,902.3006" style="stroke:#181818;stroke-width:0.5;"/><text fill="#000000" font-family="sans-serif" font-size="14" font-style="italic" lengthAdjust="spacing" textLength="115" x="829.3861" y="889.5112">&#171;system-process&#187;</text><text fill="#000000" font-family="sans-serif" font-size="14" lengthAdjust="spacing" textLength="112" x="828.8861" y="907.1205">Generate insights</text><text fill="#000000" font-family="sans-serif" font-size="14" lengthAdjust="spacing" textLength="78" x="847.8861" y="924.7299">on reactions</text></g><g id="elem_HandlePayment"><polygon fill="#F1F1F1" points="1342.0325,985.7285,1340.0566,990.3782,1332.515,993.9162,1323.8618,997.441,1316.7182,1001.5349,1303.2405,1003.8692,1290.9278,1006.3774,1276.4762,1007.9957,1260.5537,1008.7712,1246.7257,1009.566,1227.9704,1008.3156,1216.0021,1008.1765,1200.5232,1006.2098,1185.6298,1003.4957,1175.194,1001.0751,1164.7087,997.6839,1156.864,994.0813,1150.3698,989.9439,1146.587,985.7073,1144.4553,981.1553,1145.4478,976.7947,1149.0492,972.5965,1156.1081,968.9245,1163.666,965.0953,1173.1157,961.6421,1188.671,959.885,1198.2121,956.6069,1215.1218,955.6713,1228.0227,954.0565,1246.2078,954.4721,1260.5546,954.4978,1273.5088,954.9107,1289.9315,957.1397,1302.7578,959.2795,1313.9436,961.9085,1323.8181,965.13,1333.0351,969.1139,1338.2064,972.8837,1344.0966,977.7058,1343.0545,981.3761" style="stroke:#181818;stroke-width:0.5;"/><text fill="#000000" font-family="sans-serif" font-size="14" font-style="italic" lengthAdjust="spacing" textLength="115" x="1181.6523" y="977.2963">&#171;system-process&#187;</text><text fill="#000000" font-family="sans-serif" font-size="14" lengthAdjust="spacing" textLength="126" x="1176.1523" y="994.9057">Handle the payment</text></g><!--link Client to UI--><g id="link_Client_UI"><path d="M108.07,570.6094 L108.07,570.8896 L117.5811,570.0569 L127.0922,570.8671 L136.6033,571.1423 L146.1144,569.6582 L155.6256,570.5058 L165.1367,570.0407 L174.6478,570.098 L184.1589,570.5185 L193.67,570.6094 " fill="none" style="stroke:#181818;stroke-width:1.0;"/><polygon fill="#181818" points="199.67,570.6094,199.6985,570.6734,197.8139,569.6832,196.0962,569.0683,194.3241,568.3311,192.3734,567.1921,190.67,566.6094,190.6517,566.5911,191.3695,567.3088,192.1796,568.119,193.0539,568.9933,193.707,569.6464,194.67,570.6094,194.8005,570.7399,193.7214,571.2608,193.0234,572.1628,192.3718,573.1112,191.4498,573.7892,190.67,574.6094,190.6792,574.6302,192.4657,573.7996,194.2942,573.0638,196.1024,572.2822,197.9493,571.5878,199.67,570.6094" style="stroke:#181818;stroke-width:1.0;"/><text fill="#000000" font-family="sans-serif" font-size="13" lengthAdjust="spacing" textLength="30" x="139" y="567.1045">Uses</text></g><!--link UI to OpenAccount--><g id="link_UI_OpenAccount"><path d="M251.75,522.3994 L251.8434,522.4017 L251.6617,518.603 L252.0274,514.8181 L252.2148,511.0287 L251.816,507.2245 L252.2287,503.4408 L252.1942,503.4392 L252.2384,499.1703 L252.4565,494.9095 L252.7955,490.6543 L252.7178,486.3797 L253.2238,482.1324 L253.4693,482.1481 L253.0906,479.8276 L253.4289,477.5531 L253.8547,475.2842 L253.7715,472.9826 L253.956,470.6983 L253.9862,470.7006 L254.1239,468.3172 L254.3993,465.9443 L254.6083,463.5664 L254.944,461.1981 L254.8666,458.7983 L255.1637,458.8249 L255.3884,456.3602 L255.4215,453.8782 L255.7351,451.4214 L256.0618,448.9658 L255.972,446.4729 L255.6532,446.4399 L256.5353,443.9619 L256.3676,441.3752 L256.9981,438.8712 L256.8066,436.282 L257.2888,433.7627 L257.2585,433.7591 L257.9249,431.1905 L257.885,428.5383 L258.2619,425.9354 L258.6737,423.3367 L258.8331,420.7081 L259.0165,420.7326 L259.1891,418.0362 L259.6751,415.3817 L259.6541,412.6593 L260.3892,410.0381 L260.6217,407.3497 L260.8626,407.3859 L261.2269,404.6547 L261.7107,401.9415 L261.6388,399.1447 L261.9743,396.4092 L262.6708,393.728 L262.3984,393.6822 L263.1102,390.9547 L263.5151,388.1757 L264.3651,385.4715 L264.4551,382.6395 L264.9969,379.8835 L264.847,379.8555 L265.6205,377.0968 L265.7534,374.2184 L266.3418,371.4251 L267.376,368.715 L267.6164,365.8567 L267.806,365.896 L268.522,363.0891 L268.6481,360.1604 L269.513,357.3844 L270.2169,354.5751 L270.5458,351.6883 L270.3411,351.6416 L271.1554,348.8248 L271.9027,345.9928 L272.7817,343.1909 L273.1486,340.2721 L273.8015,337.4185 L274.0009,337.4686 L274.2825,334.4925 L274.949,331.6131 L276.1777,328.8748 L276.3713,325.8766 L277.4,323.0881 L277.6181,323.1483 L278.2801,320.2424 L278.8683,317.3162 L279.623,314.436 L280.7627,311.6618 L281.3576,308.7375 L281.2303,308.699 L282.4761,305.9476 L282.8558,302.9343 L284.2203,300.2188 L285.0303,297.3356 L285.6909,294.4072 L285.7943,294.4415 L286.6559,291.56 L287.8876,288.801 L288.785,285.9313 L289.5426,283.0154 L290.4162,280.1378 L290.5283,280.1784 L291.3885,277.2845 L292.7691,274.5791 L293.5612,271.6605 L294.5954,268.8295 L295.55,265.9698 L295.2986,265.8702 L296.4943,263.0982 L297.9928,260.4462 L299.0628,257.6245 L299.9792,254.7418 L301.1087,251.9436 L300.9773,251.8867 L302.2195,249.1362 L303.2289,246.2849 L304.8779,243.7107 L306.2104,240.9994 L307.1088,238.0999 L307.3202,238.2001 L308.6794,235.508 L309.637,232.6255 L311.0185,229.944 L312.1194,227.1294 L313.5667,224.4791 L313.6787,224.5372 L315.0504,221.8581 L316.5574,219.2492 L317.6353,216.4176 L319.0593,213.7657 L320.4988,211.1217 L320.6701,211.2191 L322.2025,208.6357 L323.2698,205.7878 L324.8775,203.2471 L326.4946,200.7118 L327.9215,198.0683 L327.6912,197.9246 L329.6407,195.6097 L331.1907,193.0455 L332.6414,190.4193 L334.319,187.9347 L335.8514,185.3594 L336.1184,185.5426 L337.4274,182.816 L339.3482,180.5091 L341.0281,178.0369 L342.6565,175.5294 L344.3048,173.0355 L344.3547,173.0733 L346.1437,170.6863 L347.6808,168.1089 L349.5587,165.7891 L351.3358,163.3932 L353.2981,161.1372 L353.3199,161.1554 L355.2381,158.8758 L357.1732,156.6103 L358.9287,154.1949 L360.9149,151.9721 L362.8479,149.7049 L362.8087,149.6685 L365.0605,147.6939 L367.036,145.4634 L368.7632,143.0027 L370.9222,140.9422 L372.9705,138.7791 L372.792,138.5948 L375.2021,136.7954 L377.4434,134.8219 L379.5661,132.7257 L381.4053,130.3371 L383.6824,128.4004 L383.8173,128.5564 L385.7299,126.1926 L388.2676,124.5513 L390.3859,122.4252 L392.7646,120.6001 L395,118.6094 L395.0637,118.6951 L397.6045,116.9342 L399.7677,114.6656 L402.5641,113.2484 L404.9645,111.2988 L407.3966,109.3917 L407.4778,109.5272 L410.063,108.1797 L412.3888,106.3997 L414.923,104.9674 L417.4272,103.4849 L419.8739,101.9064 L419.9113,101.9857 L422.5045,100.6633 L425.2704,99.7064 L427.6506,97.933 L430.5045,97.1624 L433.028,95.6924 L432.9307,95.4327 L435.8292,94.3867 L438.8051,93.5475 L441.6887,92.4618 L444.4929,91.1642 L447.4552,90.2885 " fill="none" style="stroke:#181818;stroke-width:1.0;"/><polygon fill="#181818" points="453.14,88.3694,453.1465,88.4391,451.1659,88.0496,449.2233,88.0691,447.2684,87.9553,445.2727,87.4037,443.3334,87.4582,443.3219,87.435,444.2841,87.8329,445.3044,88.3478,446.3649,88.9441,447.2865,89.2601,448.4027,89.9687,448.568,90.0506,447.7123,90.8893,447.3394,91.9671,447.0254,93.0741,446.3687,94.0114,445.8922,95.038,445.9076,95.0547,447.3346,93.6964,448.8316,92.4143,450.2949,91.0955,451.8226,89.8468,453.14,88.3694" style="stroke:#181818;stroke-width:1.0;"/><text fill="#000000" font-family="sans-serif" font-size="13" lengthAdjust="spacing" textLength="30" x="334" y="151.1045">Does</text></g><!--link UI to Login--><g id="link_UI_Login"><path d="M257.63,522.4394 L257.7224,522.4532 L257.9097,519.3366 L258.6385,516.3012 L259.191,513.2393 L259.1635,510.0904 L259.9388,507.062 L259.9048,507.0562 L260.3274,503.6476 L260.9217,500.2681 L261.6353,496.9089 L261.9377,493.4798 L262.8161,490.1486 L263.0577,490.195 L263.2416,486.4482 L264.1311,482.8369 L265.1066,479.2422 L265.5812,475.5512 L266.3193,471.9108 L266.349,471.9172 L267.1428,468.0377 L268.0716,464.1874 L268.9353,460.323 L269.9232,456.4855 L270.5061,452.5603 L270.7959,452.6308 L271.785,448.5814 L272.5872,444.4864 L273.663,440.4581 L274.7516,436.4328 L275.4339,432.3087 L275.1241,432.2265 L276.2773,430.3066 L276.4104,428.1159 L277.3191,426.1311 L277.4291,423.9343 L278.1937,421.9112 L278.1644,421.903 L279.1043,419.8918 L279.3594,417.688 L280.0187,415.5978 L280.7118,413.5172 L281.1603,411.3678 L281.3375,411.4207 L281.7947,409.2347 L282.5548,407.1391 L282.8248,404.8973 L283.8259,402.8736 L284.3409,400.7049 L284.5732,400.7784 L285.2096,398.6133 L285.9614,396.4848 L286.1773,394.1867 L286.786,392.0129 L287.7427,389.9491 L287.4809,389.8613 L288.4439,387.7763 L289.112,385.5924 L290.208,383.552 L290.5733,381.2665 L291.3729,379.1268 L291.2293,379.0756 L292.2417,376.9883 L292.64,374.6824 L293.4751,372.532 L294.7373,370.5336 L295.2388,368.2644 L295.4199,368.3328 L296.3658,366.2045 L296.7484,363.8634 L297.8366,361.7889 L298.7711,359.6563 L299.3474,357.3884 L299.1525,357.3102 L300.1795,355.1999 L301.1428,353.064 L302.2313,350.9784 L302.8325,348.6972 L303.7059,346.5253 L303.895,346.6059 L304.4027,344.264 L305.2754,342.0777 L306.6813,340.1188 L307.1054,337.7413 L308.3217,335.7015 L308.5277,335.7949 L309.3813,333.5878 L310.1653,331.3491 L311.1065,329.1817 L312.4114,327.1793 L313.2018,324.9435 L313.082,324.8856 L314.469,322.9247 L315.0412,320.5703 L316.5399,318.6634 L317.5169,316.5045 L318.3534,314.2777 L318.4502,314.3275 L319.4582,312.1779 L320.8127,310.2067 L321.8541,308.0743 L322.7646,305.8745 L323.7838,303.7306 L323.8883,303.788 L324.8763,301.6224 L326.3494,299.7232 L327.2739,297.5226 L328.4241,295.4461 L329.5001,293.3287 L329.267,293.1918 L330.5467,291.1915 L332.1073,289.3561 L333.2705,287.2873 L334.2912,285.1348 L335.5095,283.0984 L335.3883,283.0222 L336.6891,281.0402 L337.7753,278.9232 L339.4514,277.1772 L340.8356,275.2477 L341.8193,273.0662 L342.0132,273.1971 L343.3987,271.2774 L344.4158,269.1092 L345.8217,267.2033 L346.9702,265.1237 L348.4365,263.2585 L348.5387,263.3327 L349.9117,261.4116 L351.408,259.58 L352.513,257.4646 L353.9337,255.5781 L355.3684,253.7019 L355.5237,253.8232 L357.0178,252.0013 L358.0905,249.8499 L359.6528,248.0812 L361.2237,246.3193 L362.6222,244.4226 L362.4148,244.2474 L364.2588,242.7289 L365.7429,240.9065 L367.1377,239.0085 L368.7368,237.2832 L370.2051,235.4473 L370.4439,235.666 L371.6864,233.6244 L373.476,232.0839 L375.0502,230.3461 L376.5783,228.5661 L378.1242,226.8023 L378.1686,226.8466 L379.8124,225.1803 L381.2328,223.2912 L382.9556,221.7037 L384.589,220.027 L386.3868,218.5142 L386.406,218.5351 L388.1359,216.9621 L389.8807,215.4052 L391.4673,213.676 L393.2571,212.1682 L395,210.6094 L394.9668,210.5675 L397.5914,208.8827 L399.9821,206.9027 L402.1624,204.6574 L404.7085,202.8735 L407.1608,200.9713 L407.0245,200.754 L409.7023,199.5287 L412.2513,198.098 L414.7097,196.5227 L416.9517,194.6024 L419.528,193.2151 L419.6178,193.4008 L422.0129,191.6465 L424.8241,190.7522 L427.3561,189.2809 L430.0615,188.1679 L432.6714,186.8577 L432.709,186.9577 L435.6431,185.9658 L438.3548,184.3814 L441.4395,183.7905 L444.2909,182.5784 L447.161,181.4159 " fill="none" style="stroke:#181818;stroke-width:1.0;"/><polygon fill="#181818" points="452.85,179.5094,452.8566,179.5791,450.876,179.1853,448.9343,179.2004,446.9799,179.0823,444.9838,178.5263,443.0454,178.5765,443.0339,178.5533,443.9948,178.9536,445.0139,179.4707,446.0735,180.0692,446.9937,180.3875,448.1091,181.0982,448.2743,181.1804,447.4167,182.0172,447.0415,183.0943,446.725,184.2006,446.0662,185.1364,445.5875,186.1619,445.6028,186.1786,447.0328,184.8235,448.5327,183.5448,449.9988,182.2292,451.5294,180.9838,452.85,179.5094" style="stroke:#181818;stroke-width:1.0;"/><text fill="#000000" font-family="sans-serif" font-size="13" lengthAdjust="spacing" textLength="30" x="334" y="245.1045">Does</text></g><!--link Login to ValidateSubscription--><g id="link_Login_ValidateSubscription"><path d="M616.15,164.6094 L616.15,164.8896 L626.4338,164.0569 L636.7175,164.8671 L647.0013,165.1423 L657.285,163.6582 L667.5688,164.5058 L677.8525,164.0407 L688.1363,164.098 L698.42,164.5185 L708.7038,163.6875 L718.9875,165.3476 L729.2713,163.769 L739.555,164.3457 L749.8388,165.1853 L760.1225,164.495 L770.4063,164.7004 L780.69,164.6094 " fill="none" style="stroke:#181818;stroke-width:1.0;"/><polygon fill="#181818" points="786.69,164.6094,786.7185,164.6734,784.8339,163.6832,783.1162,163.0683,781.3441,162.3311,779.3934,161.1921,777.69,160.6094,777.6717,160.5911,778.3895,161.3088,779.1996,162.119,780.0739,162.9933,780.727,163.6464,781.69,164.6094,781.8205,164.7399,780.7414,165.2608,780.0434,166.1628,779.3918,167.1112,778.4698,167.7892,777.69,168.6094,777.6992,168.6302,779.4857,167.7996,781.3142,167.0638,783.1224,166.2822,784.9693,165.5878,786.69,164.6094" style="stroke:#181818;stroke-width:1.0;"/><text fill="#000000" font-family="sans-serif" font-size="13" lengthAdjust="spacing" textLength="30" x="700" y="161.1045">Uses</text></g><!--link UI to ConfigureCamera--><g id="link_UI_ConfigureCamera"><path d="M269.08,522.1594 L269.1669,522.1936 L269.7466,519.9672 L270.8358,517.9418 L271.7591,515.8509 L272.1368,513.5448 L273.2697,511.5365 L273.2378,511.5234 L274.0284,509.2036 L274.98,506.9502 L276.0434,504.7431 L276.7213,502.3768 L277.9392,500.2335 L278.165,500.3314 L278.7125,497.7458 L279.9192,495.4459 L281.2063,493.181 L282.0255,490.7132 L283.0908,488.352 L283.1184,488.3646 L284.2051,485.8745 L285.4174,483.4418 L286.5692,480.9813 L287.8365,478.5737 L288.7269,475.9941 L288.9957,476.1233 L290.2235,473.5784 L291.278,470.9501 L292.5863,468.4438 L293.9064,465.9432 L294.8497,463.2615 L294.564,463.1162 L296.4409,460.797 L297.3771,457.9996 L299.0284,455.5657 L299.9432,452.7574 L301.4617,450.2561 L301.4349,450.2416 L303.1725,447.7772 L304.284,444.9753 L305.765,442.3725 L307.277,439.7864 L308.5652,437.0797 L308.7257,437.1718 L310.0832,434.4298 L311.7148,431.8451 L312.9029,429.0059 L314.7527,426.5463 L316.1625,423.8344 L316.3703,423.9616 L317.9497,421.2951 L319.6322,418.6917 L320.8355,415.7947 L322.3901,413.1129 L324.256,410.6218 L324.0252,410.4702 L325.9525,407.9919 L327.6198,405.3427 L329.6643,402.9414 L331.0647,400.1169 L332.848,397.5439 L332.7235,397.4558 L334.7493,395.0343 L336.2432,392.2361 L338.1154,389.7058 L340.3576,387.4376 L341.9408,384.7026 L342.0944,384.8205 L344.119,382.4008 L345.6658,379.6144 L347.811,377.2872 L349.8258,374.86 L351.5369,372.1997 L351.3759,372.0649 L353.5245,369.7598 L355.6204,367.4106 L357.8199,365.1481 L359.6167,362.5484 L361.6385,360.137 L361.7897,360.2763 L363.5793,357.6662 L365.6609,355.3249 L368.1688,353.3764 L369.8917,350.7048 L372.248,348.6165 L372.4061,348.7782 L374.5361,346.5069 L376.6126,344.1808 L378.8099,341.9782 L381.2863,340.0611 L383.3677,337.74 L383.2803,337.6397 L385.8669,335.9123 L387.8593,333.5025 L390.5273,331.8686 L392.8149,329.7978 L395,327.6094 L395.0657,327.6962 L397.688,325.6017 L400.5455,323.8182 L403.1905,321.7537 L405.7466,319.5719 L408.3765,317.4876 L408.4405,317.5881 L411.0344,315.7258 L413.9256,314.3302 L416.4805,312.4068 L419.1738,310.7005 L421.8216,308.9228 L421.6945,308.6842 L424.5433,307.2695 L427.5452,306.1424 L430.3305,304.6084 L433.0381,302.9287 L435.8535,301.4512 L435.7945,301.3207 L438.8408,299.9941 L441.7827,298.4363 L445.0117,297.5137 L448.0986,296.2768 L450.9906,294.6088 " fill="none" style="stroke:#181818;stroke-width:1.0;"/><polygon fill="#181818" points="456.52,292.2794,456.5214,292.3494,454.5479,292.1029,452.5825,292.2669,450.6144,292.2973,448.6378,291.8879,446.673,292.0872,446.6632,292.0632,447.6672,292.3822,448.7205,292.8222,449.808,293.3462,450.7774,293.5804,451.9122,294.2205,452.0831,294.2901,451.2909,295.1891,450.9978,296.2913,450.7656,297.4183,450.1791,298.4011,449.7789,299.4597,449.7955,299.4753,451.1193,298.0164,452.5187,296.6283,453.8817,295.2061,455.3141,293.8491,456.52,292.2794" style="stroke:#181818;stroke-width:1.0;"/><text fill="#000000" font-family="sans-serif" font-size="13" lengthAdjust="spacing" textLength="30" x="334" y="356.1045">Does</text></g><!--link UI to ConfigureFrame--><g id="link_UI_ConfigureFrame"><path d="M286.76,522.3094 L286.8331,522.3676 L288.6943,519.5862 L290.9838,517.1461 L293.1338,514.5949 L294.8252,511.6782 L297.1515,509.2674 L297.125,509.2452 L299.3028,506.4117 L301.6139,503.6902 L304.0176,501.0466 L306.102,498.1347 L308.6338,495.5986 L308.8174,495.7624 L310.9199,492.6144 L313.5586,489.9446 L316.2626,487.3331 L318.5861,484.3822 L321.1098,481.6099 L321.1317,481.6308 L323.774,478.7997 L326.5162,476.064 L329.2103,473.2822 L331.9962,470.5883 L334.4825,467.6081 L334.6898,467.8225 L337.5269,465.0836 L340.2301,462.2063 L343.1292,459.5315 L346.0374,456.8662 L348.6549,453.9003 L348.443,453.6598 L351.8293,451.5051 L354.5178,448.5586 L357.7368,446.2141 L360.4095,443.2496 L363.53,440.7933 L363.5112,440.7694 L366.8301,438.6123 L369.7089,435.8966 L372.8474,433.5105 L376.0077,431.1521 L379.0107,428.594 L379.1155,428.7465 L382.2076,426.3956 L385.4787,424.3054 L388.4602,421.7935 L391.8737,419.9105 L395,417.6094 L395.1253,417.8183 L397.4032,416.3987 L399.7434,415.0828 L401.7945,413.2848 L404.0574,411.8403 L406.5081,410.7087 L406.3803,410.4639 L408.7192,409.5245 L410.9141,408.3093 L413.3179,407.4942 L415.3649,405.996 L417.624,404.9038 L417.5621,404.7645 L419.9649,403.9743 L422.103,402.5885 L424.4293,401.6263 L426.9399,401.0784 L429.1224,399.7926 L429.1913,399.9736 L431.7697,399.1338 L434.1338,397.7312 L436.7663,397.0336 L439.3403,396.1823 L441.7781,394.9732 " fill="none" style="stroke:#181818;stroke-width:1.0;"/><polygon fill="#181818" points="447.43,392.9594,447.4353,393.0292,445.4554,392.6722,443.5067,392.7247,441.5478,392.6439,439.5556,392.1245,437.6095,392.2122,437.5984,392.1888,438.5707,392.5688,439.5989,393.0668,440.6661,393.6469,441.5991,393.9443,442.72,394.6376,442.8868,394.7167,442.0452,395.5696,441.6903,396.6535,441.3949,397.7656,440.7539,398.7137,440.2946,399.7481,440.3103,399.7646,441.7144,398.3826,443.1898,397.0757,444.6308,395.7326,446.1375,394.4586,447.43,392.9594" style="stroke:#181818;stroke-width:1.0;"/><text fill="#000000" font-family="sans-serif" font-size="13" lengthAdjust="spacing" textLength="30" x="334" y="438.1045">Does</text></g><!--link UI to CreateEvent--><g id="link_UI_CreateEvent"><path d="M303.25,535.4394 L303.2963,535.5205 L306.1083,533.5981 L309.1915,532.1515 L312.1865,530.5499 L314.891,528.4389 L317.9975,527.0331 L317.9822,527.0022 L320.9139,525.3785 L323.9229,523.9109 L326.9856,522.5517 L329.8632,520.8187 L333,519.6094 L333.0975,519.8353 L335.8226,518.0861 L338.8323,516.9966 L341.8767,515.9875 L344.7191,514.5102 L347.6678,513.2791 L347.679,513.3073 L350.6073,512.096 L353.5865,511.013 L356.5412,509.8681 L359.5428,508.8412 L362.3915,507.4294 L362.4941,507.7094 L365.4424,506.6325 L368.3245,505.375 L371.3035,504.3818 L374.287,503.4011 L377.1267,502.0277 L377.0237,501.7242 L380.164,501.3161 L382.9652,499.9086 L386.0242,499.2609 L388.8178,497.8307 L391.8289,497.0419 L391.8198,497.0128 L394.8528,496.4358 L397.6724,495.1802 L400.6179,494.3251 L403.574,493.5035 L406.4538,492.4394 L406.5059,492.617 L409.354,491.5875 L412.291,490.8614 L415.0842,489.6445 L418.0919,489.1597 L420.957,488.1881 L421.0215,488.4231 L423.8767,487.5921 L426.7639,486.8778 L429.5024,485.6215 L432.3499,484.7625 L435.294,484.2555 L435.225,483.9881 L438.1127,483.501 L440.9227,482.7125 L443.8455,482.3611 L446.5757,481.2634 L449.4203,480.6094 " fill="none" style="stroke:#181818;stroke-width:1.0;"/><polygon fill="#181818" points="455.24,479.1494,455.252,479.2184,453.2757,478.6754,451.3699,478.5369,449.4412,478.2667,447.437,477.5633,445.5372,477.4596,445.5239,477.4373,446.4348,477.9189,447.4127,478.5125,448.4374,479.184,449.3013,479.587,450.3903,480.366,450.5486,480.4608,449.6287,481.2287,449.1711,482.2734,448.7699,483.3519,448.0406,484.2338,447.4838,485.2191,447.4978,485.237,449.0285,483.9968,450.623,482.8381,452.1867,481.64,453.8091,480.5171,455.24,479.1494" style="stroke:#181818;stroke-width:1.0;"/><text fill="#000000" font-family="sans-serif" font-size="13" lengthAdjust="spacing" textLength="30" x="334" y="504.1045">Does</text></g><!--link UI to ShowSubscriptions--><g id="link_UI_ShowSubscriptions"><path d="M303.16,568.4294 L303.1626,568.5228 L309.1229,568.0813 L315.0984,568.1872 L321.0689,568.1149 L327.0233,567.4564 L333,567.6094 L332.9997,567.5748 L336.1985,567.3943 L339.3986,567.3879 L342.5998,567.5026 L345.7976,567.2001 L349,567.4819 L349.002,567.7279 L352.1978,567.2273 L355.3993,567.445 L358.6015,567.7503 L361.7997,567.5458 L365,567.6094 L365.0007,567.7004 L374.6132,567.6373 L384.2288,567.9885 L393.8429,568.1399 L403.4599,568.6725 L413.0742,568.8569 L422.6878,568.9383 L432.2972,568.4427 L441.9128,568.7919 L451.5286,569.1806 L461.1283,567.3534 L470.7488,568.3855 L470.7578,569.2901 L480.3312,568.0854 L489.9284,569.2876 L499.5011,568.0111 L509.093,568.675 L518.69,569.8503 L528.2658,568.8918 L537.8541,569.1924 L547.4435,569.5987 L557.0308,569.7974 L566.6115,569.3324 L576.1978,569.4329 L576.2023,569.8158 L586.1258,568.7872 L596.0763,570.047 L606.0175,570.5162 L615.9529,570.4955 L625.8925,570.8376 L635.8123,569.4937 L645.7466,569.3858 L655.6841,569.5443 L665.63,570.4118 L675.568,570.6078 L675.5645,570.3457 L685.3036,571.645 L695.0121,570.6323 L704.7328,570.5366 L714.4665,571.427 L724.1743,570.3624 L733.9005,570.688 L743.6448,572.3741 L753.3646,572.2184 L763.0806,571.7663 " fill="none" style="stroke:#181818;stroke-width:1.0;"/><polygon fill="#181818" points="769.08,571.8494,769.1093,571.913,767.2334,570.8991,765.5295,570.2582,763.7695,569.4959,761.8254,568.3341,760.1362,567.7252,760.1176,567.7071,760.8232,568.4371,761.6223,569.2581,762.4865,570.1423,763.1264,570.8085,764.0805,571.7802,764.2092,571.9125,763.123,572.4184,762.4125,573.3106,761.7479,574.2499,760.8166,574.9151,760.0255,575.7244,760.0345,575.7454,761.8322,574.9396,763.6707,574.2291,765.4896,573.4727,767.3459,572.8039,769.08,571.8494" style="stroke:#181818;stroke-width:1.0;"/><text fill="#000000" font-family="sans-serif" font-size="13" lengthAdjust="spacing" textLength="30" x="513" y="565.1045">Does</text></g><!--link UI to MakePayment--><g id="link_UI_MakePayment"><path d="M303.17,584.2694 L303.2429,584.54 L312.6538,586.3316 L322.4924,589.7093 L332.1916,592.5706 L341.4329,593.7333 L351.2812,597.1472 L360.7878,599.2937 L370.4303,601.9447 L380.1674,604.9462 L389.5788,606.7395 L399.6385,610.9378 L408.8552,612.0092 L418.633,615.1616 L428.4792,618.5679 L437.9569,620.6074 " fill="none" style="stroke:#181818;stroke-width:1.0;"/><polygon fill="#181818" points="443.75,622.1694,443.7941,622.2238,442.1333,620.8211,440.7313,619.7374,439.2449,618.5498,437.4815,617.0206,436.1017,615.9643,436.0792,615.9514,436.5426,616.8741,437.1192,617.8619,437.7744,618.895,438.1585,619.7721,438.9224,620.8677,439.0144,621.0277,437.837,621.2497,436.9282,621.9388,436.0522,622.6849,434.9854,623.0995,434.019,623.6884,434.0225,623.7109,435.9636,623.3741,437.9206,623.1396,439.8699,622.8558,441.8339,622.6661,443.75,622.1694" style="stroke:#181818;stroke-width:1.0;"/><text fill="#000000" font-family="sans-serif" font-size="13" lengthAdjust="spacing" textLength="30" x="334" y="589.1045">Does</text></g><!--link MakePayment to ShowSubscriptions--><g id="link_MakePayment_ShowSubscriptions"><path d="M627.37,625.2094 L627.4242,625.4843 L637.0351,622.7404 L646.9638,621.6082 L656.789,619.9512 L666.2738,616.5681 L676.2098,615.4727 L685.8918,613.0894 L695.6748,611.2187 L705.5281,609.7042 L715.1393,606.9619 L725.2325,606.6635 L734.699,603.1878 L744.5825,601.8266 L754.5169,600.7233 L764.1554,598.1191 L773.9671,596.3935 L783.7132,594.3355 L793.4934,592.4503 " fill="none" style="stroke:#181818;stroke-width:1.0;"/><polygon fill="#181818" points="799.38,591.2894,799.3955,591.3577,797.4286,590.7181,795.5527,590.479,793.6472,590.1094,791.6442,589.311,789.7761,589.1063,789.7617,589.0848,790.6366,589.6183,791.5843,590.2603,792.5825,590.9777,793.4065,591.4353,794.4745,592.2568,794.6278,592.3596,793.6699,593.0794,793.1595,594.0994,792.7038,595.156,791.9303,595.9995,791.324,596.9551,791.3371,596.9737,792.9291,595.8133,794.5806,594.7375,796.2035,593.6209,797.8811,592.5822,799.38,591.2894" style="stroke:#181818;stroke-width:1.0;"/><text fill="#000000" font-family="sans-serif" font-size="13" lengthAdjust="spacing" textLength="30" x="700" y="602.1045">Uses</text></g><!--link MakePayment to HandlePayment--><g id="link_MakePayment_HandlePayment"><path d="M658.33,650.6094 L658.3393,650.7023 L662.2019,650.8134 L666.1189,651.4694 L670.0182,651.9479 L673.8593,651.8429 L677.7809,652.5457 L677.777,652.5114 L681.8177,652.8184 L685.8781,653.2983 L689.9521,653.8986 L693.979,654.0844 L698.0718,654.8507 L698.1032,655.0948 L702.2411,655.114 L706.4706,655.8458 L710.7113,656.6645 L714.8869,656.9774 L719.0967,657.5563 L719.1011,657.5863 L723.4253,658.1698 L727.7693,658.8899 L732.1038,659.5441 L736.4564,660.3241 L740.7497,660.6941 L740.7975,660.9885 L745.2331,661.7124 L749.6378,662.2465 L754.0877,663.0585 L758.5397,663.8835 L762.9247,664.2958 L762.8675,663.9804 L767.4967,665.412 L771.9376,665.8051 L776.5217,666.9877 L780.9583,667.3572 L785.5158,668.3932 L785.5098,668.3633 L790.1613,669.6412 L794.672,670.2218 L799.2658,671.2139 L803.8666,672.2405 L808.4171,673.018 L808.4576,673.1985 L813.0378,674.053 L817.6872,675.2161 L822.2246,675.8801 L826.9291,677.2884 L831.5225,678.2019 L831.5813,678.4383 L836.2109,679.5486 L840.8698,680.7762 L845.3928,681.4584 L850.0154,682.5404 L854.7261,683.9767 L854.6545,683.7099 L857.0404,684.5752 L859.3457,685.1399 L861.768,686.1405 L863.9904,686.3968 L866.3317,687.0955 L866.2902,686.9488 L868.6773,687.8489 L870.8871,688.1217 L873.2231,688.8406 L875.6824,689.9959 L877.922,690.374 L877.9772,690.5596 L880.3275,691.3753 L882.5059,691.6138 L884.8996,692.5752 L887.2464,693.3792 L889.4839,693.8161 L889.4211,693.6157 L891.7752,694.4974 L894.1087,695.3134 L896.4826,696.2583 L898.6995,696.702 L901.0041,697.4257 L901.0685,697.621 L903.2201,697.9482 L905.496,698.6523 L907.9534,699.907 L910.0766,700.148 L912.4694,701.2068 L912.5436,701.4205 L914.779,702.0849 L916.9892,702.677 L919.2561,703.4323 L921.654,704.5647 L923.8666,705.1634 L923.8209,705.0385 L926.22,706.2377 L928.3085,706.5871 L930.7502,707.9028 L932.993,708.6744 L935.1823,709.2995 L935.2214,709.4011 L937.434,710.183 L939.7867,711.3286 L942.0129,712.1457 L944.1861,712.8253 L946.4033,713.6189 L946.4481,713.7294 L948.6042,714.4667 L950.9683,715.7168 L953.0971,716.3868 L955.3227,717.2955 L957.5165,718.1258 L957.4102,717.8772 L959.6441,718.8998 L962.006,720.2219 L964.1867,721.1203 L966.3026,721.8668 L968.5085,722.8239 L968.4496,722.6934 L970.64,723.7139 L972.7262,724.5033 L975.0988,725.9281 L977.3296,727.0384 L979.3661,727.7174 L979.4665,727.9287 L981.6407,729.0149 L983.624,729.6996 L985.8087,730.8081 L987.8601,731.6361 L990.076,732.8102 L990.1327,732.923 L992.235,733.9674 L994.4058,735.148 L996.3597,735.8966 L998.4885,736.9936 L1000.6251,738.1062 L1000.7174,738.2803 L1002.8182,739.4296 L1004.6683,740.1062 L1006.8097,741.332 L1008.9561,742.5673 L1011,743.6094 L1010.8666,743.3729 L1012.8937,744.7711 L1014.6894,745.7592 L1016.4276,746.6453 L1018.2972,747.7643 L1020.0826,748.7342 L1020.2496,749.0117 L1021.8048,749.694 L1023.7425,751.012 L1025.5296,752.0798 L1027.2845,753.094 L1029.0518,754.1288 L1029.0855,754.1816 L1030.8492,755.3005 L1032.4431,756.1533 L1034.2667,757.3661 L1036.0224,758.4725 L1037.903,759.7747 L1037.9188,759.7982 L1039.6706,760.9829 L1041.4345,762.1857 L1043.0678,763.1945 L1044.869,764.4526 L1046.6314,765.6532 L1046.6006,765.6096 L1048.4999,767.081 L1050.1815,768.245 L1051.6674,769.1328 L1053.4936,770.501 L1055.2326,771.746 L1055.0796,771.54 L1057.0028,773.1065 L1058.7815,774.4784 L1060.4584,775.7133 L1061.8926,776.6212 L1063.7018,778.0343 L1063.8282,778.1972 L1065.1659,779.0666 L1067.0894,780.6908 L1068.6198,781.8085 L1070.3943,783.2406 L1072.0344,784.4998 L1072.1016,784.5828 L1073.8047,785.9877 L1075.1098,786.9006 L1077.0822,788.6385 L1078.6374,789.8606 L1080.2259,791.1238 L1080.3275,791.2447 L1082.0489,792.731 L1083.4457,793.8313 L1085.1034,795.2418 L1086.7235,796.6076 L1088.2716,797.8878 L1088.3292,797.9539 L1089.8504,799.2646 L1091.6373,800.8801 L1092.8306,801.8149 L1094.7529,803.5856 L1096.1668,804.7733 L1095.9809,804.5675 L1097.5539,805.9928 L1099.2748,807.5819 L1100.8193,808.9757 L1102.2121,810.2015 L1103.9069,811.7618 L1104.0324,811.8962 L1105.456,813.2117 L1107.1594,814.827 L1108.6575,816.2223 L1109.8354,817.2744 L1111.4874,818.8346 L1111.3647,818.7072 L1112.9308,820.221 L1114.5634,821.8039 L1116.0613,823.2469 L1117.5131,824.642 L1118.9036,825.9733 L1118.7965,825.8654 L1120.5521,827.6114 L1122.0008,829.0478 L1123.2371,830.27 L1124.6265,831.6467 L1126.1508,833.1594 L1126.0226,833.0353 L1128.8761,835.981 L1131.7823,838.9778 L1134.5104,841.8021 L1137.1926,844.5822 L1140.1199,847.5992 L1140.2794,847.7458 L1142.6173,850.3426 L1145.5795,853.513 L1148.2024,856.3717 L1150.8319,859.2364 L1153.3578,862.006 L1153.5892,862.2088 L1155.7695,864.779 L1158.2451,867.608 L1161.013,870.6931 L1163.134,873.2113 L1165.8274,876.2312 L1165.7478,876.1643 L1168.1996,879.0433 L1170.5165,881.809 L1172.704,884.4661 L1175.1443,887.3353 L1177.4918,890.1267 L1177.7494,890.3344 L1179.8805,892.9911 L1181.6143,895.3273 L1184.0122,898.199 L1185.9717,900.7172 L1188.3139,903.5441 L1188.3047,903.5369 L1190.4053,906.1822 L1192.4384,908.775 L1194.0464,911.0373 L1196.4087,913.8861 L1198.2568,916.3351 L1198.2597,916.3373 L1199.8647,918.5901 L1201.7,921.0158 L1203.7888,923.632 L1205.5668,926.0148 L1207.2834,928.3513 L1207.2775,928.347 L1208.6565,930.3942 L1210.7492,932.9608 L1212.0153,934.9258 L1213.5523,937.0879 L1215.3567,939.4446 L1215.3323,939.4274 L1216.9874,941.6003 L1218.4133,943.6113 L1219.6193,945.4668 L1220.9683,947.4234 L1222.4398,949.4666 " fill="none" style="stroke:#181818;stroke-width:1.0;"/><polygon fill="#181818" points="1225.87,954.3894,1225.9388,954.4026,1225.3617,952.4291,1225.1879,950.5332,1224.8828,948.612,1224.1457,946.6076,1224.0066,944.7184,1223.9811,944.7139,1223.6676,945.8071,1223.4827,946.9234,1223.3872,948.0556,1222.9837,949.1328,1223.0115,950.2871,1223.044,950.4687,1221.8608,949.8812,1220.7724,949.8241,1219.6956,949.8318,1218.5516,949.4629,1217.4429,949.292,1217.4546,949.3115,1219.1228,950.3024,1220.8445,951.3819,1222.5404,952.4186,1224.2856,953.5369,1225.87,954.3894" style="stroke:#181818;stroke-width:1.0;"/><text fill="#000000" font-family="sans-serif" font-size="13" lengthAdjust="spacing" textLength="29" x="875.5" y="663.1045">Calls</text></g><!--link UI to StartEvent--><g id="link_UI_StartEvent"><path d="M256.66,618.6594 L256.7529,618.6694 L256.7984,621.6078 L257.3884,624.6052 L257.801,627.5834 L257.6307,630.4984 L258.2674,633.5008 L258.2331,633.4968 L258.4645,636.7576 L258.8688,640.0387 L259.3933,643.334 L259.5036,646.5806 L260.1941,649.8954 L260.4382,649.9265 L260.3699,653.4188 L261.0142,657.002 L261.7454,660.5962 L261.9708,664.126 L262.4622,667.6896 L262.4923,667.6938 L262.9744,671.4958 L263.5934,675.3168 L264.1463,679.1286 L264.8252,682.9578 L265.0936,686.7303 L265.3885,686.7745 L265.9955,690.8018 L266.4122,694.8006 L267.1073,698.841 L267.8156,702.8835 L268.1102,706.864 L267.7939,706.8126 L269.0927,711.127 L269.3497,715.2722 L270.3987,719.546 L270.6321,723.6874 L271.5341,727.9373 L271.5041,727.932 L272.6293,732.3664 L273.054,736.6774 L273.892,741.0612 L274.7647,745.4511 L275.3871,749.7969 L275.5688,749.8317 L276.2462,754.2951 L277.2341,758.8179 L277.7197,763.2446 L278.9546,767.8146 L279.6912,772.2894 L279.9298,772.339 L280.8401,776.924 L281.8689,781.5337 L282.3474,786.0289 L283.2292,790.608 L284.4685,795.2614 L284.1991,795.2004 L285.4974,799.9153 L286.4922,804.5614 L287.9272,809.3071 L288.6106,813.8828 L289.7408,818.5596 L289.5927,818.5231 L290.9971,823.2781 L291.7687,827.877 L292.9903,832.5869 L294.6522,837.4054 L295.53,842.0305 L295.717,842.0809 L297.1109,846.8135 L297.9232,851.3895 L299.464,856.1617 L300.846,860.8911 L301.8583,865.5209 L301.6565,865.4628 L302.492,867.8501 L303.2613,870.2183 L304.1605,872.6239 L304.555,874.8841 L305.2314,877.2255 L305.4282,877.2849 L305.699,879.4848 L306.3496,881.7993 L307.5553,884.2813 L307.7392,886.455 L308.7474,888.8774 L308.9631,888.9456 L309.5674,891.2211 L310.0986,893.4735 L310.7946,895.778 L311.8713,898.2029 L312.4092,900.4575 L312.283,900.4156 L313.421,902.8381 L313.7001,904.9758 L314.9558,907.4373 L315.6617,909.7165 L316.2195,911.9465 L316.3223,911.9823 L317.0316,914.2292 L318.109,916.6043 L318.8539,918.8635 L319.4597,921.0744 L320.1809,923.3254 L320.2929,923.3664 L320.9496,925.5554 L322.1261,927.9346 L322.7148,930.0988 L323.5453,932.3514 L324.2963,934.575 L324.044,934.4779 L324.9827,936.7305 L326.2253,939.1001 L327.0379,941.3042 L327.6962,943.449 L328.5684,945.676 L328.4357,945.6222 L329.3646,947.8261 L330.0584,949.9348 L331.3982,952.3053 L332.4183,954.5462 L333,956.6094 L333.2165,956.698 L334.5989,959.9355 L335.5699,963.0046 L336.9752,966.2514 L338.0929,969.3806 L339.5655,972.6549 L339.6822,972.703 L340.8032,975.4595 L342.0651,978.2739 L342.8799,980.9045 L344.0553,983.6834 L345.2469,986.4689 L345.4268,986.5494 L346.5587,988.9888 L347.2024,991.2097 L348.4134,993.6844 L349.6343,996.1636 L350.6555,998.5534 L350.4155,998.4264 L351.9437,1000.7983 L353.0556,1002.9499 L354.0641,1005.0468 L355.309,1007.2688 L356.4025,1009.4106 L356.6727,1009.5892 L357.6258,1011.3604 L359.198,1013.5406 L360.5264,1015.5599 L361.8028,1017.5446 L363.0992,1019.5427 L363.1473,1019.5828 L364.7895,1021.5568 L366.1892,1023.3287 L367.917,1025.3741 L369.5478,1027.3386 L371.3569,1029.4517 L371.3767,1029.472 L373.4702,1031.5174 L375.579,1033.5784 L377.5244,1035.4721 L379.6798,1037.5808 L381.7867,1039.6399 L381.7526,1039.5988 L384.5931,1042.0311 L387.1931,1044.1736 L389.5768,1046.0556 L392.3366,1048.3905 L395,1050.6094 L394.8517,1050.4001 L397.7333,1052.5983 L400.4747,1054.5987 L403.1175,1056.4599 L405.5248,1057.9889 L408.2959,1060.0312 L408.3982,1060.2102 L410.8108,1061.2761 L413.6975,1063.1715 L416.2661,1064.5103 L419.0322,1066.1946 L421.6896,1067.6889 L421.7337,1067.7862 L424.5812,1069.1494 L427.1679,1069.9362 L430.1921,1071.6896 L432.9427,1072.8386 L435.7152,1074.0359 L435.7689,1074.1844 L438.8665,1075.4465 L441.7927,1076.2342 L444.8566,1077.4031 L447.9007,1078.5171 L450.9067,1079.5258 " fill="none" style="stroke:#181818;stroke-width:1.0;"/><polygon fill="#181818" points="456.61,1081.3894,456.6569,1081.4414,455.055,1079.9673,453.7281,1078.7982,452.3117,1077.5298,450.6007,1075.9348,449.2975,1074.7919,449.2744,1074.7802,449.6827,1075.7365,450.2074,1076.7518,450.8131,1077.8083,451.1398,1078.7232,451.8573,1079.8364,451.9408,1080.001,450.7533,1080.161,449.8096,1080.8016,448.8957,1081.5007,447.8087,1081.8588,446.8127,1082.3962,446.8151,1082.4189,448.7711,1082.1843,450.7377,1082.0527,452.6992,1081.8714,454.6705,1081.785,456.61,1081.3894" style="stroke:#181818;stroke-width:1.0;"/><text fill="#000000" font-family="sans-serif" font-size="13" lengthAdjust="spacing" textLength="30" x="334" y="953.1045">Does</text></g><!--link UI to ShowReactions--><g id="link_UI_ShowReactions"><path d="M300.57,618.7794 L300.6327,618.8486 L302.4793,620.4863 L304.6936,622.5297 L306.7882,624.441 L308.4888,625.9178 L310.7348,627.996 L310.712,627.97 L312.7717,629.7425 L314.9459,631.646 L317.1998,633.6407 L319.1792,635.3213 L321.5431,637.4419 L321.7012,637.6304 L323.636,639.1325 L326.0324,641.1851 L328.485,643.3049 L330.6101,645.0338 L332.9074,646.9684 L332.9264,646.992 L335.2651,648.849 L337.69,650.8137 L340.0733,652.7265 L342.536,654.7385 L344.74,656.4269 L344.92,656.6647 L347.3648,658.516 L349.6936,660.2139 L352.1922,662.1363 L354.6989,664.0693 L356.9532,665.6688 L356.7677,665.4075 L359.629,667.6901 L361.8794,669.1121 L364.5942,671.1884 L366.8308,672.5909 L369.4594,674.5456 L369.4426,674.5202 L372.1828,676.4936 L374.5321,677.8727 L377.112,679.6026 L379.7113,681.3618 L382.1709,682.9087 L382.2661,683.0673 L384.7358,684.4473 L387.3682,686.0984 L389.7374,687.311 L392.4992,689.1776 L395,690.6094 L395.1153,690.824 L397.9276,692.3059 L400.7972,693.8944 L403.4008,694.9877 L406.1994,696.444 L409.1707,698.2218 L409.0532,697.9719 L411.9247,699.4986 L414.6639,700.7438 L417.5951,702.3973 L420.1983,703.3535 L422.9965,704.7243 L422.9389,704.5831 L425.8551,705.9687 L428.5252,706.7508 L431.3703,707.9621 L434.3866,709.5933 L437.098,710.4767 L437.1632,710.659 L440.2074,711.8566 L443.0489,712.487 L446.1443,713.8277 L449.1844,715.0137 L452.0956,715.8391 " fill="none" style="stroke:#181818;stroke-width:1.0;"/><polygon fill="#181818" points="457.78,717.7594,457.8274,717.8109,456.2372,716.3238,454.925,715.1388,453.5223,713.8554,451.8218,712.2484,450.5335,711.0894,450.5103,711.0779,450.908,712.0403,451.4227,713.0606,452.0188,714.1212,452.3345,715.043,453.043,716.1592,453.1248,716.3246,451.9358,716.4728,450.9858,717.1039,450.065,717.7939,448.9745,718.1411,447.9732,718.6686,447.9753,718.6913,449.9336,718.4762,451.9014,718.3642,453.8646,718.2025,455.8367,718.1356,457.78,717.7594" style="stroke:#181818;stroke-width:1.0;"/><text fill="#000000" font-family="sans-serif" font-size="13" lengthAdjust="spacing" textLength="30" x="334" y="647.1045">Does</text></g><!--link UI to DownloadReactions--><g id="link_UI_DownloadReactions"><path d="M273.17,618.7294 L273.2539,618.7704 L273.9105,620.5042 L275.0591,622.4782 L276.0475,624.374 L276.509,626.0125 L277.6999,628.0072 L277.6691,627.9916 L278.5232,629.8759 L279.5325,631.8391 L280.6498,633.857 L281.3952,635.6861 L282.6615,637.7797 L282.879,637.8948 L283.4917,639.6862 L284.7394,641.8134 L286.0646,643.9817 L286.939,645.9115 L288.0505,647.9667 L288.077,647.9814 L289.2005,650.0641 L290.4448,652.2136 L291.6307,654.3309 L292.928,656.5096 L293.8625,658.488 L294.1207,658.6373 L295.37,660.7941 L296.4527,662.8547 L297.7792,665.0562 L299.1172,667.2644 L300.0931,669.2632 L299.8191,669.0969 L301.6799,671.6095 L302.6384,673.5744 L304.2828,675.9557 L305.2208,677.9083 L306.7379,680.2122 L306.7122,680.1958 L308.4266,682.5982 L309.5415,684.6176 L311.0101,686.8629 L312.5084,689.1273 L313.7925,691.2548 L313.9458,691.3582 L315.2831,693.465 L316.8823,695.7485 L318.0576,697.746 L319.8653,700.1701 L321.2525,702.3106 L321.4507,702.4524 L322.9854,704.6234 L324.6185,706.8647 L325.7945,708.7791 L327.3056,710.9331 L329.1135,713.2996 L328.8938,713.1322 L330.7442,715.4521 L332.3471,717.5834 L334.309,719.9882 L335.6579,721.926 L337.3712,724.1414 L337.253,724.0451 L339.1798,726.3284 L340.6014,728.1999 L342.3822,730.3643 L344.5147,732.8151 L346.021,734.7558 L346.1666,734.8835 L348.074,737.0324 L349.5286,738.7843 L351.5503,741.0335 L353.4485,743.1743 L355.0588,745.0627 L354.9065,744.9181 L356.9121,747.0171 L358.8678,749.0688 L360.9215,751.2135 L362.5943,752.9966 L364.4799,754.9817 L364.6226,755.1296 L366.2691,756.6947 L368.191,758.5454 L370.5154,760.8133 L372.0989,762.313 L374.2801,764.4326 L374.429,764.6028 L376.3755,766.2822 L378.2716,767.904 L380.2814,769.6559 L382.5542,771.7082 L384.4549,773.3352 L384.3728,773.2306 L386.7263,775.197 L388.5213,776.4516 L390.9514,778.5156 L393.0239,780.1239 L395,781.6094 L395.0621,781.6988 L397.085,783.0658 L399.3303,784.753 L401.3747,786.1509 L403.3351,787.4279 L405.3653,788.8053 L405.4258,788.908 L407.3501,789.9422 L409.5553,791.4532 L411.4428,792.4249 L413.4609,793.6185 L415.4362,794.7392 L415.3185,794.4958 L417.4721,795.5989 L419.7674,796.9952 L421.8622,797.9766 L423.8851,798.8092 L426.0077,799.8482 L425.9547,799.7152 L428.3451,800.702 L430.6418,801.4532 L433.1961,802.852 L435.6229,803.9303 L437.8748,804.5691 " fill="none" style="stroke:#181818;stroke-width:1.0;"/><polygon fill="#181818" points="443.51,806.6294,443.5587,806.6797,441.9981,805.1607,440.7231,803.9368,439.3551,802.6168,437.6813,800.9807,436.4308,799.7822,436.4073,799.7713,436.7785,800.7483,437.2681,801.7804,437.8401,802.8508,438.1284,803.7893,438.814,804.9125,438.8918,805.0798,437.6994,805.1986,436.7341,805.806,435.7965,806.473,434.6977,806.7932,433.6837,807.2957,433.6852,807.3184,435.6482,807.1518,437.6183,807.0886,439.5849,806.9755,441.558,806.9574,443.51,806.6294" style="stroke:#181818;stroke-width:1.0;"/><text fill="#000000" font-family="sans-serif" font-size="13" lengthAdjust="spacing" textLength="30" x="334" y="720.1045">Does</text></g><!--link ShowReactions to FetchReactions--><g id="link_ShowReactions_FetchReactions"><path d="M613.86,749.0994 L613.9008,749.3766 L623.7392,750.0195 L633.8169,752.2876 L643.8167,754.0265 L653.5602,754.0249 L663.6433,756.33 L673.5353,757.3366 L683.5033,758.86 L693.5242,760.7426 L703.3629,761.3871 L713.5644,764.4961 L723.2941,764.401 L733.3378,766.4381 L743.4198,768.7354 L753.2789,769.5191 L763.2685,771.1889 L773.2087,772.5234 L783.2093,774.2677 L793.1808,775.8143 L803.094,776.9655 " fill="none" style="stroke:#181818;stroke-width:1.0;"/><polygon fill="#181818" points="809.03,777.8394,809.0675,777.8986,807.2918,776.669,805.7359,775.7865,804.1084,774.791,802.2457,773.4239,800.7086,772.5712,800.6878,772.5557,801.2694,773.3943,801.9559,774.3109,802.7152,775.2816,803.2234,776.0656,804.0833,777.1111,804.1934,777.2592,803.05,777.6175,802.228,778.4081,801.4452,779.2515,800.4343,779.788,799.5434,780.4859,799.5495,780.5078,801.4378,779.9463,803.354,779.4846,805.2568,778.9747,807.1851,778.5567,809.03,777.8394" style="stroke:#181818;stroke-width:1.0;"/><text fill="#000000" font-family="sans-serif" font-size="13" lengthAdjust="spacing" textLength="29" x="700.5" y="758.1045">Calls</text></g><!--link DownloadReactions to FetchReactions--><g id="link_DownloadReactions_FetchReactions"><path d="M639.64,815.3094 L639.6668,815.5883 L649.5089,813.8052 L659.5082,813.6574 L669.4563,812.9771 L679.2359,810.5456 L689.2488,810.5381 L689.2385,810.435 L699.1429,808.9865 L709.0988,808.0578 L719.0905,807.4904 L728.9589,805.6778 L739,805.6094 L739.0763,806.3436 L749.0371,803.7214 L759.2207,803.2429 L769.4315,803.026 L779.4842,801.2873 L789.6294,800.4395 L799.744,799.2969 " fill="none" style="stroke:#181818;stroke-width:1.0;"/><polygon fill="#181818" points="805.71,798.6594,805.7315,798.7261,803.7928,797.9237,801.9801,797.5123,800.1264,796.9736,798.1378,796.0162,796.3359,795.6383,796.3197,795.6182,797.1271,796.2382,798.0166,796.9598,798.9631,797.7521,799.7131,798.3009,800.7383,799.1907,800.8819,799.3066,799.8643,799.9392,799.2661,800.9102,798.719,801.9225,797.8742,802.6946,797.186,803.5931,797.1974,803.6127,798.8855,802.5971,800.6254,801.6711,802.3403,800.7018,804.103,799.8151,805.71,798.6594" style="stroke:#181818;stroke-width:1.0;"/><text fill="#000000" font-family="sans-serif" font-size="13" lengthAdjust="spacing" textLength="29" x="700.5" y="802.1045">Calls</text></g><!--link UI to ShowInsights--><g id="link_UI_ShowInsights"><path d="M261.1,618.6794 L261.1911,618.7002 L261.5274,621.2906 L262.3975,624.0031 L263.0939,626.6759 L263.2185,629.2178 L264.1345,631.9408 L264.101,631.9324 L264.668,634.7671 L265.4041,637.6439 L266.2575,640.55 L266.7062,643.3551 L267.7218,646.3017 L267.9592,646.3665 L268.2864,649.2868 L269.3067,652.3962 L270.4115,655.5286 L271.0243,658.5268 L271.8959,661.5957 L271.925,661.6043 L272.8413,664.8037 L273.8899,668.0426 L274.8747,671.2624 L275.9812,674.5186 L276.6908,677.6563 L276.9742,677.749 L278.0676,681.0823 L278.9781,684.3558 L280.1563,687.7168 L281.347,691.0819 L282.1403,694.3171 L281.8386,694.2088 L283.6517,697.8379 L284.4715,701.1104 L286.0465,704.654 L286.8437,707.9184 L288.2784,711.4117 L288.2501,711.4005 L289.9571,715.0053 L291.0025,718.3486 L292.4383,721.8462 L293.9069,725.3567 L295.1391,728.7738 L295.3087,728.8478 L296.6609,732.2657 L298.303,735.8101 L299.4762,739.1499 L301.3487,742.7948 L302.7562,746.2369 L302.9756,746.3429 L304.6157,749.8024 L306.3646,753.3145 L307.6075,756.5821 L309.2213,760.0289 L311.1638,763.6346 L310.9206,763.5038 L312.9872,767.0554 L314.7797,770.4596 L316.9697,774.0776 L318.481,777.3305 L320.3958,780.8005 L320.2652,780.7219 L322.5008,784.2063 L324.178,787.3547 L326.2523,790.7421 L328.7151,794.3633 L330.4861,797.5682 L330.6464,797.6768 L332.9528,800.9919 L334.7607,803.9692 L337.193,807.3696 L339.4893,810.6779 L341.4686,813.7713 L341.3022,813.6432 L343.8166,816.8397 L346.2765,819.9942 L348.8434,823.2312 L350.9941,826.1478 L353.3773,829.2433 L353.5314,829.3794 L355.7666,831.9953 L358.2992,834.874 L361.2664,838.1363 L363.4335,840.6921 L366.2462,843.818 L366.404,843.98 L369.0828,846.5859 L371.7082,849.137 L374.4542,851.8119 L377.4788,854.7726 L380.1091,857.3288 L380.0244,857.2262 L383.2546,859.9878 L385.9091,862.0515 L389.2182,864.9088 L392.1588,867.3193 L395,869.6094 L395.0616,869.6992 L397.7092,871.4771 L400.5773,873.5764 L403.2462,875.3854 L405.8318,877.0729 L408.4866,878.8613 L408.5444,878.9655 L411.1677,880.3139 L414.0595,882.1463 L416.6477,883.4313 L419.3607,884.9415 L422.0327,886.3777 L421.9238,886.1302 L424.7883,887.4578 L427.784,889.0834 L430.594,890.2872 L433.3375,891.3399 L436.1733,892.6022 L436.1257,892.4672 L439.1949,893.5857 L442.1799,894.4651 L445.3963,896.0019 L448.4982,897.2133 L451.443,897.9785 " fill="none" style="stroke:#181818;stroke-width:1.0;"/><polygon fill="#181818" points="457.16,899.7994,457.2065,899.8517,455.5959,898.3876,454.2582,897.2305,452.8315,895.9734,451.1127,894.3875,449.7984,893.2567,449.7754,893.2448,450.1916,894.1965,450.7238,895.2081,451.3367,896.2614,451.6716,897.1711,452.3958,898.282,452.4805,898.4459,451.2943,898.6148,450.3554,899.2624,449.4468,899.9683,448.3625,900.3345,447.3705,900.8794,447.373,900.902,449.3273,900.6528,451.2928,900.5065,453.253,900.3106,455.2235,900.2094,457.16,899.7994" style="stroke:#181818;stroke-width:1.0;"/><text fill="#000000" font-family="sans-serif" font-size="13" lengthAdjust="spacing" textLength="30" x="334" y="801.1045">Does</text></g><!--link ShowInsights to GenerateInsights--><g id="link_ShowInsights_GenerateInsights"><path d="M611.14,911.8694 L611.1493,912.1495 L621.154,910.9828 L631.2134,911.4581 L641.255,911.3987 L651.2379,909.581 L661.2986,910.0937 L671.3155,909.2945 L681.3498,909.0174 L691.3962,909.1032 L701.401,907.9383 L711.4887,909.263 L721.4685,907.3508 L731.5201,907.5928 L741.5805,908.0975 L751.5899,907.0732 L761.6292,906.944 L771.6571,906.4761 L781.6989,906.4221 L791.7233,905.8498 " fill="none" style="stroke:#181818;stroke-width:1.0;"/><polygon fill="#181818" points="797.72,905.6494,797.7463,905.7143,795.8424,904.7819,794.0927,904.2303,792.2928,903.5546,790.3278,902.4713,788.5914,901.9523,788.5737,901.9334,789.3206,902.6213,790.1566,903.4046,791.0547,904.2542,791.7391,904.8753,792.7228,905.8164,792.8576,905.9425,791.7965,906.4992,791.129,907.4239,790.5095,908.3936,789.6106,909.102,788.8587,909.9478,788.8686,909.9683,790.6263,909.0785,792.4292,908.282,794.2103,907.4405,796.0329,906.6847,797.72,905.6494" style="stroke:#181818;stroke-width:1.0;"/><text fill="#000000" font-family="sans-serif" font-size="13" lengthAdjust="spacing" textLength="29" x="700.5" y="905.1045">Calls</text></g><!--link UI to CloseAccount--><g id="link_UI_CloseAccount"><path d="M254.54,618.8194 L254.6331,618.8274 L254.6462,622.1634 L255.2049,625.5464 L255.586,628.9142 L255.3828,632.2315 L255.9883,635.6186 L255.954,635.6149 L256.2009,639.322 L256.6209,643.0478 L257.1613,646.7865 L257.2869,650.4805 L257.9935,654.2371 L258.2374,654.2692 L258.2461,658.2359 L258.9671,662.2963 L259.775,666.368 L260.0773,670.3734 L260.6455,674.4136 L260.6755,674.4181 L260.9508,676.5297 L261.3626,678.6618 L261.7086,680.784 L262.1803,682.9251 L262.2422,685.0045 L262.5365,685.053 L262.8986,687.23 L263.0708,689.3758 L263.5209,691.5674 L263.984,693.7611 L264.0345,695.8869 L263.719,695.8303 L264.7312,698.1684 L264.7045,700.3201 L265.4675,702.6135 L265.4172,704.761 L266.0336,707.0281 L266.0037,707.0223 L266.8005,709.3647 L266.8992,711.571 L267.4098,713.8576 L267.955,716.1509 L268.2508,718.3956 L268.4317,718.4339 L268.7383,720.7074 L269.3542,723.0464 L269.4697,725.2795 L270.3316,727.6706 L270.6972,729.9566 L270.9347,730.011 L271.4272,732.3451 L272.0376,734.7062 L272.1002,736.9418 L272.5643,739.2694 L273.3843,741.6785 L273.1162,741.612 L273.9467,744.0422 L274.4751,746.3975 L275.4416,748.8615 L275.6601,751.1399 L276.3232,753.5287 L276.1759,753.4892 L277.0616,755.9441 L277.3177,758.2302 L278.0216,760.6363 L279.1634,763.1599 L279.5252,765.4744 L279.7112,765.5282 L280.5341,767.9669 L280.7784,770.238 L281.7474,772.719 L282.5584,775.1542 L283.0017,777.483 L282.8013,777.4204 L283.7134,779.8781 L284.5599,782.3152 L285.5354,784.7927 L286.0096,787.1135 L286.7638,789.5219 L286.9586,789.5876 L287.3423,791.8505 L288.1021,794.2403 L289.4112,796.8153 L289.709,799.0492 L290.8228,801.5584 L291.0353,801.6357 L291.7825,803.99 L292.4577,806.3182 L293.2953,808.7054 L294.5081,811.2292 L295.19,813.5598 L295.0661,813.5111 L296.3721,816.0427 L296.836,818.2435 L298.2574,820.8203 L299.1396,823.1854 L299.8766,825.4935 L299.9769,825.536 L300.8994,827.8683 L302.1809,830.3529 L303.1381,832.6999 L303.9598,834.9895 L304.894,837.3268 L305.0024,837.3764 L305.9132,839.6427 L307.3272,842.1395 L308.1722,844.3756 L309.2512,846.719 L310.2534,849.0271 L310.0111,848.9071 L311.2345,851.2541 L312.7498,853.7456 L313.8521,856.0326 L314.8064,858.2463 L315.966,860.5617 L315.8398,860.494 L317.0957,862.7829 L318.1281,864.9521 L319.7747,867.4505 L321.1174,869.786 L322.0432,871.8979 L322.2454,872.0154 L323.6008,874.2741 L324.5718,876.3095 L325.9484,878.5805 L327.0566,880.6955 L328.4961,883.0031 L328.6029,883.0705 L329.9568,885.23 L331.4397,887.4707 L332.5138,889.4536 L333.9176,891.6445 L335.3361,893.8447 L335.4986,893.9562 L336.9916,896.0964 L338.0436,897.9339 L339.608,900.123 L341.1814,902.3184 L342.5744,904.3899 L342.3571,904.2272 L344.2297,906.5273 L345.7254,908.5451 L347.1273,910.4928 L348.7433,912.6008 L350.2223,914.6061 L350.4729,914.8113 L351.7285,916.4889 L353.5581,918.6366 L355.1618,920.5993 L356.7171,922.5224 L358.2911,924.4607 L358.3377,924.5026 L360.0288,926.3865 L361.4851,928.0594 L363.2591,930.0178 L364.9392,931.8918 L366.792,933.921 L366.8121,933.9409 L368.6086,935.7552 L370.4207,937.5849 L372.0666,939.25 L373.9261,941.1265 L375.7362,942.9543 L375.7002,942.9148 L377.7888,944.8584 L379.6236,946.5238 L381.2302,947.9391 L383.2335,949.7893 L385.1352,951.528 L384.9726,951.3295 L387.1893,953.2434 L389.2525,954.9697 L391.2074,956.564 L392.9044,957.8433 L395,959.6094 L395.1194,959.7775 L397.3143,961.1207 L400.0627,963.2427 L402.4397,964.8422 L405.0472,966.7661 L407.5279,968.5115 L407.5815,968.6038 L410.1381,970.1486 L412.3766,971.1463 L415.1483,973.0614 L417.5867,974.4029 L420.0517,975.7901 L420.1182,975.9334 L422.8187,977.3118 L425.3067,978.2328 L427.9655,979.5215 L430.5997,980.7571 L433.1868,981.8913 L433.2175,981.9734 L436.0589,982.9649 L439.042,984.335 L441.7088,984.8592 L444.764,986.4223 L447.5484,987.2609 " fill="none" style="stroke:#181818;stroke-width:1.0;"/><polygon fill="#181818" points="453.23,989.1894,453.2775,989.2409,451.689,987.7518,450.379,986.5645,448.9783,985.279,447.2793,983.6702,445.9932,982.5089,445.97,982.4974,446.3661,983.4607,446.8794,984.4817,447.4741,985.5429,447.7882,986.4657,448.4953,987.5823,448.5769,987.7478,447.3877,987.8943,446.4368,988.524,445.5149,989.2127,444.4239,989.5583,443.4219,990.0844,443.424,990.107,445.3825,989.8948,447.3505,989.7856,449.314,989.6268,451.2861,989.5628,453.23,989.1894" style="stroke:#181818;stroke-width:1.0;"/><text fill="#000000" font-family="sans-serif" font-size="13" lengthAdjust="spacing" textLength="30" x="334" y="892.1045">Does</text></g><!--link CloseAccount to RefundPayment--><g id="link_CloseAccount_RefundPayment"><path d="M620.31,1005.6094 L620.31,1005.8896 L630.5331,1005.0569 L640.7562,1005.8671 L650.9794,1006.1423 L661.2025,1004.6582 L671.4256,1005.5058 L681.6488,1005.0407 L691.8719,1005.098 L702.095,1005.5185 L712.3181,1004.6875 L722.5413,1006.3476 L732.7644,1004.769 L742.9875,1005.3457 L753.2106,1006.1853 L763.4337,1005.495 L773.6569,1005.7004 L783.88,1005.6094 " fill="none" style="stroke:#181818;stroke-width:1.0;"/><polygon fill="#181818" points="789.88,1005.6094,789.9085,1005.6734,788.0239,1004.6832,786.3062,1004.0683,784.5341,1003.3311,782.5834,1002.1921,780.88,1001.6094,780.8617,1001.5911,781.5795,1002.3088,782.3896,1003.119,783.2639,1003.9933,783.917,1004.6464,784.88,1005.6094,785.0105,1005.7399,783.9314,1006.2608,783.2334,1007.1628,782.5818,1008.1112,781.6598,1008.7892,780.88,1009.6094,780.8892,1009.6302,782.6757,1008.7996,784.5042,1008.0638,786.3124,1007.2822,788.1593,1006.5878,789.88,1005.6094" style="stroke:#181818;stroke-width:1.0;"/><text fill="#000000" font-family="sans-serif" font-size="13" lengthAdjust="spacing" textLength="46" x="692" y="1002.1045">Triggers</text></g><!--link RefundPayment to HandlePayment--><g id="link_RefundPayment_HandlePayment"><path d="M987.46,999.0494 L987.479,999.329 L997.1178,997.8392 L1006.8679,997.9885 L1016.5818,997.6041 L1026.1764,995.4644 L1035.9291,995.6511 L1045.5928,994.5281 L1055.292,993.9263 L1065.0157,993.6868 L1074.6546,992.1988 L1084.4624,993.196 L1094.0506,990.9621 L1103.7849,990.8784 L1113.5371,991.0571 L1123.1855,989.7094 L1132.8947,989.2553 L1142.5838,988.5056 " fill="none" style="stroke:#181818;stroke-width:1.0;"/><polygon fill="#181818" points="1148.57,988.0994,1148.5941,988.1652,1146.6726,987.2934,1144.8921,986.8073,1143.0657,986.1956,1141.0882,985.1708,1139.3199,984.7178,1139.3028,984.6983,1140.0787,985.3547,1140.9404,986.1095,1141.8619,986.9327,1142.5776,987.5202,1143.5815,988.4379,1143.7205,988.5592,1142.6792,989.152,1142.0438,990.0992,1141.4579,991.0895,1140.5839,991.8284,1139.8614,992.6995,1139.8721,992.7196,1141.5982,991.77,1143.3727,990.9121,1145.1238,990.0099,1146.9195,989.192,1148.57,988.0994" style="stroke:#181818;stroke-width:1.0;"/><text fill="#000000" font-family="sans-serif" font-size="13" lengthAdjust="spacing" textLength="29" x="1050.5" y="989.1045">Calls</text></g><!--link StartEvent to LoadConfiguration--><g id="link_StartEvent_LoadConfiguration"><path d="M612.95,1096.3794 L612.9508,1096.6596 L622.8416,1095.7993 L632.737,1096.5817 L642.6309,1096.8292 L652.5198,1095.3174 L662.4153,1096.1373 L672.3072,1095.6446 L682.2005,1095.6742 L692.0948,1096.067 L701.9856,1095.2083 L711.8833,1096.8407 L721.772,1095.2344 L731.6668,1095.7834 L741.5623,1096.5953 L751.4535,1095.8774 L761.3472,1096.055 L771.24,1095.9363 " fill="none" style="stroke:#181818;stroke-width:1.0;"/><polygon fill="#181818" points="777.24,1095.9194,777.2683,1095.9835,775.382,1094.9981,773.6615,1094.3885,771.887,1093.6566,769.935,1092.5222,768.2287,1091.9448,768.2105,1091.9265,768.9307,1092.6418,769.7431,1093.4497,770.6195,1094.3219,771.2753,1094.9724,772.24,1095.9335,772.3709,1096.0636,771.2933,1096.5876,770.5978,1097.4916,769.9489,1098.4418,769.0288,1099.1224,768.2513,1099.9448,768.2606,1099.9656,770.0447,1099.13,771.8711,1098.3889,773.6771,1097.6023,775.5221,1096.9026,777.24,1095.9194" style="stroke:#181818;stroke-width:1.0;"/><text fill="#000000" font-family="sans-serif" font-size="13" lengthAdjust="spacing" textLength="46" x="692" y="1093.1045">Triggers</text></g><!--link StartEvent to ProcessFeed--><g id="link_StartEvent_ProcessFeed"><path d="M592.95,1114.5494 L593.0257,1114.8192 L602.3183,1116.6879 L612.0547,1120.1383 L621.6465,1123.0736 L630.7632,1124.3151 L640.5096,1127.8016 L649.9015,1130.0242 L659.4346,1132.7498 L669.0657,1135.825 L678.3587,1137.6953 L688.3247,1141.964 L697.4158,1143.1145 L707.0891,1146.3402 L716.8334,1149.8189 L726.1645,1151.8247 L735.7375,1154.6928 L745.2189,1157.2346 L754.8123,1160.1752 L764.3516,1162.9234 L773.994,1166.0387 L783.5423,1168.8186 L793.0627,1171.4995 L802.4273,1173.6248 L811.8531,1175.9683 " fill="none" style="stroke:#181818;stroke-width:1.0;"/><polygon fill="#181818" points="817.63,1177.5894,817.6747,1177.6433,816.025,1176.2265,814.6373,1175.1259,813.1642,1173.9223,811.4106,1172.38,810.0454,1171.3066,810.0228,1171.2939,810.4756,1172.2233,811.0422,1173.2167,811.6879,1174.2546,812.0609,1175.1392,812.8159,1176.2385,812.9063,1176.3994,811.7267,1176.6094,810.8109,1177.2892,809.9273,1178.0264,808.8564,1178.43,807.884,1179.009,807.8873,1179.0316,809.8317,1178.7146,811.791,1178.5001,813.7431,1178.2361,815.7089,1178.0665,817.63,1177.5894" style="stroke:#181818;stroke-width:1.0;"/><text fill="#000000" font-family="sans-serif" font-size="13" lengthAdjust="spacing" textLength="46" x="692" y="1141.1045">Triggers</text></g><!--link ProcessFeed to IdentifyPerson--><g id="link_ProcessFeed_IdentifyPerson"><path d="M965.43,1180.1094 L965.4941,1180.3822 L975.1577,1177.2544 L985.1973,1175.7259 L995.1145,1173.6765 L1004.629,1169.9147 L1014.6771,1168.4225 L1024.4249,1165.6526 L1034.2922,1163.3913 L1044.2426,1161.4834 L1053.9065,1158.3573 L1064.1407,1157.656 L1073.6335,1153.8022 L1083.6197,1152.0463 L1093.6661,1150.5465 L1103.3622,1147.5573 L1113.2634,1145.44 L1123.087,1142.9928 L1133.0054,1140.9488 L1142.8781,1138.7102 L1152.6593,1136.0827 " fill="none" style="stroke:#181818;stroke-width:1.0;"/><polygon fill="#181818" points="1158.5,1134.7094,1158.513,1134.7782,1156.539,1134.2069,1154.6413,1134.0391,1152.7188,1133.74,1150.7144,1133.0086,1148.8234,1132.8755,1148.8097,1132.8535,1149.7104,1133.3503,1150.6798,1133.9581,1151.697,1134.6432,1152.5495,1135.0622,1153.6327,1135.8538,1153.7896,1135.951,1152.8585,1136.705,1152.3854,1137.7428,1151.9682,1138.8152,1151.2258,1139.6862,1150.6544,1140.6631,1150.6682,1140.6813,1152.2171,1139.4639,1153.8286,1138.329,1155.41,1137.1544,1157.0489,1136.0556,1158.5,1134.7094" style="stroke:#181818;stroke-width:1.0;"/><text fill="#000000" font-family="sans-serif" font-size="13" lengthAdjust="spacing" textLength="46" x="1042" y="1148.1045">Triggers</text></g><!--link ProcessFeed to CaptureReaction--><g id="link_ProcessFeed_CaptureReaction"><path d="M973.76,1199.2494 L973.7656,1199.5296 L983.8616,1198.8977 L993.9903,1199.9084 L1004.1083,1200.3842 L1014.1914,1199.1011 L1024.3208,1200.1491 L1034.4242,1199.8849 L1044.5379,1200.1428 L1054.6588,1200.7639 L1064.7549,1200.1338 L1074.9004,1201.9941 L1084.9816,1200.6166 L1095.1057,1201.3938 L1105.2349,1202.4339 L1115.3338,1201.9444 L1125.4504,1202.3504 L1135.5612,1202.4601 " fill="none" style="stroke:#181818;stroke-width:1.0;"/><polygon fill="#181818" points="1141.56,1202.5794,1141.5897,1202.6428,1139.7177,1201.6187,1138.0198,1200.9665,1136.2653,1200.1932,1134.3241,1199.0216,1132.6413,1198.4013,1132.6226,1198.3833,1133.3227,1199.1185,1134.117,1199.9442,1134.9767,1200.8328,1135.6109,1201.5046,1136.561,1202.48,1136.6889,1202.6131,1135.5997,1203.1125,1134.8838,1204.0003,1134.2135,1204.9356,1133.2782,1205.5951,1132.4823,1206.3997,1132.4911,1206.4207,1134.2937,1205.6258,1136.1364,1204.9264,1137.9598,1204.181,1139.8202,1203.5234,1141.56,1202.5794" style="stroke:#181818;stroke-width:1.0;"/><text fill="#000000" font-family="sans-serif" font-size="13" lengthAdjust="spacing" textLength="46" x="1042" y="1197.1045">Triggers</text></g><!--link CaptureReaction to ValidateReaction--><g id="link_CaptureReaction_ValidateReaction"><path d="M1332.45,1190.0194 L1332.4966,1190.2957 L1342.1565,1187.8215 L1352.0897,1186.9673 L1361.9339,1185.5855 L1371.4854,1182.469 L1381.4249,1181.6516 L1391.1459,1179.5399 L1400.9539,1177.9433 L1410.8222,1176.7048 L1420.4824,1174.2323 L1430.557,1174.2161 L1440.0928,1171.0064 L1449.9872,1169.9219 L1459.9253,1169.0967 L1469.6088,1166.7629 L1479.4414,1165.3123 L1489.2176,1163.5274 L1499.0627,1162.1511 L1508.8746,1160.5776 L1518.7499,1159.3801 L1528.5672,1157.8392 L1538.3675,1156.1969 L1548.0717,1153.9855 L1557.8136,1151.9976 " fill="none" style="stroke:#181818;stroke-width:1.0;"/><polygon fill="#181818" points="1563.73,1150.9994,1563.7474,1151.0672,1561.7877,1150.3762,1559.93,1150.083,1558.0391,1149.6603,1556.0389,1148.8115,1554.1899,1148.5525,1554.1749,1148.5314,1555.0295,1149.0924,1555.9597,1149.7598,1556.9426,1150.5012,1557.7442,1150.9877,1558.7997,1151.8312,1558.9501,1151.9382,1557.9727,1152.6314,1557.4345,1153.6369,1556.9498,1154.6805,1556.1534,1155.5025,1555.5209,1156.441,1555.5335,1156.4599,1557.1569,1155.3438,1558.8374,1154.3139,1560.4904,1153.2425,1562.1961,1152.2504,1563.73,1150.9994" style="stroke:#181818;stroke-width:1.0;"/><text fill="#000000" font-family="sans-serif" font-size="13" lengthAdjust="spacing" textLength="30" x="1445" y="1155.1045">Runs</text></g><!--link CaptureReaction to SaveReaction--><g id="link_CaptureReaction_SaveReaction"><path d="M1346.39,1210.3394 L1346.406,1210.6192 L1356.2833,1210.3544 L1366.2542,1211.7298 L1376.1946,1212.5711 L1386.0348,1211.656 L1396.0078,1213.0688 L1405.9061,1213.1711 L1415.8341,1213.7949 L1425.7828,1214.7812 L1435.6602,1214.5182 L1445.6796,1216.7421 L1455.5144,1215.7327 L1465.472,1216.875 L1475.4446,1218.2798 L1485.33,1218.1572 L1495.2664,1218.9288 L1505.1836,1219.362 L1515.1243,1220.2088 L1525.0537,1220.856 L1535.0048,1221.8839 L1544.936,1222.5641 L1554.8098,1222.2374 " fill="none" style="stroke:#181818;stroke-width:1.0;"/><polygon fill="#181818" points="1560.8,1222.5794,1560.8321,1222.6417,1558.9853,1221.5553,1557.3265,1220.8341,1555.6065,1219.994,1553.6853,1218.7628,1552.0426,1218.073,1552.0233,1218.0557,1552.6896,1218.8226,1553.4534,1219.6764,1554.285,1220.5907,1554.883,1221.2967,1555.8081,1222.2944,1555.931,1222.4321,1554.824,1222.8907,1554.0757,1223.7514,1553.3711,1224.6612,1552.4119,1225.2855,1551.5867,1226.06,1551.5947,1226.0812,1553.4256,1225.3539,1555.293,1224.7234,1557.1428,1224.0462,1559.0263,1223.4581,1560.8,1222.5794" style="stroke:#181818;stroke-width:1.0;"/><text fill="#000000" font-family="sans-serif" font-size="13" lengthAdjust="spacing" textLength="116" x="1402" y="1210.1045">Runs after validation</text></g><!--link HandlePayment to PaymentProvider--><g id="link_HandlePayment_PaymentProvider"><path d="M1344.07,981.6094 L1344.07,981.8896 L1354.1258,981.0569 L1364.1817,981.8671 L1374.2375,982.1423 L1384.2933,980.6582 L1394.3492,981.5058 L1404.405,981.0407 L1414.4608,981.098 L1424.5167,981.5185 L1434.5725,980.6875 L1444.6283,982.3476 L1454.6842,980.769 L1464.74,981.3457 L1474.7958,982.1853 L1484.8517,981.495 L1494.9075,981.7004 L1504.9633,981.5668 L1515.0192,981.8474 L1525.075,981.9282 L1535.1308,982.3903 L1545.1867,982.5041 L1555.2425,982.5151 L1565.2983,981.9489 L1575.3542,982.2275 L1585.41,981.6094 " fill="none" style="stroke:#181818;stroke-width:1.0;"/><polygon fill="#181818" points="1591.41,981.6094,1591.4385,981.6734,1589.5539,980.6832,1587.8362,980.0683,1586.0641,979.3311,1584.1134,978.1921,1582.41,977.6094,1582.3917,977.5911,1583.1095,978.3088,1583.9196,979.119,1584.7939,979.9933,1585.447,980.6464,1586.41,981.6094,1586.5405,981.7399,1585.4614,982.2608,1584.7634,983.1628,1584.1118,984.1112,1583.1898,984.7892,1582.41,985.6094,1582.4192,985.6302,1584.2057,984.7996,1586.0342,984.0638,1587.8424,983.2822,1589.6893,982.5878,1591.41,981.6094" style="stroke:#181818;stroke-width:1.0;"/><text fill="#000000" font-family="sans-serif" font-size="13" lengthAdjust="spacing" textLength="21" x="1449.5" y="978.1045">use</text></g><!--SRC=[bLR1Rjim3BtxAuXSUieF14M18ckt02qQD6k13GK6rQOJeOvaI7AoRDY_ZvJiH7BIrEsXY1-VdqYAUhAJha8O_K0dny_o5IqyMOIfi6X7MNO1TsAd6mSMdPDgQJFx9bKjZ5Y3o9qs2xUZryKMhLvZ55m9LMoDT0uLEDDWLc7fm6amShboK4Y3kPDQyHBNB0G5bb99ncpcfM5oiq7buC4iXP9_q4n0M9XMai7BopaQgzNLLKUcj0tCb4DJYXmzzsb6FFftNTULp0Lh7_XpiLkpqjpeZInQzHRiC7hzvZSfAb710ir6vaW2b7ARXUJbX2y46cfRpctBBhWsePRKcC3xDJlmBFpDWFw8pcnug55TvxbkI8uI6F4p20KjDg8KY6h6qLAKGgnmfvTI-NV3Bshoy9UVHIKBuN3HlDhSoDgNmbfT0EB80C6fLgLSDWQdOaqKhzMsazhZeHTL8XQquKx8odv6yvP62xta7eAVMj7GKjO-E4JD8DKLPijB-MVkEJ8sG66nqjkuBTRhC9fq2-vrWOCAl1TlsCqZI_5pDujGqhIw5OBzt4RSeijNZzXD7Sjw2FOOYzWmrMDKHQr9x4IbgOQlqhGGq8I80RbyqLjLQL6aKXswbwDjBCjAAXou1pDbsKsYn3fao1XKsc9yyZpWEoq67vz7B1jLn5iN42zJ1tX8CKuOTvX8_-WbpatanR-ChMYnimxNK1kTexMdRIXmpjdG7Ur3TwR4tWGO1NzOypZc1yTBZjjbU_NC0thBRxO6u9FZajhJpvjUZPqCH_QisgoW9iXo5nm_Z0uwAexER06oZOQMUyg7YbDHE_AERXp3zWVCo-pd-qEbpYOJgRrtnbeVIYt49fLXu7CINr7H1ZjC3aO7qctLeY-ALZ293PnJ_KPjhX9_2aX_o8z4U49FtPKsQx7n-8elwGb_SzYCVZ4GtuWJiev39DnlBHOU63vvXwMQ_LifrUtTBxrWT5saaUDh88t7hjv6OkWz2PztdvZkmOGckAeEYHpiupZ3W-UciMDFRkFfIqpjNINTwiSAPyXHHllfZ1RSOqmw6kEUI6BThKY2CIcrvWbyfo_F9Tb3bWRURsvahidiHjqEGzbtpcYj7ZVsnOWLmqph6TuPPj_88ce_59-KYF_OgDFSn8u23qH9VO1DKE6lzxHpliJU5_I4RIJx3m00]--></g></svg>